G04 #@! TF.GenerationSoftware,KiCad,Pcbnew,(7.0.0)*
G04 #@! TF.CreationDate,2023-09-09T12:15:38-05:00*
G04 #@! TF.ProjectId,6_key_macro_pad_V1,365f6b65-795f-46d6-9163-726f5f706164,rev?*
G04 #@! TF.SameCoordinates,Original*
G04 #@! TF.FileFunction,Copper,L1,Top*
G04 #@! TF.FilePolarity,Positive*
%FSLAX46Y46*%
G04 Gerber Fmt 4.6, Leading zero omitted, Abs format (unit mm)*
G04 Created by KiCad (PCBNEW (7.0.0)) date 2023-09-09 12:15:38*
%MOMM*%
%LPD*%
G01*
G04 APERTURE LIST*
G04 Aperture macros list*
%AMRoundRect*
0 Rectangle with rounded corners*
0 $1 Rounding radius*
0 $2 $3 $4 $5 $6 $7 $8 $9 X,Y pos of 4 corners*
0 Add a 4 corners polygon primitive as box body*
4,1,4,$2,$3,$4,$5,$6,$7,$8,$9,$2,$3,0*
0 Add four circle primitives for the rounded corners*
1,1,$1+$1,$2,$3*
1,1,$1+$1,$4,$5*
1,1,$1+$1,$6,$7*
1,1,$1+$1,$8,$9*
0 Add four rect primitives between the rounded corners*
20,1,$1+$1,$2,$3,$4,$5,0*
20,1,$1+$1,$4,$5,$6,$7,0*
20,1,$1+$1,$6,$7,$8,$9,0*
20,1,$1+$1,$8,$9,$2,$3,0*%
G04 Aperture macros list end*
G04 #@! TA.AperFunction,SMDPad,CuDef*
%ADD10RoundRect,0.237500X0.237500X-0.300000X0.237500X0.300000X-0.237500X0.300000X-0.237500X-0.300000X0*%
G04 #@! TD*
G04 #@! TA.AperFunction,ComponentPad*
%ADD11C,2.000000*%
G04 #@! TD*
G04 #@! TA.AperFunction,SMDPad,CuDef*
%ADD12RoundRect,0.237500X0.300000X0.237500X-0.300000X0.237500X-0.300000X-0.237500X0.300000X-0.237500X0*%
G04 #@! TD*
G04 #@! TA.AperFunction,SMDPad,CuDef*
%ADD13RoundRect,0.237500X-0.300000X-0.237500X0.300000X-0.237500X0.300000X0.237500X-0.300000X0.237500X0*%
G04 #@! TD*
G04 #@! TA.AperFunction,SMDPad,CuDef*
%ADD14RoundRect,0.160000X0.160000X-0.197500X0.160000X0.197500X-0.160000X0.197500X-0.160000X-0.197500X0*%
G04 #@! TD*
G04 #@! TA.AperFunction,ComponentPad*
%ADD15R,1.700000X1.700000*%
G04 #@! TD*
G04 #@! TA.AperFunction,ComponentPad*
%ADD16O,1.700000X1.700000*%
G04 #@! TD*
G04 #@! TA.AperFunction,ComponentPad*
%ADD17O,1.000000X1.800000*%
G04 #@! TD*
G04 #@! TA.AperFunction,ComponentPad*
%ADD18O,1.000000X2.100000*%
G04 #@! TD*
G04 #@! TA.AperFunction,ViaPad*
%ADD19C,0.800000*%
G04 #@! TD*
G04 #@! TA.AperFunction,Conductor*
%ADD20C,0.150000*%
G04 #@! TD*
G04 #@! TA.AperFunction,Conductor*
%ADD21C,0.500000*%
G04 #@! TD*
G04 #@! TA.AperFunction,Conductor*
%ADD22C,0.250000*%
G04 #@! TD*
G04 #@! TA.AperFunction,Conductor*
%ADD23C,0.300000*%
G04 #@! TD*
G04 #@! TA.AperFunction,Conductor*
%ADD24C,0.200000*%
G04 #@! TD*
G04 APERTURE END LIST*
D10*
X175400000Y-84662500D03*
X175400000Y-82937500D03*
D11*
X181500000Y-102600000D03*
X186500000Y-104700000D03*
X200700000Y-102600000D03*
X205700000Y-104700000D03*
X162200000Y-102600000D03*
X167200000Y-104700000D03*
D12*
X180662500Y-87800000D03*
X178937500Y-87800000D03*
D11*
X181500000Y-83600000D03*
X186500000Y-85700000D03*
X162200000Y-83400000D03*
X167200000Y-85500000D03*
D13*
X176937500Y-86200000D03*
X178662500Y-86200000D03*
D14*
X177600000Y-74197500D03*
X177600000Y-73002500D03*
D11*
X200700000Y-83400000D03*
X205700000Y-85500000D03*
D14*
X176200000Y-74197500D03*
X176200000Y-73002500D03*
D15*
X158399999Y-77799999D03*
D16*
X158399999Y-80339999D03*
X158399999Y-82879999D03*
X158399999Y-85419999D03*
D17*
X172479999Y-72924999D03*
D18*
X172479999Y-77104999D03*
D17*
X181119999Y-72924999D03*
D18*
X181119999Y-77104999D03*
D15*
X158399999Y-91324999D03*
D16*
X158399999Y-93864999D03*
X158399999Y-96404999D03*
X158399999Y-98944999D03*
X158399999Y-101484999D03*
D19*
X175800000Y-82024500D03*
X177800000Y-90600000D03*
X178600000Y-91400000D03*
X179200000Y-100200000D03*
X180683904Y-85800000D03*
X195000000Y-90600000D03*
X177000000Y-89800000D03*
X181800000Y-96000000D03*
X170000000Y-77000000D03*
X178600000Y-73000000D03*
X179200000Y-79400000D03*
X190800000Y-75800000D03*
X182400000Y-93600000D03*
X168200000Y-83800000D03*
X171400000Y-96400000D03*
X197600000Y-71400000D03*
X175200000Y-73000000D03*
X185800000Y-91400000D03*
X177800000Y-89000000D03*
X176200000Y-90600000D03*
X170000000Y-88000000D03*
X168800000Y-71400000D03*
X178600000Y-89800000D03*
X174400000Y-79200000D03*
X201600000Y-93400000D03*
X179400000Y-98200000D03*
X179400000Y-90600000D03*
X163200000Y-93400000D03*
X208400000Y-77200000D03*
X176800000Y-102000000D03*
X178800000Y-107000000D03*
X175200000Y-97400000D03*
X190600000Y-84400000D03*
X174800000Y-86600000D03*
X169800000Y-90897896D03*
X177800000Y-92200000D03*
X177000000Y-91400000D03*
X203000000Y-73400000D03*
X190600000Y-95000000D03*
X164400000Y-73000000D03*
X169403741Y-95900500D03*
X183800000Y-73200000D03*
X208400000Y-95800000D03*
X200800000Y-95800000D03*
X192600000Y-84400000D03*
X176600000Y-84800000D03*
X168800000Y-89000000D03*
X178000000Y-85200000D03*
X181229643Y-87029643D03*
X172000000Y-94200000D03*
X175000000Y-76200000D03*
X178800000Y-76200000D03*
X176400000Y-79400000D03*
X178200000Y-80400000D03*
X176200000Y-75200000D03*
X177600000Y-75200000D03*
X168000000Y-91597396D03*
X169000000Y-106200000D03*
X171559689Y-92816851D03*
X172800000Y-89200000D03*
X169600000Y-89800000D03*
X169800000Y-92400000D03*
X182400000Y-94800000D03*
X174058900Y-87707983D03*
X182400000Y-92400497D03*
X176000000Y-95200000D03*
X176800000Y-95800000D03*
X182400000Y-98000000D03*
X180000000Y-96000000D03*
D20*
X178000000Y-85200000D02*
X177937500Y-85200000D01*
X177937500Y-85200000D02*
X176937500Y-86200000D01*
D21*
X180283904Y-86200000D02*
X180683904Y-85800000D01*
X178662500Y-86200000D02*
X180283904Y-86200000D01*
D22*
X176200000Y-73002500D02*
X175202500Y-73002500D01*
X176200000Y-73002500D02*
X177600000Y-73002500D01*
X177600000Y-73002500D02*
X178597500Y-73002500D01*
D21*
X177800000Y-89000000D02*
X177800000Y-88937500D01*
X177800000Y-88937500D02*
X178937500Y-87800000D01*
D22*
X178597500Y-73002500D02*
X178600000Y-73000000D01*
D23*
X175800000Y-82937500D02*
X175800000Y-82024500D01*
D21*
X178937500Y-87800000D02*
X178937500Y-86525000D01*
D22*
X175202500Y-73002500D02*
X175200000Y-73000000D01*
D21*
X175400000Y-84662500D02*
X176462500Y-84662500D01*
X176462500Y-84662500D02*
X176600000Y-84800000D01*
D24*
X166800000Y-91000000D02*
X158725000Y-91000000D01*
D21*
X201800000Y-101500000D02*
X200700000Y-102600000D01*
D24*
X158725000Y-91000000D02*
X158400000Y-91325000D01*
X168800000Y-89000000D02*
X166800000Y-91000000D01*
D21*
X201800000Y-96800000D02*
X201800000Y-101500000D01*
X200800000Y-95800000D02*
X201800000Y-96800000D01*
X180662500Y-87800000D02*
X180662500Y-87596786D01*
X180662500Y-87596786D02*
X181229643Y-87029643D01*
D24*
X175000000Y-76200000D02*
X178800000Y-76200000D01*
X159710000Y-81650000D02*
X158400000Y-80340000D01*
X176400000Y-79400000D02*
X174150000Y-81650000D01*
X174150000Y-81650000D02*
X159710000Y-81650000D01*
X158920000Y-82880000D02*
X158400000Y-82880000D01*
X159750000Y-82050000D02*
X158920000Y-82880000D01*
X175965685Y-80400000D02*
X174315685Y-82050000D01*
X174315685Y-82050000D02*
X159750000Y-82050000D01*
X178200000Y-80400000D02*
X175965685Y-80400000D01*
D20*
X176200000Y-75200000D02*
X176200000Y-74110000D01*
X177600000Y-75200000D02*
X177600000Y-74110000D01*
D24*
X168000000Y-91597396D02*
X160667604Y-91597396D01*
X160667604Y-91597396D02*
X158400000Y-93865000D01*
X170400000Y-94000000D02*
X170400000Y-97200000D01*
X158685000Y-101200000D02*
X158400000Y-101485000D01*
X168200000Y-101200000D02*
X158685000Y-101200000D01*
X170000000Y-99400000D02*
X168200000Y-101200000D01*
X171559689Y-92816851D02*
X171559689Y-92840311D01*
X171559689Y-92840311D02*
X170400000Y-94000000D01*
X170000000Y-97600000D02*
X170000000Y-99400000D01*
X170400000Y-97200000D02*
X170000000Y-97600000D01*
X172200000Y-89800000D02*
X169600000Y-89800000D01*
X172800000Y-89200000D02*
X172200000Y-89800000D01*
X176800000Y-93200000D02*
X175716851Y-92116851D01*
X180800000Y-93200000D02*
X176800000Y-93200000D01*
X175716851Y-92116851D02*
X170083149Y-92116851D01*
X182400000Y-94800000D02*
X180800000Y-93200000D01*
X170083149Y-92116851D02*
X169800000Y-92400000D01*
X171950917Y-85600000D02*
X167300000Y-85600000D01*
X167300000Y-85600000D02*
X167200000Y-85500000D01*
X174058900Y-87707983D02*
X171950917Y-85600000D01*
X182400000Y-89400000D02*
X186100000Y-85700000D01*
X186100000Y-85700000D02*
X186500000Y-85700000D01*
X182400000Y-92400497D02*
X182400000Y-89400000D01*
X176000000Y-95200000D02*
X174000000Y-95200000D01*
X167700000Y-104700000D02*
X167200000Y-104700000D01*
X170800000Y-101600000D02*
X167700000Y-104700000D01*
X174000000Y-95200000D02*
X170800000Y-98400000D01*
X170800000Y-98400000D02*
X170800000Y-101600000D01*
X176800000Y-100000000D02*
X181400000Y-104600000D01*
X176800000Y-95800000D02*
X176800000Y-100000000D01*
X181400000Y-104600000D02*
X186400000Y-104600000D01*
X186400000Y-104600000D02*
X186500000Y-104700000D01*
X182400000Y-98000000D02*
X189200000Y-104800000D01*
X205600000Y-104800000D02*
X205700000Y-104700000D01*
X189200000Y-104800000D02*
X205600000Y-104800000D01*
X204500000Y-85500000D02*
X205700000Y-85500000D01*
X193400000Y-96600000D02*
X203600000Y-86400000D01*
X180000000Y-96000000D02*
X180750000Y-96750000D01*
X180750000Y-96750000D02*
X193250000Y-96750000D01*
X193250000Y-96750000D02*
X193400000Y-96600000D01*
X203600000Y-86400000D02*
X204500000Y-85500000D01*
M02*
