G04 #@! TF.GenerationSoftware,KiCad,Pcbnew,(7.0.0)*
G04 #@! TF.CreationDate,2023-09-09T12:15:38-05:00*
G04 #@! TF.ProjectId,6_key_macro_pad_V1,365f6b65-795f-46d6-9163-726f5f706164,rev?*
G04 #@! TF.SameCoordinates,Original*
G04 #@! TF.FileFunction,Paste,Bot*
G04 #@! TF.FilePolarity,Positive*
%FSLAX46Y46*%
G04 Gerber Fmt 4.6, Leading zero omitted, Abs format (unit mm)*
G04 Created by KiCad (PCBNEW (7.0.0)) date 2023-09-09 12:15:38*
%MOMM*%
%LPD*%
G01*
G04 APERTURE LIST*
G04 Aperture macros list*
%AMRoundRect*
0 Rectangle with rounded corners*
0 $1 Rounding radius*
0 $2 $3 $4 $5 $6 $7 $8 $9 X,Y pos of 4 corners*
0 Add a 4 corners polygon primitive as box body*
4,1,4,$2,$3,$4,$5,$6,$7,$8,$9,$2,$3,0*
0 Add four circle primitives for the rounded corners*
1,1,$1+$1,$2,$3*
1,1,$1+$1,$4,$5*
1,1,$1+$1,$6,$7*
1,1,$1+$1,$8,$9*
0 Add four rect primitives between the rounded corners*
20,1,$1+$1,$2,$3,$4,$5,0*
20,1,$1+$1,$4,$5,$6,$7,0*
20,1,$1+$1,$6,$7,$8,$9,0*
20,1,$1+$1,$8,$9,$2,$3,0*%
%AMRotRect*
0 Rectangle, with rotation*
0 The origin of the aperture is its center*
0 $1 length*
0 $2 width*
0 $3 Rotation angle, in degrees counterclockwise*
0 Add horizontal line*
21,1,$1,$2,0,0,$3*%
%AMFreePoly0*
4,1,18,-0.410000,0.593000,-0.403758,0.624380,-0.385983,0.650983,-0.359380,0.668758,-0.328000,0.675000,0.328000,0.675000,0.359380,0.668758,0.385983,0.650983,0.403758,0.624380,0.410000,0.593000,0.410000,-0.593000,0.403758,-0.624380,0.385983,-0.650983,0.359380,-0.668758,0.328000,-0.675000,0.000000,-0.675000,-0.410000,-0.265000,-0.410000,0.593000,-0.410000,0.593000,$1*%
G04 Aperture macros list end*
%ADD10RoundRect,0.135000X0.135000X0.185000X-0.135000X0.185000X-0.135000X-0.185000X0.135000X-0.185000X0*%
%ADD11RoundRect,0.249999X0.558616X0.000000X0.000000X0.558616X-0.558616X0.000000X0.000000X-0.558616X0*%
%ADD12RoundRect,0.050000X0.309359X-0.238649X-0.238649X0.309359X-0.309359X0.238649X0.238649X-0.309359X0*%
%ADD13RoundRect,0.050000X0.309359X0.238649X0.238649X0.309359X-0.309359X-0.238649X-0.238649X-0.309359X0*%
%ADD14RoundRect,0.082000X0.593000X-0.328000X0.593000X0.328000X-0.593000X0.328000X-0.593000X-0.328000X0*%
%ADD15FreePoly0,90.000000*%
%ADD16RoundRect,0.250000X-0.625000X0.375000X-0.625000X-0.375000X0.625000X-0.375000X0.625000X0.375000X0*%
%ADD17R,1.250000X1.000000*%
%ADD18R,1.000000X1.250000*%
%ADD19RoundRect,0.135000X0.185000X-0.135000X0.185000X0.135000X-0.185000X0.135000X-0.185000X-0.135000X0*%
%ADD20RoundRect,0.140000X-0.140000X-0.170000X0.140000X-0.170000X0.140000X0.170000X-0.140000X0.170000X0*%
%ADD21RoundRect,0.140000X0.170000X-0.140000X0.170000X0.140000X-0.170000X0.140000X-0.170000X-0.140000X0*%
%ADD22RoundRect,0.160000X-0.160000X0.197500X-0.160000X-0.197500X0.160000X-0.197500X0.160000X0.197500X0*%
%ADD23RoundRect,0.140000X-0.219203X-0.021213X-0.021213X-0.219203X0.219203X0.021213X0.021213X0.219203X0*%
%ADD24RotRect,1.400000X1.200000X135.000000*%
%ADD25RoundRect,0.140000X0.219203X0.021213X0.021213X0.219203X-0.219203X-0.021213X-0.021213X-0.219203X0*%
%ADD26RoundRect,0.135000X-0.135000X-0.185000X0.135000X-0.185000X0.135000X0.185000X-0.135000X0.185000X0*%
%ADD27R,0.600000X1.150000*%
%ADD28R,0.300000X1.150000*%
%ADD29RoundRect,0.135000X0.226274X0.035355X0.035355X0.226274X-0.226274X-0.035355X-0.035355X-0.226274X0*%
%ADD30RoundRect,0.135000X-0.185000X0.135000X-0.185000X-0.135000X0.185000X-0.135000X0.185000X0.135000X0*%
%ADD31RoundRect,0.160000X0.222500X0.160000X-0.222500X0.160000X-0.222500X-0.160000X0.222500X-0.160000X0*%
%ADD32RoundRect,0.140000X0.140000X0.170000X-0.140000X0.170000X-0.140000X-0.170000X0.140000X-0.170000X0*%
%ADD33RoundRect,0.082000X-0.593000X0.328000X-0.593000X-0.328000X0.593000X-0.328000X0.593000X0.328000X0*%
%ADD34FreePoly0,270.000000*%
%ADD35RoundRect,0.150000X0.650000X0.150000X-0.650000X0.150000X-0.650000X-0.150000X0.650000X-0.150000X0*%
%ADD36RoundRect,0.150000X0.150000X-0.512500X0.150000X0.512500X-0.150000X0.512500X-0.150000X-0.512500X0*%
%ADD37R,0.800000X0.300000*%
%ADD38RoundRect,0.140000X-0.021213X0.219203X-0.219203X0.021213X0.021213X-0.219203X0.219203X-0.021213X0*%
G04 APERTURE END LIST*
D10*
X196710000Y-85400000D03*
X195690000Y-85400000D03*
D11*
X177800000Y-91731371D03*
X178931371Y-90600000D03*
X176668629Y-90600000D03*
X177800000Y-89468629D03*
D12*
X182069157Y-91192202D03*
X181786314Y-91475045D03*
X181503472Y-91757887D03*
X181220629Y-92040730D03*
X180937786Y-92323573D03*
X180654944Y-92606415D03*
X180372101Y-92889258D03*
X180089258Y-93172101D03*
X179806415Y-93454944D03*
X179523573Y-93737786D03*
X179240730Y-94020629D03*
X178957887Y-94303472D03*
X178675045Y-94586314D03*
X178392202Y-94869157D03*
D13*
X177207798Y-94869157D03*
X176924955Y-94586314D03*
X176642113Y-94303472D03*
X176359270Y-94020629D03*
X176076427Y-93737786D03*
X175793585Y-93454944D03*
X175510742Y-93172101D03*
X175227899Y-92889258D03*
X174945056Y-92606415D03*
X174662214Y-92323573D03*
X174379371Y-92040730D03*
X174096528Y-91757887D03*
X173813686Y-91475045D03*
X173530843Y-91192202D03*
D12*
X173530843Y-90007798D03*
X173813686Y-89724955D03*
X174096528Y-89442113D03*
X174379371Y-89159270D03*
X174662214Y-88876427D03*
X174945056Y-88593585D03*
X175227899Y-88310742D03*
X175510742Y-88027899D03*
X175793585Y-87745056D03*
X176076427Y-87462214D03*
X176359270Y-87179371D03*
X176642113Y-86896528D03*
X176924955Y-86613686D03*
X177207798Y-86330843D03*
D13*
X178392202Y-86330843D03*
X178675045Y-86613686D03*
X178957887Y-86896528D03*
X179240730Y-87179371D03*
X179523573Y-87462214D03*
X179806415Y-87745056D03*
X180089258Y-88027899D03*
X180372101Y-88310742D03*
X180654944Y-88593585D03*
X180937786Y-88876427D03*
X181220629Y-89159270D03*
X181503472Y-89442113D03*
X181786314Y-89724955D03*
X182069157Y-90007798D03*
D10*
X194510000Y-85400000D03*
X193490000Y-85400000D03*
D14*
X183743585Y-74317444D03*
X183743585Y-75817444D03*
X189193585Y-74317444D03*
D15*
X189193584Y-75817443D03*
D16*
X175600000Y-80800000D03*
X175600000Y-83600000D03*
D17*
X178674999Y-105799999D03*
X170924999Y-105799999D03*
D14*
X164543585Y-74217444D03*
X164543585Y-75717444D03*
X169993585Y-74217444D03*
D15*
X169993584Y-75717443D03*
D18*
X196199999Y-71524999D03*
X196199999Y-79274999D03*
D19*
X196800000Y-82310000D03*
X196800000Y-81290000D03*
D20*
X183720000Y-91400000D03*
X184680000Y-91400000D03*
D21*
X189600000Y-85400000D03*
X189600000Y-84440000D03*
D14*
X202993585Y-74217444D03*
X202993585Y-75717444D03*
X208443585Y-74217444D03*
D15*
X208443584Y-75717443D03*
D22*
X173800000Y-81600000D03*
X173800000Y-82795000D03*
D23*
X181139411Y-95339411D03*
X180460589Y-94660589D03*
D24*
X177176776Y-100378857D03*
X175621141Y-98823222D03*
X176823222Y-97621141D03*
X178378857Y-99176776D03*
D25*
X178739411Y-97539411D03*
X178060589Y-96860589D03*
D26*
X164180000Y-71400000D03*
X165200000Y-71400000D03*
D27*
X173599999Y-77679999D03*
X174399999Y-77679999D03*
D28*
X175549999Y-77679999D03*
X176549999Y-77679999D03*
X177049999Y-77679999D03*
X178049999Y-77679999D03*
D27*
X179199999Y-77679999D03*
X179999999Y-77679999D03*
X179999999Y-77679999D03*
X179199999Y-77679999D03*
D28*
X178549999Y-77679999D03*
X177549999Y-77679999D03*
X176049999Y-77679999D03*
X175049999Y-77679999D03*
D27*
X174399999Y-77679999D03*
X173599999Y-77679999D03*
D29*
X172760624Y-92160624D03*
X172039376Y-91439376D03*
D30*
X174200000Y-95490000D03*
X174200000Y-96510000D03*
D31*
X167600000Y-71400000D03*
X166455000Y-71400000D03*
D32*
X171680000Y-88000000D03*
X170720000Y-88000000D03*
D33*
X189193585Y-94917444D03*
X189193585Y-93417444D03*
X183743585Y-94917444D03*
D34*
X183743584Y-93417443D03*
D33*
X208418585Y-94867444D03*
X208418585Y-93367444D03*
X202968585Y-94867444D03*
D34*
X202968584Y-93367443D03*
D35*
X196800000Y-86895000D03*
X196800000Y-88165000D03*
X196800000Y-89435000D03*
X196800000Y-90705000D03*
X189600000Y-90705000D03*
X189600000Y-89435000D03*
X189600000Y-88165000D03*
X189600000Y-86895000D03*
D23*
X175460589Y-100660589D03*
X176139411Y-101339411D03*
D36*
X173550000Y-86537500D03*
X171650000Y-86537500D03*
X172600000Y-84262500D03*
D33*
X169993585Y-94917444D03*
X169993585Y-93417444D03*
X164543585Y-94917444D03*
D34*
X164543584Y-93417443D03*
D32*
X170280000Y-84200000D03*
X169320000Y-84200000D03*
D37*
X170749999Y-89049999D03*
X170749999Y-89549999D03*
X170749999Y-90049999D03*
X170749999Y-90549999D03*
X167649999Y-90549999D03*
X167649999Y-90049999D03*
X167649999Y-89549999D03*
X167649999Y-89049999D03*
D38*
X172739411Y-95060589D03*
X172060589Y-95739411D03*
D29*
X178960624Y-84560624D03*
X178239376Y-83839376D03*
X179760624Y-83960624D03*
X179039376Y-83239376D03*
M02*
