G04 #@! TF.GenerationSoftware,KiCad,Pcbnew,(7.0.0)*
G04 #@! TF.CreationDate,2023-09-09T12:15:38-05:00*
G04 #@! TF.ProjectId,6_key_macro_pad_V1,365f6b65-795f-46d6-9163-726f5f706164,rev?*
G04 #@! TF.SameCoordinates,Original*
G04 #@! TF.FileFunction,Legend,Top*
G04 #@! TF.FilePolarity,Positive*
%FSLAX46Y46*%
G04 Gerber Fmt 4.6, Leading zero omitted, Abs format (unit mm)*
G04 Created by KiCad (PCBNEW (7.0.0)) date 2023-09-09 12:15:38*
%MOMM*%
%LPD*%
G01*
G04 APERTURE LIST*
G04 Aperture macros list*
%AMRoundRect*
0 Rectangle with rounded corners*
0 $1 Rounding radius*
0 $2 $3 $4 $5 $6 $7 $8 $9 X,Y pos of 4 corners*
0 Add a 4 corners polygon primitive as box body*
4,1,4,$2,$3,$4,$5,$6,$7,$8,$9,$2,$3,0*
0 Add four circle primitives for the rounded corners*
1,1,$1+$1,$2,$3*
1,1,$1+$1,$4,$5*
1,1,$1+$1,$6,$7*
1,1,$1+$1,$8,$9*
0 Add four rect primitives between the rounded corners*
20,1,$1+$1,$2,$3,$4,$5,0*
20,1,$1+$1,$4,$5,$6,$7,0*
20,1,$1+$1,$6,$7,$8,$9,0*
20,1,$1+$1,$8,$9,$2,$3,0*%
G04 Aperture macros list end*
%ADD10C,0.150000*%
%ADD11C,0.120000*%
%ADD12RoundRect,0.237500X0.237500X-0.300000X0.237500X0.300000X-0.237500X0.300000X-0.237500X-0.300000X0*%
%ADD13C,1.700000*%
%ADD14C,3.400000*%
%ADD15RoundRect,0.237500X0.300000X0.237500X-0.300000X0.237500X-0.300000X-0.237500X0.300000X-0.237500X0*%
%ADD16RoundRect,0.237500X-0.300000X-0.237500X0.300000X-0.237500X0.300000X0.237500X-0.300000X0.237500X0*%
%ADD17RoundRect,0.160000X0.160000X-0.197500X0.160000X0.197500X-0.160000X0.197500X-0.160000X-0.197500X0*%
%ADD18C,2.500000*%
%ADD19R,1.700000X1.700000*%
%ADD20O,1.700000X1.700000*%
%ADD21C,0.650000*%
%ADD22O,1.000000X1.800000*%
%ADD23O,1.000000X2.100000*%
G04 APERTURE END LIST*
D10*
X173433333Y-84072142D02*
X173385714Y-84119761D01*
X173385714Y-84119761D02*
X173242857Y-84167380D01*
X173242857Y-84167380D02*
X173147619Y-84167380D01*
X173147619Y-84167380D02*
X173004762Y-84119761D01*
X173004762Y-84119761D02*
X172909524Y-84024523D01*
X172909524Y-84024523D02*
X172861905Y-83929285D01*
X172861905Y-83929285D02*
X172814286Y-83738809D01*
X172814286Y-83738809D02*
X172814286Y-83595952D01*
X172814286Y-83595952D02*
X172861905Y-83405476D01*
X172861905Y-83405476D02*
X172909524Y-83310238D01*
X172909524Y-83310238D02*
X173004762Y-83215000D01*
X173004762Y-83215000D02*
X173147619Y-83167380D01*
X173147619Y-83167380D02*
X173242857Y-83167380D01*
X173242857Y-83167380D02*
X173385714Y-83215000D01*
X173385714Y-83215000D02*
X173433333Y-83262619D01*
X174338095Y-83167380D02*
X173861905Y-83167380D01*
X173861905Y-83167380D02*
X173814286Y-83643571D01*
X173814286Y-83643571D02*
X173861905Y-83595952D01*
X173861905Y-83595952D02*
X173957143Y-83548333D01*
X173957143Y-83548333D02*
X174195238Y-83548333D01*
X174195238Y-83548333D02*
X174290476Y-83595952D01*
X174290476Y-83595952D02*
X174338095Y-83643571D01*
X174338095Y-83643571D02*
X174385714Y-83738809D01*
X174385714Y-83738809D02*
X174385714Y-83976904D01*
X174385714Y-83976904D02*
X174338095Y-84072142D01*
X174338095Y-84072142D02*
X174290476Y-84119761D01*
X174290476Y-84119761D02*
X174195238Y-84167380D01*
X174195238Y-84167380D02*
X173957143Y-84167380D01*
X173957143Y-84167380D02*
X173861905Y-84119761D01*
X173861905Y-84119761D02*
X173814286Y-84072142D01*
X179633333Y-89502142D02*
X179585714Y-89549761D01*
X179585714Y-89549761D02*
X179442857Y-89597380D01*
X179442857Y-89597380D02*
X179347619Y-89597380D01*
X179347619Y-89597380D02*
X179204762Y-89549761D01*
X179204762Y-89549761D02*
X179109524Y-89454523D01*
X179109524Y-89454523D02*
X179061905Y-89359285D01*
X179061905Y-89359285D02*
X179014286Y-89168809D01*
X179014286Y-89168809D02*
X179014286Y-89025952D01*
X179014286Y-89025952D02*
X179061905Y-88835476D01*
X179061905Y-88835476D02*
X179109524Y-88740238D01*
X179109524Y-88740238D02*
X179204762Y-88645000D01*
X179204762Y-88645000D02*
X179347619Y-88597380D01*
X179347619Y-88597380D02*
X179442857Y-88597380D01*
X179442857Y-88597380D02*
X179585714Y-88645000D01*
X179585714Y-88645000D02*
X179633333Y-88692619D01*
X179966667Y-88597380D02*
X180585714Y-88597380D01*
X180585714Y-88597380D02*
X180252381Y-88978333D01*
X180252381Y-88978333D02*
X180395238Y-88978333D01*
X180395238Y-88978333D02*
X180490476Y-89025952D01*
X180490476Y-89025952D02*
X180538095Y-89073571D01*
X180538095Y-89073571D02*
X180585714Y-89168809D01*
X180585714Y-89168809D02*
X180585714Y-89406904D01*
X180585714Y-89406904D02*
X180538095Y-89502142D01*
X180538095Y-89502142D02*
X180490476Y-89549761D01*
X180490476Y-89549761D02*
X180395238Y-89597380D01*
X180395238Y-89597380D02*
X180109524Y-89597380D01*
X180109524Y-89597380D02*
X180014286Y-89549761D01*
X180014286Y-89549761D02*
X179966667Y-89502142D01*
X177633333Y-85042142D02*
X177585714Y-85089761D01*
X177585714Y-85089761D02*
X177442857Y-85137380D01*
X177442857Y-85137380D02*
X177347619Y-85137380D01*
X177347619Y-85137380D02*
X177204762Y-85089761D01*
X177204762Y-85089761D02*
X177109524Y-84994523D01*
X177109524Y-84994523D02*
X177061905Y-84899285D01*
X177061905Y-84899285D02*
X177014286Y-84708809D01*
X177014286Y-84708809D02*
X177014286Y-84565952D01*
X177014286Y-84565952D02*
X177061905Y-84375476D01*
X177061905Y-84375476D02*
X177109524Y-84280238D01*
X177109524Y-84280238D02*
X177204762Y-84185000D01*
X177204762Y-84185000D02*
X177347619Y-84137380D01*
X177347619Y-84137380D02*
X177442857Y-84137380D01*
X177442857Y-84137380D02*
X177585714Y-84185000D01*
X177585714Y-84185000D02*
X177633333Y-84232619D01*
X178490476Y-84470714D02*
X178490476Y-85137380D01*
X178252381Y-84089761D02*
X178014286Y-84804047D01*
X178014286Y-84804047D02*
X178633333Y-84804047D01*
X178833333Y-74767380D02*
X178500000Y-74291190D01*
X178261905Y-74767380D02*
X178261905Y-73767380D01*
X178261905Y-73767380D02*
X178642857Y-73767380D01*
X178642857Y-73767380D02*
X178738095Y-73815000D01*
X178738095Y-73815000D02*
X178785714Y-73862619D01*
X178785714Y-73862619D02*
X178833333Y-73957857D01*
X178833333Y-73957857D02*
X178833333Y-74100714D01*
X178833333Y-74100714D02*
X178785714Y-74195952D01*
X178785714Y-74195952D02*
X178738095Y-74243571D01*
X178738095Y-74243571D02*
X178642857Y-74291190D01*
X178642857Y-74291190D02*
X178261905Y-74291190D01*
X179166667Y-73767380D02*
X179785714Y-73767380D01*
X179785714Y-73767380D02*
X179452381Y-74148333D01*
X179452381Y-74148333D02*
X179595238Y-74148333D01*
X179595238Y-74148333D02*
X179690476Y-74195952D01*
X179690476Y-74195952D02*
X179738095Y-74243571D01*
X179738095Y-74243571D02*
X179785714Y-74338809D01*
X179785714Y-74338809D02*
X179785714Y-74576904D01*
X179785714Y-74576904D02*
X179738095Y-74672142D01*
X179738095Y-74672142D02*
X179690476Y-74719761D01*
X179690476Y-74719761D02*
X179595238Y-74767380D01*
X179595238Y-74767380D02*
X179309524Y-74767380D01*
X179309524Y-74767380D02*
X179214286Y-74719761D01*
X179214286Y-74719761D02*
X179166667Y-74672142D01*
X174633333Y-74767380D02*
X174300000Y-74291190D01*
X174061905Y-74767380D02*
X174061905Y-73767380D01*
X174061905Y-73767380D02*
X174442857Y-73767380D01*
X174442857Y-73767380D02*
X174538095Y-73815000D01*
X174538095Y-73815000D02*
X174585714Y-73862619D01*
X174585714Y-73862619D02*
X174633333Y-73957857D01*
X174633333Y-73957857D02*
X174633333Y-74100714D01*
X174633333Y-74100714D02*
X174585714Y-74195952D01*
X174585714Y-74195952D02*
X174538095Y-74243571D01*
X174538095Y-74243571D02*
X174442857Y-74291190D01*
X174442857Y-74291190D02*
X174061905Y-74291190D01*
X175014286Y-73862619D02*
X175061905Y-73815000D01*
X175061905Y-73815000D02*
X175157143Y-73767380D01*
X175157143Y-73767380D02*
X175395238Y-73767380D01*
X175395238Y-73767380D02*
X175490476Y-73815000D01*
X175490476Y-73815000D02*
X175538095Y-73862619D01*
X175538095Y-73862619D02*
X175585714Y-73957857D01*
X175585714Y-73957857D02*
X175585714Y-74053095D01*
X175585714Y-74053095D02*
X175538095Y-74195952D01*
X175538095Y-74195952D02*
X174966667Y-74767380D01*
X174966667Y-74767380D02*
X175585714Y-74767380D01*
D11*
X174890000Y-83946267D02*
X174890000Y-83653733D01*
X175910000Y-83946267D02*
X175910000Y-83653733D01*
X179946267Y-88310000D02*
X179653733Y-88310000D01*
X179946267Y-87290000D02*
X179653733Y-87290000D01*
X177653733Y-85690000D02*
X177946267Y-85690000D01*
X177653733Y-86710000D02*
X177946267Y-86710000D01*
X177220000Y-73767621D02*
X177220000Y-73432379D01*
X177980000Y-73767621D02*
X177980000Y-73432379D01*
X175820000Y-73767621D02*
X175820000Y-73432379D01*
X176580000Y-73767621D02*
X176580000Y-73432379D01*
%LPC*%
D12*
X175400000Y-84662500D03*
X175400000Y-82937500D03*
D13*
X181000000Y-98800000D03*
D14*
X186500000Y-98800000D03*
D13*
X192000000Y-98800000D03*
X200200000Y-98800000D03*
D14*
X205700000Y-98800000D03*
D13*
X211200000Y-98800000D03*
X161700000Y-98800000D03*
D14*
X167200000Y-98800000D03*
D13*
X172700000Y-98800000D03*
D15*
X180662500Y-87800000D03*
X178937500Y-87800000D03*
D13*
X181000000Y-79800000D03*
D14*
X186500000Y-79800000D03*
D13*
X192000000Y-79800000D03*
X161700000Y-79600000D03*
D14*
X167200000Y-79600000D03*
D13*
X172700000Y-79600000D03*
D16*
X176937500Y-86200000D03*
X178662500Y-86200000D03*
D17*
X177600000Y-74197500D03*
X177600000Y-73002500D03*
D13*
X200200000Y-79600000D03*
D14*
X205700000Y-79600000D03*
D13*
X211200000Y-79600000D03*
D17*
X176200000Y-74197500D03*
X176200000Y-73002500D03*
D18*
X213593585Y-73017444D03*
X159393585Y-106817444D03*
D19*
X158399999Y-77799999D03*
D20*
X158399999Y-80339999D03*
X158399999Y-82879999D03*
X158399999Y-85419999D03*
D21*
X173910000Y-76605000D03*
X179690000Y-76605000D03*
D22*
X172479999Y-72924999D03*
D23*
X172479999Y-77104999D03*
D22*
X181119999Y-72924999D03*
D23*
X181119999Y-77104999D03*
D18*
X213593585Y-106817444D03*
D19*
X158399999Y-91324999D03*
D20*
X158399999Y-93864999D03*
X158399999Y-96404999D03*
X158399999Y-98944999D03*
X158399999Y-101484999D03*
D18*
X159393585Y-73017444D03*
M02*
