G04 #@! TF.GenerationSoftware,KiCad,Pcbnew,(7.0.0)*
G04 #@! TF.CreationDate,2023-09-09T12:15:38-05:00*
G04 #@! TF.ProjectId,6_key_macro_pad_V1,365f6b65-795f-46d6-9163-726f5f706164,rev?*
G04 #@! TF.SameCoordinates,Original*
G04 #@! TF.FileFunction,Copper,L4,Bot*
G04 #@! TF.FilePolarity,Positive*
%FSLAX46Y46*%
G04 Gerber Fmt 4.6, Leading zero omitted, Abs format (unit mm)*
G04 Created by KiCad (PCBNEW (7.0.0)) date 2023-09-09 12:15:38*
%MOMM*%
%LPD*%
G01*
G04 APERTURE LIST*
G04 Aperture macros list*
%AMRoundRect*
0 Rectangle with rounded corners*
0 $1 Rounding radius*
0 $2 $3 $4 $5 $6 $7 $8 $9 X,Y pos of 4 corners*
0 Add a 4 corners polygon primitive as box body*
4,1,4,$2,$3,$4,$5,$6,$7,$8,$9,$2,$3,0*
0 Add four circle primitives for the rounded corners*
1,1,$1+$1,$2,$3*
1,1,$1+$1,$4,$5*
1,1,$1+$1,$6,$7*
1,1,$1+$1,$8,$9*
0 Add four rect primitives between the rounded corners*
20,1,$1+$1,$2,$3,$4,$5,0*
20,1,$1+$1,$4,$5,$6,$7,0*
20,1,$1+$1,$6,$7,$8,$9,0*
20,1,$1+$1,$8,$9,$2,$3,0*%
%AMRotRect*
0 Rectangle, with rotation*
0 The origin of the aperture is its center*
0 $1 length*
0 $2 width*
0 $3 Rotation angle, in degrees counterclockwise*
0 Add horizontal line*
21,1,$1,$2,0,0,$3*%
%AMFreePoly0*
4,1,18,-0.410000,0.593000,-0.403758,0.624380,-0.385983,0.650983,-0.359380,0.668758,-0.328000,0.675000,0.328000,0.675000,0.359380,0.668758,0.385983,0.650983,0.403758,0.624380,0.410000,0.593000,0.410000,-0.593000,0.403758,-0.624380,0.385983,-0.650983,0.359380,-0.668758,0.328000,-0.675000,0.000000,-0.675000,-0.410000,-0.265000,-0.410000,0.593000,-0.410000,0.593000,$1*%
G04 Aperture macros list end*
G04 #@! TA.AperFunction,ComponentPad*
%ADD10C,2.000000*%
G04 #@! TD*
G04 #@! TA.AperFunction,SMDPad,CuDef*
%ADD11RoundRect,0.135000X0.135000X0.185000X-0.135000X0.185000X-0.135000X-0.185000X0.135000X-0.185000X0*%
G04 #@! TD*
G04 #@! TA.AperFunction,SMDPad,CuDef*
%ADD12RoundRect,0.050000X0.309359X-0.238649X-0.238649X0.309359X-0.309359X0.238649X0.238649X-0.309359X0*%
G04 #@! TD*
G04 #@! TA.AperFunction,SMDPad,CuDef*
%ADD13RoundRect,0.050000X0.309359X0.238649X0.238649X0.309359X-0.309359X-0.238649X-0.238649X-0.309359X0*%
G04 #@! TD*
G04 #@! TA.AperFunction,SMDPad,CuDef*
%ADD14RotRect,3.200000X3.200000X135.000000*%
G04 #@! TD*
G04 #@! TA.AperFunction,SMDPad,CuDef*
%ADD15RoundRect,0.082000X0.593000X-0.328000X0.593000X0.328000X-0.593000X0.328000X-0.593000X-0.328000X0*%
G04 #@! TD*
G04 #@! TA.AperFunction,SMDPad,CuDef*
%ADD16FreePoly0,90.000000*%
G04 #@! TD*
G04 #@! TA.AperFunction,SMDPad,CuDef*
%ADD17RoundRect,0.250000X-0.625000X0.375000X-0.625000X-0.375000X0.625000X-0.375000X0.625000X0.375000X0*%
G04 #@! TD*
G04 #@! TA.AperFunction,SMDPad,CuDef*
%ADD18R,1.250000X1.000000*%
G04 #@! TD*
G04 #@! TA.AperFunction,SMDPad,CuDef*
%ADD19R,1.000000X1.250000*%
G04 #@! TD*
G04 #@! TA.AperFunction,SMDPad,CuDef*
%ADD20RoundRect,0.135000X0.185000X-0.135000X0.185000X0.135000X-0.185000X0.135000X-0.185000X-0.135000X0*%
G04 #@! TD*
G04 #@! TA.AperFunction,SMDPad,CuDef*
%ADD21RoundRect,0.140000X-0.140000X-0.170000X0.140000X-0.170000X0.140000X0.170000X-0.140000X0.170000X0*%
G04 #@! TD*
G04 #@! TA.AperFunction,SMDPad,CuDef*
%ADD22RoundRect,0.140000X0.170000X-0.140000X0.170000X0.140000X-0.170000X0.140000X-0.170000X-0.140000X0*%
G04 #@! TD*
G04 #@! TA.AperFunction,SMDPad,CuDef*
%ADD23C,1.500000*%
G04 #@! TD*
G04 #@! TA.AperFunction,SMDPad,CuDef*
%ADD24RoundRect,0.160000X-0.160000X0.197500X-0.160000X-0.197500X0.160000X-0.197500X0.160000X0.197500X0*%
G04 #@! TD*
G04 #@! TA.AperFunction,SMDPad,CuDef*
%ADD25RoundRect,0.140000X-0.219203X-0.021213X-0.021213X-0.219203X0.219203X0.021213X0.021213X0.219203X0*%
G04 #@! TD*
G04 #@! TA.AperFunction,SMDPad,CuDef*
%ADD26RotRect,1.400000X1.200000X135.000000*%
G04 #@! TD*
G04 #@! TA.AperFunction,SMDPad,CuDef*
%ADD27RoundRect,0.140000X0.219203X0.021213X0.021213X0.219203X-0.219203X-0.021213X-0.021213X-0.219203X0*%
G04 #@! TD*
G04 #@! TA.AperFunction,SMDPad,CuDef*
%ADD28RoundRect,0.135000X-0.135000X-0.185000X0.135000X-0.185000X0.135000X0.185000X-0.135000X0.185000X0*%
G04 #@! TD*
G04 #@! TA.AperFunction,ComponentPad*
%ADD29R,1.700000X1.700000*%
G04 #@! TD*
G04 #@! TA.AperFunction,ComponentPad*
%ADD30O,1.700000X1.700000*%
G04 #@! TD*
G04 #@! TA.AperFunction,SMDPad,CuDef*
%ADD31R,0.600000X1.150000*%
G04 #@! TD*
G04 #@! TA.AperFunction,SMDPad,CuDef*
%ADD32R,0.300000X1.150000*%
G04 #@! TD*
G04 #@! TA.AperFunction,ComponentPad*
%ADD33O,1.000000X1.800000*%
G04 #@! TD*
G04 #@! TA.AperFunction,ComponentPad*
%ADD34O,1.000000X2.100000*%
G04 #@! TD*
G04 #@! TA.AperFunction,SMDPad,CuDef*
%ADD35RoundRect,0.135000X0.226274X0.035355X0.035355X0.226274X-0.226274X-0.035355X-0.035355X-0.226274X0*%
G04 #@! TD*
G04 #@! TA.AperFunction,SMDPad,CuDef*
%ADD36RoundRect,0.135000X-0.185000X0.135000X-0.185000X-0.135000X0.185000X-0.135000X0.185000X0.135000X0*%
G04 #@! TD*
G04 #@! TA.AperFunction,SMDPad,CuDef*
%ADD37RoundRect,0.160000X0.222500X0.160000X-0.222500X0.160000X-0.222500X-0.160000X0.222500X-0.160000X0*%
G04 #@! TD*
G04 #@! TA.AperFunction,SMDPad,CuDef*
%ADD38RoundRect,0.140000X0.140000X0.170000X-0.140000X0.170000X-0.140000X-0.170000X0.140000X-0.170000X0*%
G04 #@! TD*
G04 #@! TA.AperFunction,SMDPad,CuDef*
%ADD39RoundRect,0.082000X-0.593000X0.328000X-0.593000X-0.328000X0.593000X-0.328000X0.593000X0.328000X0*%
G04 #@! TD*
G04 #@! TA.AperFunction,SMDPad,CuDef*
%ADD40FreePoly0,270.000000*%
G04 #@! TD*
G04 #@! TA.AperFunction,SMDPad,CuDef*
%ADD41RoundRect,0.150000X0.650000X0.150000X-0.650000X0.150000X-0.650000X-0.150000X0.650000X-0.150000X0*%
G04 #@! TD*
G04 #@! TA.AperFunction,SMDPad,CuDef*
%ADD42RoundRect,0.150000X0.150000X-0.512500X0.150000X0.512500X-0.150000X0.512500X-0.150000X-0.512500X0*%
G04 #@! TD*
G04 #@! TA.AperFunction,SMDPad,CuDef*
%ADD43R,0.800000X0.300000*%
G04 #@! TD*
G04 #@! TA.AperFunction,SMDPad,CuDef*
%ADD44RoundRect,0.140000X-0.021213X0.219203X-0.219203X0.021213X0.021213X-0.219203X0.219203X-0.021213X0*%
G04 #@! TD*
G04 #@! TA.AperFunction,ViaPad*
%ADD45C,0.800000*%
G04 #@! TD*
G04 #@! TA.AperFunction,Conductor*
%ADD46C,0.150000*%
G04 #@! TD*
G04 #@! TA.AperFunction,Conductor*
%ADD47C,0.500000*%
G04 #@! TD*
G04 #@! TA.AperFunction,Conductor*
%ADD48C,0.200000*%
G04 #@! TD*
G04 #@! TA.AperFunction,Conductor*
%ADD49C,0.300000*%
G04 #@! TD*
G04 APERTURE END LIST*
D10*
X181500000Y-102600000D03*
X186500000Y-104700000D03*
X200700000Y-102600000D03*
X205700000Y-104700000D03*
X162200000Y-102600000D03*
X167200000Y-104700000D03*
X181500000Y-83600000D03*
X186500000Y-85700000D03*
X162200000Y-83400000D03*
X167200000Y-85500000D03*
X200700000Y-83400000D03*
X205700000Y-85500000D03*
D11*
X196710000Y-85400000D03*
X195690000Y-85400000D03*
D12*
X182069157Y-91192202D03*
X181786314Y-91475045D03*
X181503472Y-91757887D03*
X181220629Y-92040730D03*
X180937786Y-92323573D03*
X180654944Y-92606415D03*
X180372101Y-92889258D03*
X180089258Y-93172101D03*
X179806415Y-93454944D03*
X179523573Y-93737786D03*
X179240730Y-94020629D03*
X178957887Y-94303472D03*
X178675045Y-94586314D03*
X178392202Y-94869157D03*
D13*
X177207798Y-94869157D03*
X176924955Y-94586314D03*
X176642113Y-94303472D03*
X176359270Y-94020629D03*
X176076427Y-93737786D03*
X175793585Y-93454944D03*
X175510742Y-93172101D03*
X175227899Y-92889258D03*
X174945056Y-92606415D03*
X174662214Y-92323573D03*
X174379371Y-92040730D03*
X174096528Y-91757887D03*
X173813686Y-91475045D03*
X173530843Y-91192202D03*
D12*
X173530843Y-90007798D03*
X173813686Y-89724955D03*
X174096528Y-89442113D03*
X174379371Y-89159270D03*
X174662214Y-88876427D03*
X174945056Y-88593585D03*
X175227899Y-88310742D03*
X175510742Y-88027899D03*
X175793585Y-87745056D03*
X176076427Y-87462214D03*
X176359270Y-87179371D03*
X176642113Y-86896528D03*
X176924955Y-86613686D03*
X177207798Y-86330843D03*
D13*
X178392202Y-86330843D03*
X178675045Y-86613686D03*
X178957887Y-86896528D03*
X179240730Y-87179371D03*
X179523573Y-87462214D03*
X179806415Y-87745056D03*
X180089258Y-88027899D03*
X180372101Y-88310742D03*
X180654944Y-88593585D03*
X180937786Y-88876427D03*
X181220629Y-89159270D03*
X181503472Y-89442113D03*
X181786314Y-89724955D03*
X182069157Y-90007798D03*
D14*
X177799999Y-90599999D03*
D11*
X194510000Y-85400000D03*
X193490000Y-85400000D03*
D15*
X183743585Y-74317444D03*
X183743585Y-75817444D03*
X189193585Y-74317444D03*
D16*
X189193584Y-75817443D03*
D17*
X175600000Y-80800000D03*
X175600000Y-83600000D03*
D18*
X178674999Y-105799999D03*
X170924999Y-105799999D03*
D15*
X164543585Y-74217444D03*
X164543585Y-75717444D03*
X169993585Y-74217444D03*
D16*
X169993584Y-75717443D03*
D19*
X196199999Y-71524999D03*
X196199999Y-79274999D03*
D20*
X196800000Y-82310000D03*
X196800000Y-81290000D03*
D21*
X183720000Y-91400000D03*
X184680000Y-91400000D03*
D22*
X189600000Y-85400000D03*
X189600000Y-84440000D03*
D15*
X202993585Y-74217444D03*
X202993585Y-75717444D03*
X208443585Y-74217444D03*
D16*
X208443584Y-75717443D03*
D23*
X164200000Y-90200000D03*
D24*
X173800000Y-81600000D03*
X173800000Y-82795000D03*
D23*
X199200000Y-96600000D03*
D25*
X181139411Y-95339411D03*
X180460589Y-94660589D03*
D26*
X177176776Y-100378857D03*
X175621141Y-98823222D03*
X176823222Y-97621141D03*
X178378857Y-99176776D03*
D27*
X178739411Y-97539411D03*
X178060589Y-96860589D03*
D28*
X164180000Y-71400000D03*
X165200000Y-71400000D03*
D29*
X158399999Y-77799999D03*
D30*
X158399999Y-80339999D03*
X158399999Y-82879999D03*
X158399999Y-85419999D03*
D31*
X173599999Y-77679999D03*
X174399999Y-77679999D03*
D32*
X175549999Y-77679999D03*
X176549999Y-77679999D03*
X177049999Y-77679999D03*
X178049999Y-77679999D03*
D31*
X179199999Y-77679999D03*
X179999999Y-77679999D03*
X179999999Y-77679999D03*
X179199999Y-77679999D03*
D32*
X178549999Y-77679999D03*
X177549999Y-77679999D03*
X176049999Y-77679999D03*
X175049999Y-77679999D03*
D31*
X174399999Y-77679999D03*
X173599999Y-77679999D03*
D33*
X172479999Y-72924999D03*
D34*
X172479999Y-77104999D03*
D33*
X181119999Y-72924999D03*
D34*
X181119999Y-77104999D03*
D35*
X172760624Y-92160624D03*
X172039376Y-91439376D03*
D36*
X174200000Y-95490000D03*
X174200000Y-96510000D03*
D37*
X167600000Y-71400000D03*
X166455000Y-71400000D03*
D38*
X171680000Y-88000000D03*
X170720000Y-88000000D03*
D39*
X189193585Y-94917444D03*
X189193585Y-93417444D03*
X183743585Y-94917444D03*
D40*
X183743584Y-93417443D03*
D39*
X208418585Y-94867444D03*
X208418585Y-93367444D03*
X202968585Y-94867444D03*
D40*
X202968584Y-93367443D03*
D41*
X196800000Y-86895000D03*
X196800000Y-88165000D03*
X196800000Y-89435000D03*
X196800000Y-90705000D03*
X189600000Y-90705000D03*
X189600000Y-89435000D03*
X189600000Y-88165000D03*
X189600000Y-86895000D03*
D25*
X175460589Y-100660589D03*
X176139411Y-101339411D03*
D42*
X173550000Y-86537500D03*
X171650000Y-86537500D03*
X172600000Y-84262500D03*
D29*
X158399999Y-91324999D03*
D30*
X158399999Y-93864999D03*
X158399999Y-96404999D03*
X158399999Y-98944999D03*
X158399999Y-101484999D03*
D39*
X169993585Y-94917444D03*
X169993585Y-93417444D03*
X164543585Y-94917444D03*
D40*
X164543584Y-93417443D03*
D38*
X170280000Y-84200000D03*
X169320000Y-84200000D03*
D43*
X170749999Y-89049999D03*
X170749999Y-89549999D03*
X170749999Y-90049999D03*
X170749999Y-90549999D03*
X167649999Y-90549999D03*
X167649999Y-90049999D03*
X167649999Y-89549999D03*
X167649999Y-89049999D03*
D44*
X172739411Y-95060589D03*
X172060589Y-95739411D03*
D35*
X178960624Y-84560624D03*
X178239376Y-83839376D03*
D23*
X183200000Y-100400000D03*
D35*
X179760624Y-83960624D03*
X179039376Y-83239376D03*
D45*
X175800000Y-82024500D03*
X177800000Y-90600000D03*
X178600000Y-91400000D03*
X179200000Y-100200000D03*
X180683904Y-85800000D03*
X195000000Y-90600000D03*
X177000000Y-89800000D03*
X181800000Y-96000000D03*
X170000000Y-77000000D03*
X178600000Y-73000000D03*
X179200000Y-79400000D03*
X190800000Y-75800000D03*
X182400000Y-93600000D03*
X168200000Y-83800000D03*
X171400000Y-96400000D03*
X197600000Y-71400000D03*
X175200000Y-73000000D03*
X185800000Y-91400000D03*
X177800000Y-89000000D03*
X176200000Y-90600000D03*
X170000000Y-88000000D03*
X168800000Y-71400000D03*
X178600000Y-89800000D03*
X174400000Y-79200000D03*
X201600000Y-93400000D03*
X179400000Y-98200000D03*
X179400000Y-90600000D03*
X163200000Y-93400000D03*
X208400000Y-77200000D03*
X176800000Y-102000000D03*
X178800000Y-107000000D03*
X175200000Y-97400000D03*
X190600000Y-84400000D03*
X174800000Y-86600000D03*
X169800000Y-90897896D03*
X177800000Y-92200000D03*
X177000000Y-91400000D03*
X203000000Y-73400000D03*
X190600000Y-95000000D03*
X164400000Y-73000000D03*
X169403741Y-95900500D03*
X183800000Y-73200000D03*
X208400000Y-95800000D03*
X200800000Y-95800000D03*
X192600000Y-84400000D03*
X176600000Y-84800000D03*
X168800000Y-89000000D03*
X178000000Y-85200000D03*
X181229643Y-87029643D03*
X172000000Y-94200000D03*
X175000000Y-76200000D03*
X178800000Y-76200000D03*
X176400000Y-79400000D03*
X178200000Y-80400000D03*
X176200000Y-75200000D03*
X177600000Y-75200000D03*
X168000000Y-91597396D03*
X169000000Y-106200000D03*
X171559689Y-92816851D03*
X172800000Y-89200000D03*
X169600000Y-89800000D03*
X169800000Y-92400000D03*
X182400000Y-94800000D03*
X174058900Y-87707983D03*
X182400000Y-92400497D03*
X176000000Y-95200000D03*
X176800000Y-95800000D03*
X182400000Y-98000000D03*
X180000000Y-96000000D03*
D46*
X178000000Y-85200000D02*
X178721984Y-85200000D01*
X178721984Y-85200000D02*
X179309404Y-85787420D01*
X179309404Y-85787420D02*
X179309404Y-86545011D01*
X179309404Y-86545011D02*
X178957887Y-86896528D01*
D47*
X169993585Y-76993585D02*
X170000000Y-77000000D01*
X178378858Y-99378858D02*
X179200000Y-100200000D01*
D46*
X177800000Y-92014213D02*
X177800000Y-92014213D01*
D48*
X181139411Y-95339411D02*
X181800000Y-96000000D01*
D49*
X163217444Y-93417444D02*
X163200000Y-93400000D01*
D48*
X169800000Y-90897896D02*
X170147896Y-90550000D01*
D47*
X175200000Y-97400000D02*
X175200000Y-98402081D01*
X173600000Y-78400000D02*
X173600000Y-77680000D01*
X180000000Y-78600000D02*
X180000000Y-77680000D01*
D49*
X173612500Y-86600000D02*
X173550000Y-86537500D01*
D48*
X178675000Y-105800000D02*
X178675000Y-106875000D01*
D49*
X182582556Y-93417444D02*
X183743585Y-93417444D01*
D48*
X184680000Y-91400000D02*
X185800000Y-91400000D01*
D47*
X169993585Y-75717444D02*
X169993585Y-76993585D01*
D49*
X201632556Y-93367444D02*
X201600000Y-93400000D01*
D48*
X190560000Y-84440000D02*
X190600000Y-84400000D01*
X178739411Y-97539411D02*
X179400000Y-98200000D01*
X172060589Y-95739411D02*
X171400000Y-96400000D01*
D49*
X182400000Y-93600000D02*
X182582556Y-93417444D01*
D48*
X176076427Y-93737786D02*
X177800000Y-92014213D01*
D47*
X178378858Y-99176777D02*
X178378858Y-99378858D01*
D49*
X202968585Y-93367444D02*
X201632556Y-93367444D01*
D48*
X197475000Y-71525000D02*
X197600000Y-71400000D01*
X189600000Y-84440000D02*
X190560000Y-84440000D01*
D47*
X190782556Y-75817444D02*
X190800000Y-75800000D01*
D49*
X174800000Y-86600000D02*
X173612500Y-86600000D01*
X196800000Y-90705000D02*
X195105000Y-90705000D01*
X208443585Y-77156415D02*
X208443585Y-75717444D01*
X195105000Y-90705000D02*
X195000000Y-90600000D01*
D47*
X189193585Y-75817444D02*
X190782556Y-75817444D01*
X174400000Y-79200000D02*
X173600000Y-78400000D01*
D48*
X170147896Y-90550000D02*
X170750000Y-90550000D01*
X176139411Y-101339411D02*
X176800000Y-102000000D01*
D47*
X179200000Y-79400000D02*
X180000000Y-78600000D01*
D48*
X169320000Y-84200000D02*
X168600000Y-84200000D01*
X170720000Y-88000000D02*
X170000000Y-88000000D01*
D47*
X175200000Y-98402081D02*
X175621142Y-98823223D01*
D48*
X196200000Y-71525000D02*
X197475000Y-71525000D01*
D49*
X208400000Y-77200000D02*
X208443585Y-77156415D01*
D48*
X168600000Y-84200000D02*
X168200000Y-83800000D01*
D49*
X164543585Y-93417444D02*
X163217444Y-93417444D01*
X167600000Y-71400000D02*
X168800000Y-71400000D01*
D48*
X178675000Y-106875000D02*
X178800000Y-107000000D01*
X196200000Y-80690000D02*
X196200000Y-79275000D01*
X196800000Y-81290000D02*
X196200000Y-80690000D01*
D49*
X172910000Y-83247500D02*
X173262500Y-83600000D01*
X172910000Y-82510000D02*
X172910000Y-83247500D01*
X162200000Y-73000000D02*
X164400000Y-73000000D01*
X189193585Y-94917444D02*
X190517444Y-94917444D01*
D47*
X173800000Y-83600000D02*
X173262500Y-83600000D01*
X173800000Y-82795000D02*
X173800000Y-83600000D01*
D49*
X162200000Y-77569848D02*
X167030152Y-82400000D01*
X167030152Y-82400000D02*
X172800000Y-82400000D01*
X190517444Y-94917444D02*
X190600000Y-95000000D01*
X162200000Y-74200000D02*
X162200000Y-77569848D01*
X202993585Y-73406415D02*
X203000000Y-73400000D01*
X172800000Y-82400000D02*
X172910000Y-82510000D01*
X208418585Y-95781415D02*
X208400000Y-95800000D01*
X169993585Y-95310656D02*
X169403741Y-95900500D01*
D47*
X164543585Y-73143585D02*
X164400000Y-73000000D01*
X170342500Y-84262500D02*
X170280000Y-84200000D01*
D49*
X162200000Y-73000000D02*
X162200000Y-74200000D01*
X169993585Y-94917444D02*
X169993585Y-95310656D01*
D47*
X173262500Y-83600000D02*
X172600000Y-84262500D01*
D49*
X164180000Y-71400000D02*
X163200000Y-71400000D01*
X202993585Y-74217444D02*
X202993585Y-73406415D01*
D47*
X164543585Y-74217444D02*
X164543585Y-73143585D01*
X175600000Y-83600000D02*
X173800000Y-83600000D01*
D49*
X161969848Y-77800000D02*
X158400000Y-77800000D01*
D47*
X167650000Y-88350000D02*
X167650000Y-88950000D01*
X172600000Y-84262500D02*
X170342500Y-84262500D01*
D49*
X163200000Y-71400000D02*
X162200000Y-72400000D01*
D47*
X170280000Y-85720000D02*
X167650000Y-88350000D01*
X170280000Y-84200000D02*
X170280000Y-85720000D01*
D49*
X162200000Y-72400000D02*
X162200000Y-73000000D01*
X183743585Y-73256415D02*
X183800000Y-73200000D01*
X208418585Y-94867444D02*
X208418585Y-95781415D01*
X183743585Y-74317444D02*
X183743585Y-73256415D01*
X162200000Y-77569848D02*
X161969848Y-77800000D01*
D46*
X174400000Y-90800000D02*
X175800000Y-92200000D01*
X175800000Y-92317157D02*
X175227899Y-92889258D01*
X181717641Y-90840686D02*
X182069157Y-91192202D01*
X175300000Y-89500000D02*
X174400000Y-90400000D01*
X183396955Y-91723045D02*
X183720000Y-91400000D01*
X178138477Y-87261523D02*
X177738477Y-86861523D01*
D48*
X168800000Y-89000000D02*
X168850000Y-89050000D01*
X171650000Y-86537500D02*
X173612411Y-88499911D01*
D46*
X174662214Y-88876427D02*
X174676427Y-88876427D01*
X179172056Y-93386269D02*
X179172056Y-93027944D01*
D48*
X168850000Y-89050000D02*
X170750000Y-89050000D01*
D47*
X200800000Y-95800000D02*
X200000000Y-95800000D01*
D46*
X179538477Y-88578680D02*
X179538477Y-88661523D01*
X178838477Y-87961523D02*
X178138477Y-87261523D01*
D48*
X173056569Y-95060589D02*
X175227899Y-92889258D01*
D46*
X178138477Y-87150254D02*
X178675045Y-86613686D01*
X178138477Y-87261523D02*
X178138477Y-87150254D01*
D48*
X189600000Y-86895000D02*
X189600000Y-85400000D01*
X171680000Y-88000000D02*
X171680000Y-86567500D01*
X172039376Y-91439376D02*
X171800000Y-91200000D01*
X171800000Y-89040000D02*
X171680000Y-88920000D01*
D46*
X182600000Y-91723045D02*
X183396955Y-91723045D01*
X177559314Y-87240686D02*
X175300000Y-89500000D01*
X176600000Y-84800000D02*
X176600000Y-85723045D01*
X179172056Y-93027944D02*
X181359314Y-90840686D01*
X176600000Y-85723045D02*
X177207798Y-86330843D01*
D48*
X174285698Y-88499911D02*
X174662214Y-88876427D01*
D46*
X182069157Y-91192202D02*
X182600000Y-91723045D01*
X180089258Y-88027899D02*
X179538477Y-88578680D01*
D48*
X173612411Y-88499911D02*
X174285698Y-88499911D01*
D46*
X179523573Y-93737786D02*
X179172056Y-93386269D01*
X174676427Y-88876427D02*
X175300000Y-89500000D01*
D48*
X192400000Y-85400000D02*
X189600000Y-85400000D01*
D46*
X177207798Y-86330843D02*
X177559314Y-86682359D01*
X179806415Y-87793585D02*
X179238477Y-88361523D01*
D48*
X192400000Y-85400000D02*
X192400000Y-84600000D01*
D46*
X177559314Y-86682359D02*
X177559314Y-87240686D01*
X175800000Y-92200000D02*
X175800000Y-92317157D01*
D48*
X192400000Y-84600000D02*
X192600000Y-84400000D01*
X180446376Y-94660589D02*
X179523573Y-93737786D01*
D47*
X200000000Y-95800000D02*
X199200000Y-96600000D01*
D46*
X178269157Y-86330843D02*
X177738477Y-86861523D01*
X182069157Y-91192202D02*
X179538477Y-88661523D01*
D48*
X171680000Y-88920000D02*
X171550000Y-89050000D01*
D46*
X178392202Y-86330843D02*
X178269157Y-86330843D01*
X179538477Y-88661523D02*
X179238477Y-88361523D01*
D48*
X172739411Y-95060589D02*
X173056569Y-95060589D01*
X171550000Y-89050000D02*
X170750000Y-89050000D01*
X171680000Y-86567500D02*
X171650000Y-86537500D01*
D46*
X177738477Y-86861523D02*
X177207798Y-86330843D01*
X179806415Y-87745056D02*
X179806415Y-87793585D01*
D48*
X180460589Y-94660589D02*
X180446376Y-94660589D01*
D46*
X179238477Y-88361523D02*
X178838477Y-87961523D01*
D48*
X171680000Y-88000000D02*
X171680000Y-88920000D01*
D46*
X181359314Y-90840686D02*
X181717641Y-90840686D01*
X174400000Y-90400000D02*
X174400000Y-90800000D01*
D48*
X193490000Y-85400000D02*
X192400000Y-85400000D01*
X171800000Y-91200000D02*
X171800000Y-89040000D01*
X173351471Y-94200000D02*
X174945056Y-92606415D01*
D46*
X181229643Y-87453200D02*
X180372101Y-88310742D01*
D48*
X172000000Y-94200000D02*
X173351471Y-94200000D01*
D46*
X181229643Y-87029643D02*
X181229643Y-87453200D01*
D48*
X175200000Y-95997919D02*
X176823223Y-97621142D01*
X178060589Y-96860589D02*
X177583776Y-96860589D01*
X175793585Y-93454944D02*
X175200000Y-94048529D01*
X177583776Y-96860589D02*
X176823223Y-97621142D01*
X175200000Y-94048529D02*
X175200000Y-95997919D01*
X183300000Y-100900000D02*
X177697919Y-100900000D01*
X177176777Y-100378858D02*
X175903985Y-100378858D01*
X175742320Y-100378858D02*
X175460589Y-100660589D01*
X174200000Y-98674873D02*
X174200000Y-96510000D01*
X177697919Y-100900000D02*
X177176777Y-100378858D01*
X175903985Y-100378858D02*
X174200000Y-98674873D01*
X177176777Y-100378858D02*
X175742320Y-100378858D01*
D49*
X166455000Y-71400000D02*
X165200000Y-71400000D01*
D47*
X173800000Y-81600000D02*
X173800000Y-81400000D01*
D48*
X179015000Y-77495000D02*
X179015000Y-76415000D01*
X174600000Y-76600000D02*
X175000000Y-76200000D01*
X174400000Y-77680000D02*
X174600000Y-77480000D01*
X174600000Y-77480000D02*
X174600000Y-76600000D01*
X174400000Y-78210050D02*
X175600000Y-79410050D01*
D47*
X173800000Y-81400000D02*
X174400000Y-80800000D01*
D48*
X179200000Y-77680000D02*
X179015000Y-77495000D01*
D47*
X174400000Y-80800000D02*
X175600000Y-80800000D01*
D48*
X175600000Y-79410050D02*
X175600000Y-80800000D01*
X179015000Y-76415000D02*
X178800000Y-76200000D01*
X174400000Y-77680000D02*
X174400000Y-78210050D01*
X176050000Y-77680000D02*
X176050000Y-78505000D01*
X177050000Y-82650000D02*
X177050000Y-77680000D01*
X176600000Y-78555000D02*
X176945000Y-78555000D01*
X176600000Y-78555000D02*
X176600000Y-79200000D01*
X176945000Y-78555000D02*
X177050000Y-78450000D01*
X176600000Y-79200000D02*
X176400000Y-79400000D01*
X176100000Y-78555000D02*
X176600000Y-78555000D01*
X176050000Y-78505000D02*
X176100000Y-78555000D01*
X178239376Y-83839376D02*
X177050000Y-82650000D01*
X177050000Y-78450000D02*
X177050000Y-77680000D01*
X177550000Y-79600000D02*
X177550000Y-77680000D01*
X176550000Y-77680000D02*
X176550000Y-76855000D01*
X176600000Y-76805000D02*
X177500000Y-76805000D01*
X177550000Y-81750000D02*
X177550000Y-79600000D01*
X177550000Y-79750000D02*
X178200000Y-80400000D01*
X179039376Y-83239376D02*
X177550000Y-81750000D01*
X177550000Y-79600000D02*
X177550000Y-79750000D01*
X177500000Y-76805000D02*
X177550000Y-76855000D01*
X177550000Y-76855000D02*
X177550000Y-77680000D01*
X176550000Y-76855000D02*
X176600000Y-76805000D01*
D46*
X176200000Y-75954595D02*
X175550000Y-76604595D01*
X175550000Y-76604595D02*
X175550000Y-77680000D01*
X176200000Y-75200000D02*
X176200000Y-75954595D01*
X177600000Y-75955000D02*
X178550000Y-76905000D01*
X177600000Y-75200000D02*
X177600000Y-75955000D01*
X178550000Y-76905000D02*
X178550000Y-77680000D01*
D48*
X170925000Y-105800000D02*
X169400000Y-105800000D01*
X170506801Y-92116851D02*
X172716851Y-92116851D01*
X169987346Y-91597396D02*
X170506801Y-92116851D01*
X168000000Y-91597396D02*
X169987346Y-91597396D01*
X172716851Y-92116851D02*
X172760624Y-92160624D01*
X174096528Y-91757887D02*
X173693791Y-92160624D01*
X173693791Y-92160624D02*
X172760624Y-92160624D01*
X169400000Y-105800000D02*
X169000000Y-106200000D01*
X174662214Y-92323573D02*
X173485787Y-93500000D01*
X160745000Y-96600000D02*
X158400000Y-98945000D01*
X171300000Y-93910050D02*
X171300000Y-94489950D01*
X171400000Y-94972259D02*
X169772259Y-96600000D01*
X171400000Y-94589950D02*
X171400000Y-94972259D01*
X173485787Y-93500000D02*
X171710050Y-93500000D01*
X171300000Y-94489950D02*
X171400000Y-94589950D01*
X171710050Y-93500000D02*
X171300000Y-93910050D01*
X169772259Y-96600000D02*
X160745000Y-96600000D01*
X173598203Y-92821898D02*
X174379371Y-92040730D01*
X171564736Y-92821898D02*
X173598203Y-92821898D01*
X171559689Y-92816851D02*
X171564736Y-92821898D01*
D49*
X163317444Y-94917444D02*
X162200000Y-93800000D01*
X164543585Y-94917444D02*
X163317444Y-94917444D01*
X162200000Y-93800000D02*
X162200000Y-92200000D01*
X164850000Y-89550000D02*
X167650000Y-89550000D01*
X162200000Y-92200000D02*
X164850000Y-89550000D01*
D46*
X180009404Y-86976383D02*
X180009404Y-84209404D01*
X179523573Y-87462214D02*
X180009404Y-86976383D01*
X180009404Y-84209404D02*
X179760624Y-83960624D01*
X179659404Y-86760697D02*
X179659404Y-85259404D01*
X179240730Y-87179371D02*
X179659404Y-86760697D01*
X179659404Y-85259404D02*
X178960624Y-84560624D01*
D48*
X174200000Y-95490000D02*
X174200000Y-94482843D01*
X174200000Y-94482843D02*
X175510742Y-93172101D01*
X195690000Y-85400000D02*
X194510000Y-85400000D01*
X188234315Y-92200000D02*
X197965686Y-92200000D01*
X182069157Y-90007798D02*
X182676955Y-89400000D01*
X196710000Y-82400000D02*
X196800000Y-82310000D01*
X197895000Y-86895000D02*
X196800000Y-86895000D01*
X199000000Y-91165686D02*
X199000000Y-88000000D01*
X196710000Y-85400000D02*
X196710000Y-82400000D01*
X196800000Y-85490000D02*
X196710000Y-85400000D01*
X197965686Y-92200000D02*
X199000000Y-91165686D01*
X182676955Y-89400000D02*
X185434315Y-89400000D01*
X196800000Y-86895000D02*
X196800000Y-85490000D01*
X185434315Y-89400000D02*
X188234315Y-92200000D01*
X199000000Y-88000000D02*
X197895000Y-86895000D01*
X187765000Y-88165000D02*
X187000000Y-87400000D01*
X189600000Y-88165000D02*
X187765000Y-88165000D01*
X187000000Y-87400000D02*
X181848529Y-87400000D01*
X181848529Y-87400000D02*
X180524264Y-88724265D01*
X188435000Y-89435000D02*
X189600000Y-89435000D01*
X182014213Y-87800000D02*
X186800000Y-87800000D01*
X180937786Y-88876427D02*
X182014213Y-87800000D01*
X186800000Y-87800000D02*
X188435000Y-89435000D01*
X181220629Y-89159270D02*
X182179899Y-88200000D01*
X182179899Y-88200000D02*
X186300000Y-88200000D01*
X186300000Y-88200000D02*
X188805000Y-90705000D01*
X188805000Y-90705000D02*
X189600000Y-90705000D01*
X182345585Y-88600000D02*
X185834314Y-88600000D01*
X185834314Y-88600000D02*
X188539314Y-91305000D01*
X188539314Y-91305000D02*
X191495000Y-91305000D01*
X193365000Y-89435000D02*
X196800000Y-89435000D01*
X191495000Y-91305000D02*
X193365000Y-89435000D01*
X181503472Y-89442113D02*
X182345585Y-88600000D01*
X197800000Y-91800000D02*
X198400000Y-91200000D01*
X181786314Y-89724955D02*
X182511269Y-89000000D01*
X185600000Y-89000000D02*
X188400000Y-91800000D01*
X198400000Y-89598604D02*
X196966396Y-88165000D01*
X182511269Y-89000000D02*
X185600000Y-89000000D01*
X198400000Y-91200000D02*
X198400000Y-89598604D01*
X188400000Y-91800000D02*
X197800000Y-91800000D01*
X196966396Y-88165000D02*
X196800000Y-88165000D01*
X169850000Y-89550000D02*
X169600000Y-89800000D01*
X173530843Y-90007798D02*
X172800000Y-89276955D01*
X172800000Y-89276955D02*
X172800000Y-89200000D01*
X170750000Y-89550000D02*
X169850000Y-89550000D01*
X189193585Y-93417444D02*
X189211029Y-93400000D01*
X189211029Y-93400000D02*
X195000000Y-93400000D01*
X195000000Y-93400000D02*
X196467444Y-94867444D01*
X196467444Y-94867444D02*
X202968585Y-94867444D01*
X169993585Y-93417444D02*
X169993585Y-92593585D01*
X183743585Y-94917444D02*
X182517444Y-94917444D01*
X169993585Y-92593585D02*
X169800000Y-92400000D01*
X182517444Y-94917444D02*
X182400000Y-94800000D01*
X189276141Y-74400000D02*
X189193585Y-74317444D01*
X196717444Y-75717444D02*
X195400000Y-74400000D01*
X202993585Y-75717444D02*
X196717444Y-75717444D01*
X195400000Y-74400000D02*
X189276141Y-74400000D01*
X183743585Y-75817444D02*
X182117444Y-75817444D01*
X182117444Y-75817444D02*
X180500000Y-74200000D01*
X180500000Y-74200000D02*
X170011029Y-74200000D01*
X170011029Y-74200000D02*
X169993585Y-74217444D01*
X209600000Y-75373859D02*
X208443585Y-74217444D01*
X208418585Y-93367444D02*
X209600000Y-92186029D01*
X209600000Y-92186029D02*
X209600000Y-75373859D01*
X175227899Y-88310742D02*
X174625140Y-87707983D01*
X174625140Y-87707983D02*
X174058900Y-87707983D01*
X181503472Y-91757887D02*
X182146082Y-92400497D01*
X182146082Y-92400497D02*
X182400000Y-92400497D01*
X176359270Y-94020629D02*
X175982754Y-94397147D01*
X175982754Y-94397147D02*
X175982754Y-95182754D01*
X175982754Y-95182754D02*
X176000000Y-95200000D01*
X176700000Y-95376953D02*
X176700000Y-95400000D01*
X176700000Y-95400000D02*
X176700000Y-95700000D01*
X176700000Y-95700000D02*
X176800000Y-95800000D01*
X177207798Y-94869157D02*
X176700000Y-95376953D01*
X181800000Y-97400000D02*
X182400000Y-98000000D01*
X178861523Y-95338477D02*
X178861523Y-95861523D01*
X178392202Y-94869157D02*
X178861523Y-95338477D01*
X178861523Y-95861523D02*
X180400000Y-97400000D01*
X180400000Y-97400000D02*
X181800000Y-97400000D01*
X178675045Y-94586314D02*
X180000000Y-95911269D01*
X180000000Y-95911269D02*
X180000000Y-96000000D01*
M02*
