M48
; DRILL file {KiCad (7.0.0)} date Sat Sep  9 12:16:25 2023
; FORMAT={-:-/ absolute / metric / decimal}
; #@! TF.CreationDate,2023-09-09T12:16:25-05:00
; #@! TF.GenerationSoftware,Kicad,Pcbnew,(7.0.0)
; #@! TF.FileFunction,Plated,1,4,PTH
FMAT,2
METRIC
; #@! TA.AperFunction,Plated,PTH,ViaDrill
T1C0.400
; #@! TA.AperFunction,Plated,PTH,ComponentDrill
T2C0.600
; #@! TA.AperFunction,Plated,PTH,ComponentDrill
T3C1.000
; #@! TA.AperFunction,Plated,PTH,ComponentDrill
T4C1.200
%
G90
G05
T1
X163.2Y-93.4
X164.4Y-73.0
X168.0Y-91.597
X168.2Y-83.8
X168.8Y-71.4
X168.8Y-89.0
X169.0Y-106.2
X169.404Y-95.9
X169.6Y-89.8
X169.8Y-90.898
X169.8Y-92.4
X170.0Y-77.0
X170.0Y-88.0
X171.4Y-96.4
X171.56Y-92.817
X172.0Y-94.2
X172.8Y-89.2
X174.059Y-87.708
X174.4Y-79.2
X174.8Y-86.6
X175.0Y-76.2
X175.2Y-73.0
X175.2Y-97.4
X175.8Y-82.025
X176.0Y-95.2
X176.2Y-75.2
X176.2Y-90.6
X176.4Y-79.4
X176.6Y-84.8
X176.8Y-95.8
X176.8Y-102.0
X177.0Y-89.8
X177.0Y-91.4
X177.6Y-75.2
X177.8Y-89.0
X177.8Y-90.6
X177.8Y-92.2
X178.0Y-85.2
X178.2Y-80.4
X178.6Y-73.0
X178.6Y-89.8
X178.6Y-91.4
X178.8Y-76.2
X178.8Y-107.0
X179.2Y-79.4
X179.2Y-100.2
X179.4Y-90.6
X179.4Y-98.2
X180.0Y-96.0
X180.684Y-85.8
X181.23Y-87.03
X181.8Y-96.0
X182.4Y-92.4
X182.4Y-93.6
X182.4Y-94.8
X182.4Y-98.0
X183.8Y-73.2
X185.8Y-91.4
X190.6Y-84.4
X190.6Y-95.0
X190.8Y-75.8
X192.6Y-84.4
X195.0Y-90.6
X197.6Y-71.4
X200.8Y-95.8
X201.6Y-93.4
X203.0Y-73.4
X208.4Y-77.2
X208.4Y-95.8
T3
X158.4Y-77.8
X158.4Y-80.34
X158.4Y-82.88
X158.4Y-85.42
X158.4Y-91.325
X158.4Y-93.865
X158.4Y-96.405
X158.4Y-98.945
X158.4Y-101.485
T4
X162.2Y-83.4
X162.2Y-102.6
X167.2Y-85.5
X167.2Y-104.7
X181.5Y-83.6
X181.5Y-102.6
X186.5Y-85.7
X186.5Y-104.7
X200.7Y-83.4
X200.7Y-102.6
X205.7Y-85.5
X205.7Y-104.7
T2
X172.48Y-72.525G85X172.48Y-73.325
G05
X172.48Y-76.555G85X172.48Y-77.655
G05
X181.12Y-72.525G85X181.12Y-73.325
G05
X181.12Y-76.555G85X181.12Y-77.655
G05
T0
M30
