G04 #@! TF.GenerationSoftware,KiCad,Pcbnew,(7.0.0)*
G04 #@! TF.CreationDate,2023-09-09T12:15:39-05:00*
G04 #@! TF.ProjectId,6_key_macro_pad_V1,365f6b65-795f-46d6-9163-726f5f706164,rev?*
G04 #@! TF.SameCoordinates,Original*
G04 #@! TF.FileFunction,Legend,Bot*
G04 #@! TF.FilePolarity,Positive*
%FSLAX46Y46*%
G04 Gerber Fmt 4.6, Leading zero omitted, Abs format (unit mm)*
G04 Created by KiCad (PCBNEW (7.0.0)) date 2023-09-09 12:15:39*
%MOMM*%
%LPD*%
G01*
G04 APERTURE LIST*
G04 Aperture macros list*
%AMRoundRect*
0 Rectangle with rounded corners*
0 $1 Rounding radius*
0 $2 $3 $4 $5 $6 $7 $8 $9 X,Y pos of 4 corners*
0 Add a 4 corners polygon primitive as box body*
4,1,4,$2,$3,$4,$5,$6,$7,$8,$9,$2,$3,0*
0 Add four circle primitives for the rounded corners*
1,1,$1+$1,$2,$3*
1,1,$1+$1,$4,$5*
1,1,$1+$1,$6,$7*
1,1,$1+$1,$8,$9*
0 Add four rect primitives between the rounded corners*
20,1,$1+$1,$2,$3,$4,$5,0*
20,1,$1+$1,$4,$5,$6,$7,0*
20,1,$1+$1,$6,$7,$8,$9,0*
20,1,$1+$1,$8,$9,$2,$3,0*%
%AMRotRect*
0 Rectangle, with rotation*
0 The origin of the aperture is its center*
0 $1 length*
0 $2 width*
0 $3 Rotation angle, in degrees counterclockwise*
0 Add horizontal line*
21,1,$1,$2,0,0,$3*%
%AMFreePoly0*
4,1,18,-0.410000,0.593000,-0.403758,0.624380,-0.385983,0.650983,-0.359380,0.668758,-0.328000,0.675000,0.328000,0.675000,0.359380,0.668758,0.385983,0.650983,0.403758,0.624380,0.410000,0.593000,0.410000,-0.593000,0.403758,-0.624380,0.385983,-0.650983,0.359380,-0.668758,0.328000,-0.675000,0.000000,-0.675000,-0.410000,-0.265000,-0.410000,0.593000,-0.410000,0.593000,$1*%
G04 Aperture macros list end*
%ADD10C,0.150000*%
%ADD11C,0.120000*%
%ADD12C,0.100000*%
%ADD13C,1.700000*%
%ADD14C,3.400000*%
%ADD15C,2.000000*%
%ADD16RoundRect,0.135000X0.135000X0.185000X-0.135000X0.185000X-0.135000X-0.185000X0.135000X-0.185000X0*%
%ADD17RoundRect,0.050000X0.309359X-0.238649X-0.238649X0.309359X-0.309359X0.238649X0.238649X-0.309359X0*%
%ADD18RoundRect,0.050000X0.309359X0.238649X0.238649X0.309359X-0.309359X-0.238649X-0.238649X-0.309359X0*%
%ADD19RotRect,3.200000X3.200000X135.000000*%
%ADD20RoundRect,0.082000X0.593000X-0.328000X0.593000X0.328000X-0.593000X0.328000X-0.593000X-0.328000X0*%
%ADD21FreePoly0,90.000000*%
%ADD22RoundRect,0.250000X-0.625000X0.375000X-0.625000X-0.375000X0.625000X-0.375000X0.625000X0.375000X0*%
%ADD23C,2.500000*%
%ADD24R,1.250000X1.000000*%
%ADD25R,1.000000X1.250000*%
%ADD26RoundRect,0.135000X0.185000X-0.135000X0.185000X0.135000X-0.185000X0.135000X-0.185000X-0.135000X0*%
%ADD27RoundRect,0.140000X-0.140000X-0.170000X0.140000X-0.170000X0.140000X0.170000X-0.140000X0.170000X0*%
%ADD28RoundRect,0.140000X0.170000X-0.140000X0.170000X0.140000X-0.170000X0.140000X-0.170000X-0.140000X0*%
%ADD29C,1.500000*%
%ADD30RoundRect,0.160000X-0.160000X0.197500X-0.160000X-0.197500X0.160000X-0.197500X0.160000X0.197500X0*%
%ADD31RoundRect,0.140000X-0.219203X-0.021213X-0.021213X-0.219203X0.219203X0.021213X0.021213X0.219203X0*%
%ADD32RotRect,1.400000X1.200000X135.000000*%
%ADD33RoundRect,0.140000X0.219203X0.021213X0.021213X0.219203X-0.219203X-0.021213X-0.021213X-0.219203X0*%
%ADD34RoundRect,0.135000X-0.135000X-0.185000X0.135000X-0.185000X0.135000X0.185000X-0.135000X0.185000X0*%
%ADD35R,1.700000X1.700000*%
%ADD36O,1.700000X1.700000*%
%ADD37C,0.650000*%
%ADD38R,0.600000X1.150000*%
%ADD39R,0.300000X1.150000*%
%ADD40O,1.000000X1.800000*%
%ADD41O,1.000000X2.100000*%
%ADD42RoundRect,0.135000X0.226274X0.035355X0.035355X0.226274X-0.226274X-0.035355X-0.035355X-0.226274X0*%
%ADD43RoundRect,0.135000X-0.185000X0.135000X-0.185000X-0.135000X0.185000X-0.135000X0.185000X0.135000X0*%
%ADD44RoundRect,0.160000X0.222500X0.160000X-0.222500X0.160000X-0.222500X-0.160000X0.222500X-0.160000X0*%
%ADD45RoundRect,0.140000X0.140000X0.170000X-0.140000X0.170000X-0.140000X-0.170000X0.140000X-0.170000X0*%
%ADD46RoundRect,0.082000X-0.593000X0.328000X-0.593000X-0.328000X0.593000X-0.328000X0.593000X0.328000X0*%
%ADD47FreePoly0,270.000000*%
%ADD48RoundRect,0.150000X0.650000X0.150000X-0.650000X0.150000X-0.650000X-0.150000X0.650000X-0.150000X0*%
%ADD49RoundRect,0.150000X0.150000X-0.512500X0.150000X0.512500X-0.150000X0.512500X-0.150000X-0.512500X0*%
%ADD50R,0.800000X0.300000*%
%ADD51RoundRect,0.140000X-0.021213X0.219203X-0.219203X0.021213X0.021213X-0.219203X0.219203X-0.021213X0*%
G04 APERTURE END LIST*
D10*
X159982380Y-77642857D02*
X159982380Y-77214285D01*
X159982380Y-77214285D02*
X160458571Y-77171428D01*
X160458571Y-77171428D02*
X160410952Y-77214285D01*
X160410952Y-77214285D02*
X160363333Y-77300000D01*
X160363333Y-77300000D02*
X160363333Y-77514285D01*
X160363333Y-77514285D02*
X160410952Y-77600000D01*
X160410952Y-77600000D02*
X160458571Y-77642857D01*
X160458571Y-77642857D02*
X160553809Y-77685714D01*
X160553809Y-77685714D02*
X160791904Y-77685714D01*
X160791904Y-77685714D02*
X160887142Y-77642857D01*
X160887142Y-77642857D02*
X160934761Y-77600000D01*
X160934761Y-77600000D02*
X160982380Y-77514285D01*
X160982380Y-77514285D02*
X160982380Y-77300000D01*
X160982380Y-77300000D02*
X160934761Y-77214285D01*
X160934761Y-77214285D02*
X160887142Y-77171428D01*
X159982380Y-77942857D02*
X160982380Y-78242857D01*
X160982380Y-78242857D02*
X159982380Y-78542857D01*
X160982380Y-79922857D02*
X159982380Y-79922857D01*
X159982380Y-79922857D02*
X159982380Y-80137143D01*
X159982380Y-80137143D02*
X160030000Y-80265714D01*
X160030000Y-80265714D02*
X160125238Y-80351429D01*
X160125238Y-80351429D02*
X160220476Y-80394286D01*
X160220476Y-80394286D02*
X160410952Y-80437143D01*
X160410952Y-80437143D02*
X160553809Y-80437143D01*
X160553809Y-80437143D02*
X160744285Y-80394286D01*
X160744285Y-80394286D02*
X160839523Y-80351429D01*
X160839523Y-80351429D02*
X160934761Y-80265714D01*
X160934761Y-80265714D02*
X160982380Y-80137143D01*
X160982380Y-80137143D02*
X160982380Y-79922857D01*
X160601428Y-80822857D02*
X160601428Y-81508572D01*
X160982380Y-82477143D02*
X159982380Y-82477143D01*
X159982380Y-82477143D02*
X159982380Y-82691429D01*
X159982380Y-82691429D02*
X160030000Y-82820000D01*
X160030000Y-82820000D02*
X160125238Y-82905715D01*
X160125238Y-82905715D02*
X160220476Y-82948572D01*
X160220476Y-82948572D02*
X160410952Y-82991429D01*
X160410952Y-82991429D02*
X160553809Y-82991429D01*
X160553809Y-82991429D02*
X160744285Y-82948572D01*
X160744285Y-82948572D02*
X160839523Y-82905715D01*
X160839523Y-82905715D02*
X160934761Y-82820000D01*
X160934761Y-82820000D02*
X160982380Y-82691429D01*
X160982380Y-82691429D02*
X160982380Y-82477143D01*
X160601428Y-83377143D02*
X160601428Y-84062858D01*
X160982380Y-83720000D02*
X160220476Y-83720000D01*
X160030000Y-85502858D02*
X159982380Y-85417144D01*
X159982380Y-85417144D02*
X159982380Y-85288572D01*
X159982380Y-85288572D02*
X160030000Y-85160001D01*
X160030000Y-85160001D02*
X160125238Y-85074286D01*
X160125238Y-85074286D02*
X160220476Y-85031429D01*
X160220476Y-85031429D02*
X160410952Y-84988572D01*
X160410952Y-84988572D02*
X160553809Y-84988572D01*
X160553809Y-84988572D02*
X160744285Y-85031429D01*
X160744285Y-85031429D02*
X160839523Y-85074286D01*
X160839523Y-85074286D02*
X160934761Y-85160001D01*
X160934761Y-85160001D02*
X160982380Y-85288572D01*
X160982380Y-85288572D02*
X160982380Y-85374286D01*
X160982380Y-85374286D02*
X160934761Y-85502858D01*
X160934761Y-85502858D02*
X160887142Y-85545715D01*
X160887142Y-85545715D02*
X160553809Y-85545715D01*
X160553809Y-85545715D02*
X160553809Y-85374286D01*
X160982380Y-85931429D02*
X159982380Y-85931429D01*
X159982380Y-85931429D02*
X160982380Y-86445715D01*
X160982380Y-86445715D02*
X159982380Y-86445715D01*
X160982380Y-86874286D02*
X159982380Y-86874286D01*
X159982380Y-86874286D02*
X159982380Y-87088572D01*
X159982380Y-87088572D02*
X160030000Y-87217143D01*
X160030000Y-87217143D02*
X160125238Y-87302858D01*
X160125238Y-87302858D02*
X160220476Y-87345715D01*
X160220476Y-87345715D02*
X160410952Y-87388572D01*
X160410952Y-87388572D02*
X160553809Y-87388572D01*
X160553809Y-87388572D02*
X160744285Y-87345715D01*
X160744285Y-87345715D02*
X160839523Y-87302858D01*
X160839523Y-87302858D02*
X160934761Y-87217143D01*
X160934761Y-87217143D02*
X160982380Y-87088572D01*
X160982380Y-87088572D02*
X160982380Y-86874286D01*
X159982380Y-88928571D02*
X159982380Y-89485714D01*
X159982380Y-89485714D02*
X160363333Y-89185714D01*
X160363333Y-89185714D02*
X160363333Y-89314285D01*
X160363333Y-89314285D02*
X160410952Y-89400000D01*
X160410952Y-89400000D02*
X160458571Y-89442857D01*
X160458571Y-89442857D02*
X160553809Y-89485714D01*
X160553809Y-89485714D02*
X160791904Y-89485714D01*
X160791904Y-89485714D02*
X160887142Y-89442857D01*
X160887142Y-89442857D02*
X160934761Y-89400000D01*
X160934761Y-89400000D02*
X160982380Y-89314285D01*
X160982380Y-89314285D02*
X160982380Y-89057142D01*
X160982380Y-89057142D02*
X160934761Y-88971428D01*
X160934761Y-88971428D02*
X160887142Y-88928571D01*
X159982380Y-89742857D02*
X160982380Y-90042857D01*
X160982380Y-90042857D02*
X159982380Y-90342857D01*
X159982380Y-90557143D02*
X159982380Y-91114286D01*
X159982380Y-91114286D02*
X160363333Y-90814286D01*
X160363333Y-90814286D02*
X160363333Y-90942857D01*
X160363333Y-90942857D02*
X160410952Y-91028572D01*
X160410952Y-91028572D02*
X160458571Y-91071429D01*
X160458571Y-91071429D02*
X160553809Y-91114286D01*
X160553809Y-91114286D02*
X160791904Y-91114286D01*
X160791904Y-91114286D02*
X160887142Y-91071429D01*
X160887142Y-91071429D02*
X160934761Y-91028572D01*
X160934761Y-91028572D02*
X160982380Y-90942857D01*
X160982380Y-90942857D02*
X160982380Y-90685714D01*
X160982380Y-90685714D02*
X160934761Y-90600000D01*
X160934761Y-90600000D02*
X160887142Y-90557143D01*
X160982380Y-92554286D02*
X160506190Y-92254286D01*
X160982380Y-92040000D02*
X159982380Y-92040000D01*
X159982380Y-92040000D02*
X159982380Y-92382857D01*
X159982380Y-92382857D02*
X160030000Y-92468572D01*
X160030000Y-92468572D02*
X160077619Y-92511429D01*
X160077619Y-92511429D02*
X160172857Y-92554286D01*
X160172857Y-92554286D02*
X160315714Y-92554286D01*
X160315714Y-92554286D02*
X160410952Y-92511429D01*
X160410952Y-92511429D02*
X160458571Y-92468572D01*
X160458571Y-92468572D02*
X160506190Y-92382857D01*
X160506190Y-92382857D02*
X160506190Y-92040000D01*
X160934761Y-92897143D02*
X160982380Y-93025715D01*
X160982380Y-93025715D02*
X160982380Y-93240000D01*
X160982380Y-93240000D02*
X160934761Y-93325715D01*
X160934761Y-93325715D02*
X160887142Y-93368572D01*
X160887142Y-93368572D02*
X160791904Y-93411429D01*
X160791904Y-93411429D02*
X160696666Y-93411429D01*
X160696666Y-93411429D02*
X160601428Y-93368572D01*
X160601428Y-93368572D02*
X160553809Y-93325715D01*
X160553809Y-93325715D02*
X160506190Y-93240000D01*
X160506190Y-93240000D02*
X160458571Y-93068572D01*
X160458571Y-93068572D02*
X160410952Y-92982857D01*
X160410952Y-92982857D02*
X160363333Y-92940000D01*
X160363333Y-92940000D02*
X160268095Y-92897143D01*
X160268095Y-92897143D02*
X160172857Y-92897143D01*
X160172857Y-92897143D02*
X160077619Y-92940000D01*
X160077619Y-92940000D02*
X160030000Y-92982857D01*
X160030000Y-92982857D02*
X159982380Y-93068572D01*
X159982380Y-93068572D02*
X159982380Y-93282857D01*
X159982380Y-93282857D02*
X160030000Y-93411429D01*
X159982380Y-93668572D02*
X159982380Y-94182858D01*
X160982380Y-93925715D02*
X159982380Y-93925715D01*
X160030000Y-95494286D02*
X159982380Y-95408572D01*
X159982380Y-95408572D02*
X159982380Y-95280000D01*
X159982380Y-95280000D02*
X160030000Y-95151429D01*
X160030000Y-95151429D02*
X160125238Y-95065714D01*
X160125238Y-95065714D02*
X160220476Y-95022857D01*
X160220476Y-95022857D02*
X160410952Y-94980000D01*
X160410952Y-94980000D02*
X160553809Y-94980000D01*
X160553809Y-94980000D02*
X160744285Y-95022857D01*
X160744285Y-95022857D02*
X160839523Y-95065714D01*
X160839523Y-95065714D02*
X160934761Y-95151429D01*
X160934761Y-95151429D02*
X160982380Y-95280000D01*
X160982380Y-95280000D02*
X160982380Y-95365714D01*
X160982380Y-95365714D02*
X160934761Y-95494286D01*
X160934761Y-95494286D02*
X160887142Y-95537143D01*
X160887142Y-95537143D02*
X160553809Y-95537143D01*
X160553809Y-95537143D02*
X160553809Y-95365714D01*
X160982380Y-95922857D02*
X159982380Y-95922857D01*
X159982380Y-95922857D02*
X160982380Y-96437143D01*
X160982380Y-96437143D02*
X159982380Y-96437143D01*
X160982380Y-96865714D02*
X159982380Y-96865714D01*
X159982380Y-96865714D02*
X159982380Y-97080000D01*
X159982380Y-97080000D02*
X160030000Y-97208571D01*
X160030000Y-97208571D02*
X160125238Y-97294286D01*
X160125238Y-97294286D02*
X160220476Y-97337143D01*
X160220476Y-97337143D02*
X160410952Y-97380000D01*
X160410952Y-97380000D02*
X160553809Y-97380000D01*
X160553809Y-97380000D02*
X160744285Y-97337143D01*
X160744285Y-97337143D02*
X160839523Y-97294286D01*
X160839523Y-97294286D02*
X160934761Y-97208571D01*
X160934761Y-97208571D02*
X160982380Y-97080000D01*
X160982380Y-97080000D02*
X160982380Y-96865714D01*
X160934761Y-98262857D02*
X160982380Y-98391429D01*
X160982380Y-98391429D02*
X160982380Y-98605714D01*
X160982380Y-98605714D02*
X160934761Y-98691429D01*
X160934761Y-98691429D02*
X160887142Y-98734286D01*
X160887142Y-98734286D02*
X160791904Y-98777143D01*
X160791904Y-98777143D02*
X160696666Y-98777143D01*
X160696666Y-98777143D02*
X160601428Y-98734286D01*
X160601428Y-98734286D02*
X160553809Y-98691429D01*
X160553809Y-98691429D02*
X160506190Y-98605714D01*
X160506190Y-98605714D02*
X160458571Y-98434286D01*
X160458571Y-98434286D02*
X160410952Y-98348571D01*
X160410952Y-98348571D02*
X160363333Y-98305714D01*
X160363333Y-98305714D02*
X160268095Y-98262857D01*
X160268095Y-98262857D02*
X160172857Y-98262857D01*
X160172857Y-98262857D02*
X160077619Y-98305714D01*
X160077619Y-98305714D02*
X160030000Y-98348571D01*
X160030000Y-98348571D02*
X159982380Y-98434286D01*
X159982380Y-98434286D02*
X159982380Y-98648571D01*
X159982380Y-98648571D02*
X160030000Y-98777143D01*
X159982380Y-99077143D02*
X160982380Y-99291429D01*
X160982380Y-99291429D02*
X160268095Y-99462857D01*
X160268095Y-99462857D02*
X160982380Y-99634286D01*
X160982380Y-99634286D02*
X159982380Y-99848572D01*
X160887142Y-100705714D02*
X160934761Y-100662857D01*
X160934761Y-100662857D02*
X160982380Y-100534285D01*
X160982380Y-100534285D02*
X160982380Y-100448571D01*
X160982380Y-100448571D02*
X160934761Y-100320000D01*
X160934761Y-100320000D02*
X160839523Y-100234285D01*
X160839523Y-100234285D02*
X160744285Y-100191428D01*
X160744285Y-100191428D02*
X160553809Y-100148571D01*
X160553809Y-100148571D02*
X160410952Y-100148571D01*
X160410952Y-100148571D02*
X160220476Y-100191428D01*
X160220476Y-100191428D02*
X160125238Y-100234285D01*
X160125238Y-100234285D02*
X160030000Y-100320000D01*
X160030000Y-100320000D02*
X159982380Y-100448571D01*
X159982380Y-100448571D02*
X159982380Y-100534285D01*
X159982380Y-100534285D02*
X160030000Y-100662857D01*
X160030000Y-100662857D02*
X160077619Y-100705714D01*
X160934761Y-101588571D02*
X160982380Y-101717143D01*
X160982380Y-101717143D02*
X160982380Y-101931428D01*
X160982380Y-101931428D02*
X160934761Y-102017143D01*
X160934761Y-102017143D02*
X160887142Y-102060000D01*
X160887142Y-102060000D02*
X160791904Y-102102857D01*
X160791904Y-102102857D02*
X160696666Y-102102857D01*
X160696666Y-102102857D02*
X160601428Y-102060000D01*
X160601428Y-102060000D02*
X160553809Y-102017143D01*
X160553809Y-102017143D02*
X160506190Y-101931428D01*
X160506190Y-101931428D02*
X160458571Y-101760000D01*
X160458571Y-101760000D02*
X160410952Y-101674285D01*
X160410952Y-101674285D02*
X160363333Y-101631428D01*
X160363333Y-101631428D02*
X160268095Y-101588571D01*
X160268095Y-101588571D02*
X160172857Y-101588571D01*
X160172857Y-101588571D02*
X160077619Y-101631428D01*
X160077619Y-101631428D02*
X160030000Y-101674285D01*
X160030000Y-101674285D02*
X159982380Y-101760000D01*
X159982380Y-101760000D02*
X159982380Y-101974285D01*
X159982380Y-101974285D02*
X160030000Y-102102857D01*
X159982380Y-102402857D02*
X160982380Y-102617143D01*
X160982380Y-102617143D02*
X160268095Y-102788571D01*
X160268095Y-102788571D02*
X160982380Y-102960000D01*
X160982380Y-102960000D02*
X159982380Y-103174286D01*
X160982380Y-103517142D02*
X159982380Y-103517142D01*
X159982380Y-103517142D02*
X159982380Y-103731428D01*
X159982380Y-103731428D02*
X160030000Y-103859999D01*
X160030000Y-103859999D02*
X160125238Y-103945714D01*
X160125238Y-103945714D02*
X160220476Y-103988571D01*
X160220476Y-103988571D02*
X160410952Y-104031428D01*
X160410952Y-104031428D02*
X160553809Y-104031428D01*
X160553809Y-104031428D02*
X160744285Y-103988571D01*
X160744285Y-103988571D02*
X160839523Y-103945714D01*
X160839523Y-103945714D02*
X160934761Y-103859999D01*
X160934761Y-103859999D02*
X160982380Y-103731428D01*
X160982380Y-103731428D02*
X160982380Y-103517142D01*
X210561904Y-107982380D02*
X210561904Y-106982380D01*
X210133333Y-107934761D02*
X210038095Y-107982380D01*
X210038095Y-107982380D02*
X209847619Y-107982380D01*
X209847619Y-107982380D02*
X209752381Y-107934761D01*
X209752381Y-107934761D02*
X209704762Y-107839523D01*
X209704762Y-107839523D02*
X209704762Y-107791904D01*
X209704762Y-107791904D02*
X209752381Y-107696666D01*
X209752381Y-107696666D02*
X209847619Y-107649047D01*
X209847619Y-107649047D02*
X209990476Y-107649047D01*
X209990476Y-107649047D02*
X210085714Y-107601428D01*
X210085714Y-107601428D02*
X210133333Y-107506190D01*
X210133333Y-107506190D02*
X210133333Y-107458571D01*
X210133333Y-107458571D02*
X210085714Y-107363333D01*
X210085714Y-107363333D02*
X209990476Y-107315714D01*
X209990476Y-107315714D02*
X209847619Y-107315714D01*
X209847619Y-107315714D02*
X209752381Y-107363333D01*
X209276190Y-107982380D02*
X209276190Y-106982380D01*
X208847619Y-107982380D02*
X208847619Y-107458571D01*
X208847619Y-107458571D02*
X208895238Y-107363333D01*
X208895238Y-107363333D02*
X208990476Y-107315714D01*
X208990476Y-107315714D02*
X209133333Y-107315714D01*
X209133333Y-107315714D02*
X209228571Y-107363333D01*
X209228571Y-107363333D02*
X209276190Y-107410952D01*
X207942857Y-107982380D02*
X207942857Y-107458571D01*
X207942857Y-107458571D02*
X207990476Y-107363333D01*
X207990476Y-107363333D02*
X208085714Y-107315714D01*
X208085714Y-107315714D02*
X208276190Y-107315714D01*
X208276190Y-107315714D02*
X208371428Y-107363333D01*
X207942857Y-107934761D02*
X208038095Y-107982380D01*
X208038095Y-107982380D02*
X208276190Y-107982380D01*
X208276190Y-107982380D02*
X208371428Y-107934761D01*
X208371428Y-107934761D02*
X208419047Y-107839523D01*
X208419047Y-107839523D02*
X208419047Y-107744285D01*
X208419047Y-107744285D02*
X208371428Y-107649047D01*
X208371428Y-107649047D02*
X208276190Y-107601428D01*
X208276190Y-107601428D02*
X208038095Y-107601428D01*
X208038095Y-107601428D02*
X207942857Y-107553809D01*
X207038095Y-107982380D02*
X207038095Y-107458571D01*
X207038095Y-107458571D02*
X207085714Y-107363333D01*
X207085714Y-107363333D02*
X207180952Y-107315714D01*
X207180952Y-107315714D02*
X207371428Y-107315714D01*
X207371428Y-107315714D02*
X207466666Y-107363333D01*
X207038095Y-107934761D02*
X207133333Y-107982380D01*
X207133333Y-107982380D02*
X207371428Y-107982380D01*
X207371428Y-107982380D02*
X207466666Y-107934761D01*
X207466666Y-107934761D02*
X207514285Y-107839523D01*
X207514285Y-107839523D02*
X207514285Y-107744285D01*
X207514285Y-107744285D02*
X207466666Y-107649047D01*
X207466666Y-107649047D02*
X207371428Y-107601428D01*
X207371428Y-107601428D02*
X207133333Y-107601428D01*
X207133333Y-107601428D02*
X207038095Y-107553809D01*
X206561904Y-107315714D02*
X206561904Y-107982380D01*
X206561904Y-107410952D02*
X206514285Y-107363333D01*
X206514285Y-107363333D02*
X206419047Y-107315714D01*
X206419047Y-107315714D02*
X206276190Y-107315714D01*
X206276190Y-107315714D02*
X206180952Y-107363333D01*
X206180952Y-107363333D02*
X206133333Y-107458571D01*
X206133333Y-107458571D02*
X206133333Y-107982380D01*
X205199999Y-106982380D02*
X204628571Y-106982380D01*
X204914285Y-107982380D02*
X204914285Y-106982380D01*
X203866666Y-107982380D02*
X203866666Y-107458571D01*
X203866666Y-107458571D02*
X203914285Y-107363333D01*
X203914285Y-107363333D02*
X204009523Y-107315714D01*
X204009523Y-107315714D02*
X204199999Y-107315714D01*
X204199999Y-107315714D02*
X204295237Y-107363333D01*
X203866666Y-107934761D02*
X203961904Y-107982380D01*
X203961904Y-107982380D02*
X204199999Y-107982380D01*
X204199999Y-107982380D02*
X204295237Y-107934761D01*
X204295237Y-107934761D02*
X204342856Y-107839523D01*
X204342856Y-107839523D02*
X204342856Y-107744285D01*
X204342856Y-107744285D02*
X204295237Y-107649047D01*
X204295237Y-107649047D02*
X204199999Y-107601428D01*
X204199999Y-107601428D02*
X203961904Y-107601428D01*
X203961904Y-107601428D02*
X203866666Y-107553809D01*
X203390475Y-107982380D02*
X203390475Y-107315714D01*
X203390475Y-107410952D02*
X203342856Y-107363333D01*
X203342856Y-107363333D02*
X203247618Y-107315714D01*
X203247618Y-107315714D02*
X203104761Y-107315714D01*
X203104761Y-107315714D02*
X203009523Y-107363333D01*
X203009523Y-107363333D02*
X202961904Y-107458571D01*
X202961904Y-107458571D02*
X202961904Y-107982380D01*
X202961904Y-107458571D02*
X202914285Y-107363333D01*
X202914285Y-107363333D02*
X202819047Y-107315714D01*
X202819047Y-107315714D02*
X202676190Y-107315714D01*
X202676190Y-107315714D02*
X202580951Y-107363333D01*
X202580951Y-107363333D02*
X202533332Y-107458571D01*
X202533332Y-107458571D02*
X202533332Y-107982380D01*
X201628571Y-107982380D02*
X201628571Y-107458571D01*
X201628571Y-107458571D02*
X201676190Y-107363333D01*
X201676190Y-107363333D02*
X201771428Y-107315714D01*
X201771428Y-107315714D02*
X201961904Y-107315714D01*
X201961904Y-107315714D02*
X202057142Y-107363333D01*
X201628571Y-107934761D02*
X201723809Y-107982380D01*
X201723809Y-107982380D02*
X201961904Y-107982380D01*
X201961904Y-107982380D02*
X202057142Y-107934761D01*
X202057142Y-107934761D02*
X202104761Y-107839523D01*
X202104761Y-107839523D02*
X202104761Y-107744285D01*
X202104761Y-107744285D02*
X202057142Y-107649047D01*
X202057142Y-107649047D02*
X201961904Y-107601428D01*
X201961904Y-107601428D02*
X201723809Y-107601428D01*
X201723809Y-107601428D02*
X201628571Y-107553809D01*
X201152380Y-107982380D02*
X201152380Y-107315714D01*
X201152380Y-107506190D02*
X201104761Y-107410952D01*
X201104761Y-107410952D02*
X201057142Y-107363333D01*
X201057142Y-107363333D02*
X200961904Y-107315714D01*
X200961904Y-107315714D02*
X200866666Y-107315714D01*
X200104761Y-107982380D02*
X200104761Y-107458571D01*
X200104761Y-107458571D02*
X200152380Y-107363333D01*
X200152380Y-107363333D02*
X200247618Y-107315714D01*
X200247618Y-107315714D02*
X200438094Y-107315714D01*
X200438094Y-107315714D02*
X200533332Y-107363333D01*
X200104761Y-107934761D02*
X200199999Y-107982380D01*
X200199999Y-107982380D02*
X200438094Y-107982380D01*
X200438094Y-107982380D02*
X200533332Y-107934761D01*
X200533332Y-107934761D02*
X200580951Y-107839523D01*
X200580951Y-107839523D02*
X200580951Y-107744285D01*
X200580951Y-107744285D02*
X200533332Y-107649047D01*
X200533332Y-107649047D02*
X200438094Y-107601428D01*
X200438094Y-107601428D02*
X200199999Y-107601428D01*
X200199999Y-107601428D02*
X200104761Y-107553809D01*
X199628570Y-107315714D02*
X199628570Y-108315714D01*
X199628570Y-107363333D02*
X199533332Y-107315714D01*
X199533332Y-107315714D02*
X199342856Y-107315714D01*
X199342856Y-107315714D02*
X199247618Y-107363333D01*
X199247618Y-107363333D02*
X199199999Y-107410952D01*
X199199999Y-107410952D02*
X199152380Y-107506190D01*
X199152380Y-107506190D02*
X199152380Y-107791904D01*
X199152380Y-107791904D02*
X199199999Y-107887142D01*
X199199999Y-107887142D02*
X199247618Y-107934761D01*
X199247618Y-107934761D02*
X199342856Y-107982380D01*
X199342856Y-107982380D02*
X199533332Y-107982380D01*
X199533332Y-107982380D02*
X199628570Y-107934761D01*
X198295237Y-107982380D02*
X198295237Y-107458571D01*
X198295237Y-107458571D02*
X198342856Y-107363333D01*
X198342856Y-107363333D02*
X198438094Y-107315714D01*
X198438094Y-107315714D02*
X198628570Y-107315714D01*
X198628570Y-107315714D02*
X198723808Y-107363333D01*
X198295237Y-107934761D02*
X198390475Y-107982380D01*
X198390475Y-107982380D02*
X198628570Y-107982380D01*
X198628570Y-107982380D02*
X198723808Y-107934761D01*
X198723808Y-107934761D02*
X198771427Y-107839523D01*
X198771427Y-107839523D02*
X198771427Y-107744285D01*
X198771427Y-107744285D02*
X198723808Y-107649047D01*
X198723808Y-107649047D02*
X198628570Y-107601428D01*
X198628570Y-107601428D02*
X198390475Y-107601428D01*
X198390475Y-107601428D02*
X198295237Y-107553809D01*
X197676189Y-107982380D02*
X197771427Y-107934761D01*
X197771427Y-107934761D02*
X197819046Y-107839523D01*
X197819046Y-107839523D02*
X197819046Y-106982380D01*
X197152379Y-107982380D02*
X197247617Y-107934761D01*
X197247617Y-107934761D02*
X197295236Y-107839523D01*
X197295236Y-107839523D02*
X197295236Y-106982380D01*
X196771426Y-107982380D02*
X196771426Y-107315714D01*
X196771426Y-106982380D02*
X196819045Y-107030000D01*
X196819045Y-107030000D02*
X196771426Y-107077619D01*
X196771426Y-107077619D02*
X196723807Y-107030000D01*
X196723807Y-107030000D02*
X196771426Y-106982380D01*
X196771426Y-106982380D02*
X196771426Y-107077619D01*
X194495236Y-107982380D02*
X194495236Y-107315714D01*
X194495236Y-107410952D02*
X194447617Y-107363333D01*
X194447617Y-107363333D02*
X194352379Y-107315714D01*
X194352379Y-107315714D02*
X194209522Y-107315714D01*
X194209522Y-107315714D02*
X194114284Y-107363333D01*
X194114284Y-107363333D02*
X194066665Y-107458571D01*
X194066665Y-107458571D02*
X194066665Y-107982380D01*
X194066665Y-107458571D02*
X194019046Y-107363333D01*
X194019046Y-107363333D02*
X193923808Y-107315714D01*
X193923808Y-107315714D02*
X193780951Y-107315714D01*
X193780951Y-107315714D02*
X193685712Y-107363333D01*
X193685712Y-107363333D02*
X193638093Y-107458571D01*
X193638093Y-107458571D02*
X193638093Y-107982380D01*
X192733332Y-107982380D02*
X192733332Y-107458571D01*
X192733332Y-107458571D02*
X192780951Y-107363333D01*
X192780951Y-107363333D02*
X192876189Y-107315714D01*
X192876189Y-107315714D02*
X193066665Y-107315714D01*
X193066665Y-107315714D02*
X193161903Y-107363333D01*
X192733332Y-107934761D02*
X192828570Y-107982380D01*
X192828570Y-107982380D02*
X193066665Y-107982380D01*
X193066665Y-107982380D02*
X193161903Y-107934761D01*
X193161903Y-107934761D02*
X193209522Y-107839523D01*
X193209522Y-107839523D02*
X193209522Y-107744285D01*
X193209522Y-107744285D02*
X193161903Y-107649047D01*
X193161903Y-107649047D02*
X193066665Y-107601428D01*
X193066665Y-107601428D02*
X192828570Y-107601428D01*
X192828570Y-107601428D02*
X192733332Y-107553809D01*
X191828570Y-107934761D02*
X191923808Y-107982380D01*
X191923808Y-107982380D02*
X192114284Y-107982380D01*
X192114284Y-107982380D02*
X192209522Y-107934761D01*
X192209522Y-107934761D02*
X192257141Y-107887142D01*
X192257141Y-107887142D02*
X192304760Y-107791904D01*
X192304760Y-107791904D02*
X192304760Y-107506190D01*
X192304760Y-107506190D02*
X192257141Y-107410952D01*
X192257141Y-107410952D02*
X192209522Y-107363333D01*
X192209522Y-107363333D02*
X192114284Y-107315714D01*
X192114284Y-107315714D02*
X191923808Y-107315714D01*
X191923808Y-107315714D02*
X191828570Y-107363333D01*
X191399998Y-107982380D02*
X191399998Y-107315714D01*
X191399998Y-107506190D02*
X191352379Y-107410952D01*
X191352379Y-107410952D02*
X191304760Y-107363333D01*
X191304760Y-107363333D02*
X191209522Y-107315714D01*
X191209522Y-107315714D02*
X191114284Y-107315714D01*
X190638093Y-107982380D02*
X190733331Y-107934761D01*
X190733331Y-107934761D02*
X190780950Y-107887142D01*
X190780950Y-107887142D02*
X190828569Y-107791904D01*
X190828569Y-107791904D02*
X190828569Y-107506190D01*
X190828569Y-107506190D02*
X190780950Y-107410952D01*
X190780950Y-107410952D02*
X190733331Y-107363333D01*
X190733331Y-107363333D02*
X190638093Y-107315714D01*
X190638093Y-107315714D02*
X190495236Y-107315714D01*
X190495236Y-107315714D02*
X190399998Y-107363333D01*
X190399998Y-107363333D02*
X190352379Y-107410952D01*
X190352379Y-107410952D02*
X190304760Y-107506190D01*
X190304760Y-107506190D02*
X190304760Y-107791904D01*
X190304760Y-107791904D02*
X190352379Y-107887142D01*
X190352379Y-107887142D02*
X190399998Y-107934761D01*
X190399998Y-107934761D02*
X190495236Y-107982380D01*
X190495236Y-107982380D02*
X190638093Y-107982380D01*
X190114284Y-108077619D02*
X189352379Y-108077619D01*
X189114283Y-107982380D02*
X189114283Y-106982380D01*
X189019045Y-107601428D02*
X188733331Y-107982380D01*
X188733331Y-107315714D02*
X189114283Y-107696666D01*
X187923807Y-107934761D02*
X188019045Y-107982380D01*
X188019045Y-107982380D02*
X188209521Y-107982380D01*
X188209521Y-107982380D02*
X188304759Y-107934761D01*
X188304759Y-107934761D02*
X188352378Y-107839523D01*
X188352378Y-107839523D02*
X188352378Y-107458571D01*
X188352378Y-107458571D02*
X188304759Y-107363333D01*
X188304759Y-107363333D02*
X188209521Y-107315714D01*
X188209521Y-107315714D02*
X188019045Y-107315714D01*
X188019045Y-107315714D02*
X187923807Y-107363333D01*
X187923807Y-107363333D02*
X187876188Y-107458571D01*
X187876188Y-107458571D02*
X187876188Y-107553809D01*
X187876188Y-107553809D02*
X188352378Y-107649047D01*
X187542854Y-107315714D02*
X187304759Y-107982380D01*
X187066664Y-107315714D02*
X187304759Y-107982380D01*
X187304759Y-107982380D02*
X187399997Y-108220476D01*
X187399997Y-108220476D02*
X187447616Y-108268095D01*
X187447616Y-108268095D02*
X187542854Y-108315714D01*
X186685711Y-107982380D02*
X186685711Y-106982380D01*
X186685711Y-107363333D02*
X186590473Y-107315714D01*
X186590473Y-107315714D02*
X186399997Y-107315714D01*
X186399997Y-107315714D02*
X186304759Y-107363333D01*
X186304759Y-107363333D02*
X186257140Y-107410952D01*
X186257140Y-107410952D02*
X186209521Y-107506190D01*
X186209521Y-107506190D02*
X186209521Y-107791904D01*
X186209521Y-107791904D02*
X186257140Y-107887142D01*
X186257140Y-107887142D02*
X186304759Y-107934761D01*
X186304759Y-107934761D02*
X186399997Y-107982380D01*
X186399997Y-107982380D02*
X186590473Y-107982380D01*
X186590473Y-107982380D02*
X186685711Y-107934761D01*
X185638092Y-107982380D02*
X185733330Y-107934761D01*
X185733330Y-107934761D02*
X185780949Y-107887142D01*
X185780949Y-107887142D02*
X185828568Y-107791904D01*
X185828568Y-107791904D02*
X185828568Y-107506190D01*
X185828568Y-107506190D02*
X185780949Y-107410952D01*
X185780949Y-107410952D02*
X185733330Y-107363333D01*
X185733330Y-107363333D02*
X185638092Y-107315714D01*
X185638092Y-107315714D02*
X185495235Y-107315714D01*
X185495235Y-107315714D02*
X185399997Y-107363333D01*
X185399997Y-107363333D02*
X185352378Y-107410952D01*
X185352378Y-107410952D02*
X185304759Y-107506190D01*
X185304759Y-107506190D02*
X185304759Y-107791904D01*
X185304759Y-107791904D02*
X185352378Y-107887142D01*
X185352378Y-107887142D02*
X185399997Y-107934761D01*
X185399997Y-107934761D02*
X185495235Y-107982380D01*
X185495235Y-107982380D02*
X185638092Y-107982380D01*
X184447616Y-107982380D02*
X184447616Y-107458571D01*
X184447616Y-107458571D02*
X184495235Y-107363333D01*
X184495235Y-107363333D02*
X184590473Y-107315714D01*
X184590473Y-107315714D02*
X184780949Y-107315714D01*
X184780949Y-107315714D02*
X184876187Y-107363333D01*
X184447616Y-107934761D02*
X184542854Y-107982380D01*
X184542854Y-107982380D02*
X184780949Y-107982380D01*
X184780949Y-107982380D02*
X184876187Y-107934761D01*
X184876187Y-107934761D02*
X184923806Y-107839523D01*
X184923806Y-107839523D02*
X184923806Y-107744285D01*
X184923806Y-107744285D02*
X184876187Y-107649047D01*
X184876187Y-107649047D02*
X184780949Y-107601428D01*
X184780949Y-107601428D02*
X184542854Y-107601428D01*
X184542854Y-107601428D02*
X184447616Y-107553809D01*
X183971425Y-107982380D02*
X183971425Y-107315714D01*
X183971425Y-107506190D02*
X183923806Y-107410952D01*
X183923806Y-107410952D02*
X183876187Y-107363333D01*
X183876187Y-107363333D02*
X183780949Y-107315714D01*
X183780949Y-107315714D02*
X183685711Y-107315714D01*
X182923806Y-107982380D02*
X182923806Y-106982380D01*
X182923806Y-107934761D02*
X183019044Y-107982380D01*
X183019044Y-107982380D02*
X183209520Y-107982380D01*
X183209520Y-107982380D02*
X183304758Y-107934761D01*
X183304758Y-107934761D02*
X183352377Y-107887142D01*
X183352377Y-107887142D02*
X183399996Y-107791904D01*
X183399996Y-107791904D02*
X183399996Y-107506190D01*
X183399996Y-107506190D02*
X183352377Y-107410952D01*
X183352377Y-107410952D02*
X183304758Y-107363333D01*
X183304758Y-107363333D02*
X183209520Y-107315714D01*
X183209520Y-107315714D02*
X183019044Y-107315714D01*
X183019044Y-107315714D02*
X182923806Y-107363333D01*
X182685711Y-108077619D02*
X181923806Y-108077619D01*
X181780948Y-107315714D02*
X181542853Y-107982380D01*
X181542853Y-107982380D02*
X181304758Y-107315714D01*
X180399996Y-107982380D02*
X180971424Y-107982380D01*
X180685710Y-107982380D02*
X180685710Y-106982380D01*
X180685710Y-106982380D02*
X180780948Y-107125238D01*
X180780948Y-107125238D02*
X180876186Y-107220476D01*
X180876186Y-107220476D02*
X180971424Y-107268095D01*
X196366666Y-84597380D02*
X196699999Y-84121190D01*
X196938094Y-84597380D02*
X196938094Y-83597380D01*
X196938094Y-83597380D02*
X196557142Y-83597380D01*
X196557142Y-83597380D02*
X196461904Y-83645000D01*
X196461904Y-83645000D02*
X196414285Y-83692619D01*
X196414285Y-83692619D02*
X196366666Y-83787857D01*
X196366666Y-83787857D02*
X196366666Y-83930714D01*
X196366666Y-83930714D02*
X196414285Y-84025952D01*
X196414285Y-84025952D02*
X196461904Y-84073571D01*
X196461904Y-84073571D02*
X196557142Y-84121190D01*
X196557142Y-84121190D02*
X196938094Y-84121190D01*
X195890475Y-84597380D02*
X195699999Y-84597380D01*
X195699999Y-84597380D02*
X195604761Y-84549761D01*
X195604761Y-84549761D02*
X195557142Y-84502142D01*
X195557142Y-84502142D02*
X195461904Y-84359285D01*
X195461904Y-84359285D02*
X195414285Y-84168809D01*
X195414285Y-84168809D02*
X195414285Y-83787857D01*
X195414285Y-83787857D02*
X195461904Y-83692619D01*
X195461904Y-83692619D02*
X195509523Y-83645000D01*
X195509523Y-83645000D02*
X195604761Y-83597380D01*
X195604761Y-83597380D02*
X195795237Y-83597380D01*
X195795237Y-83597380D02*
X195890475Y-83645000D01*
X195890475Y-83645000D02*
X195938094Y-83692619D01*
X195938094Y-83692619D02*
X195985713Y-83787857D01*
X195985713Y-83787857D02*
X195985713Y-84025952D01*
X195985713Y-84025952D02*
X195938094Y-84121190D01*
X195938094Y-84121190D02*
X195890475Y-84168809D01*
X195890475Y-84168809D02*
X195795237Y-84216428D01*
X195795237Y-84216428D02*
X195604761Y-84216428D01*
X195604761Y-84216428D02*
X195509523Y-84168809D01*
X195509523Y-84168809D02*
X195461904Y-84121190D01*
X195461904Y-84121190D02*
X195414285Y-84025952D01*
X183561904Y-87567380D02*
X183561904Y-88376904D01*
X183561904Y-88376904D02*
X183514285Y-88472142D01*
X183514285Y-88472142D02*
X183466666Y-88519761D01*
X183466666Y-88519761D02*
X183371428Y-88567380D01*
X183371428Y-88567380D02*
X183180952Y-88567380D01*
X183180952Y-88567380D02*
X183085714Y-88519761D01*
X183085714Y-88519761D02*
X183038095Y-88472142D01*
X183038095Y-88472142D02*
X182990476Y-88376904D01*
X182990476Y-88376904D02*
X182990476Y-87567380D01*
X182609523Y-87567380D02*
X181990476Y-87567380D01*
X181990476Y-87567380D02*
X182323809Y-87948333D01*
X182323809Y-87948333D02*
X182180952Y-87948333D01*
X182180952Y-87948333D02*
X182085714Y-87995952D01*
X182085714Y-87995952D02*
X182038095Y-88043571D01*
X182038095Y-88043571D02*
X181990476Y-88138809D01*
X181990476Y-88138809D02*
X181990476Y-88376904D01*
X181990476Y-88376904D02*
X182038095Y-88472142D01*
X182038095Y-88472142D02*
X182085714Y-88519761D01*
X182085714Y-88519761D02*
X182180952Y-88567380D01*
X182180952Y-88567380D02*
X182466666Y-88567380D01*
X182466666Y-88567380D02*
X182561904Y-88519761D01*
X182561904Y-88519761D02*
X182609523Y-88472142D01*
X194166666Y-84597380D02*
X194499999Y-84121190D01*
X194738094Y-84597380D02*
X194738094Y-83597380D01*
X194738094Y-83597380D02*
X194357142Y-83597380D01*
X194357142Y-83597380D02*
X194261904Y-83645000D01*
X194261904Y-83645000D02*
X194214285Y-83692619D01*
X194214285Y-83692619D02*
X194166666Y-83787857D01*
X194166666Y-83787857D02*
X194166666Y-83930714D01*
X194166666Y-83930714D02*
X194214285Y-84025952D01*
X194214285Y-84025952D02*
X194261904Y-84073571D01*
X194261904Y-84073571D02*
X194357142Y-84121190D01*
X194357142Y-84121190D02*
X194738094Y-84121190D01*
X193595237Y-84025952D02*
X193690475Y-83978333D01*
X193690475Y-83978333D02*
X193738094Y-83930714D01*
X193738094Y-83930714D02*
X193785713Y-83835476D01*
X193785713Y-83835476D02*
X193785713Y-83787857D01*
X193785713Y-83787857D02*
X193738094Y-83692619D01*
X193738094Y-83692619D02*
X193690475Y-83645000D01*
X193690475Y-83645000D02*
X193595237Y-83597380D01*
X193595237Y-83597380D02*
X193404761Y-83597380D01*
X193404761Y-83597380D02*
X193309523Y-83645000D01*
X193309523Y-83645000D02*
X193261904Y-83692619D01*
X193261904Y-83692619D02*
X193214285Y-83787857D01*
X193214285Y-83787857D02*
X193214285Y-83835476D01*
X193214285Y-83835476D02*
X193261904Y-83930714D01*
X193261904Y-83930714D02*
X193309523Y-83978333D01*
X193309523Y-83978333D02*
X193404761Y-84025952D01*
X193404761Y-84025952D02*
X193595237Y-84025952D01*
X193595237Y-84025952D02*
X193690475Y-84073571D01*
X193690475Y-84073571D02*
X193738094Y-84121190D01*
X193738094Y-84121190D02*
X193785713Y-84216428D01*
X193785713Y-84216428D02*
X193785713Y-84406904D01*
X193785713Y-84406904D02*
X193738094Y-84502142D01*
X193738094Y-84502142D02*
X193690475Y-84549761D01*
X193690475Y-84549761D02*
X193595237Y-84597380D01*
X193595237Y-84597380D02*
X193404761Y-84597380D01*
X193404761Y-84597380D02*
X193309523Y-84549761D01*
X193309523Y-84549761D02*
X193261904Y-84502142D01*
X193261904Y-84502142D02*
X193214285Y-84406904D01*
X193214285Y-84406904D02*
X193214285Y-84216428D01*
X193214285Y-84216428D02*
X193261904Y-84121190D01*
X193261904Y-84121190D02*
X193309523Y-84073571D01*
X193309523Y-84073571D02*
X193404761Y-84025952D01*
X187587632Y-78034824D02*
X188063822Y-78034824D01*
X188063822Y-78034824D02*
X188063822Y-77034824D01*
X187254298Y-77511015D02*
X186920965Y-77511015D01*
X186778108Y-78034824D02*
X187254298Y-78034824D01*
X187254298Y-78034824D02*
X187254298Y-77034824D01*
X187254298Y-77034824D02*
X186778108Y-77034824D01*
X186349536Y-78034824D02*
X186349536Y-77034824D01*
X186349536Y-77034824D02*
X186111441Y-77034824D01*
X186111441Y-77034824D02*
X185968584Y-77082444D01*
X185968584Y-77082444D02*
X185873346Y-77177682D01*
X185873346Y-77177682D02*
X185825727Y-77272920D01*
X185825727Y-77272920D02*
X185778108Y-77463396D01*
X185778108Y-77463396D02*
X185778108Y-77606253D01*
X185778108Y-77606253D02*
X185825727Y-77796729D01*
X185825727Y-77796729D02*
X185873346Y-77891967D01*
X185873346Y-77891967D02*
X185968584Y-77987205D01*
X185968584Y-77987205D02*
X186111441Y-78034824D01*
X186111441Y-78034824D02*
X186349536Y-78034824D01*
X185397155Y-77130063D02*
X185349536Y-77082444D01*
X185349536Y-77082444D02*
X185254298Y-77034824D01*
X185254298Y-77034824D02*
X185016203Y-77034824D01*
X185016203Y-77034824D02*
X184920965Y-77082444D01*
X184920965Y-77082444D02*
X184873346Y-77130063D01*
X184873346Y-77130063D02*
X184825727Y-77225301D01*
X184825727Y-77225301D02*
X184825727Y-77320539D01*
X184825727Y-77320539D02*
X184873346Y-77463396D01*
X184873346Y-77463396D02*
X185444774Y-78034824D01*
X185444774Y-78034824D02*
X184825727Y-78034824D01*
X177933333Y-82043571D02*
X178266666Y-82043571D01*
X178266666Y-82567380D02*
X178266666Y-81567380D01*
X178266666Y-81567380D02*
X177790476Y-81567380D01*
X176885714Y-82567380D02*
X177457142Y-82567380D01*
X177171428Y-82567380D02*
X177171428Y-81567380D01*
X177171428Y-81567380D02*
X177266666Y-81710238D01*
X177266666Y-81710238D02*
X177361904Y-81805476D01*
X177361904Y-81805476D02*
X177457142Y-81853095D01*
X175823809Y-109167380D02*
X176157142Y-108691190D01*
X176395237Y-109167380D02*
X176395237Y-108167380D01*
X176395237Y-108167380D02*
X176014285Y-108167380D01*
X176014285Y-108167380D02*
X175919047Y-108215000D01*
X175919047Y-108215000D02*
X175871428Y-108262619D01*
X175871428Y-108262619D02*
X175823809Y-108357857D01*
X175823809Y-108357857D02*
X175823809Y-108500714D01*
X175823809Y-108500714D02*
X175871428Y-108595952D01*
X175871428Y-108595952D02*
X175919047Y-108643571D01*
X175919047Y-108643571D02*
X176014285Y-108691190D01*
X176014285Y-108691190D02*
X176395237Y-108691190D01*
X175442856Y-109119761D02*
X175299999Y-109167380D01*
X175299999Y-109167380D02*
X175061904Y-109167380D01*
X175061904Y-109167380D02*
X174966666Y-109119761D01*
X174966666Y-109119761D02*
X174919047Y-109072142D01*
X174919047Y-109072142D02*
X174871428Y-108976904D01*
X174871428Y-108976904D02*
X174871428Y-108881666D01*
X174871428Y-108881666D02*
X174919047Y-108786428D01*
X174919047Y-108786428D02*
X174966666Y-108738809D01*
X174966666Y-108738809D02*
X175061904Y-108691190D01*
X175061904Y-108691190D02*
X175252380Y-108643571D01*
X175252380Y-108643571D02*
X175347618Y-108595952D01*
X175347618Y-108595952D02*
X175395237Y-108548333D01*
X175395237Y-108548333D02*
X175442856Y-108453095D01*
X175442856Y-108453095D02*
X175442856Y-108357857D01*
X175442856Y-108357857D02*
X175395237Y-108262619D01*
X175395237Y-108262619D02*
X175347618Y-108215000D01*
X175347618Y-108215000D02*
X175252380Y-108167380D01*
X175252380Y-108167380D02*
X175014285Y-108167380D01*
X175014285Y-108167380D02*
X174871428Y-108215000D01*
X174585713Y-108167380D02*
X174014285Y-108167380D01*
X174299999Y-109167380D02*
X174299999Y-108167380D01*
X173157142Y-109167380D02*
X173728570Y-109167380D01*
X173442856Y-109167380D02*
X173442856Y-108167380D01*
X173442856Y-108167380D02*
X173538094Y-108310238D01*
X173538094Y-108310238D02*
X173633332Y-108405476D01*
X173633332Y-108405476D02*
X173728570Y-108453095D01*
X168387632Y-77934824D02*
X168863822Y-77934824D01*
X168863822Y-77934824D02*
X168863822Y-76934824D01*
X168054298Y-77411015D02*
X167720965Y-77411015D01*
X167578108Y-77934824D02*
X168054298Y-77934824D01*
X168054298Y-77934824D02*
X168054298Y-76934824D01*
X168054298Y-76934824D02*
X167578108Y-76934824D01*
X167149536Y-77934824D02*
X167149536Y-76934824D01*
X167149536Y-76934824D02*
X166911441Y-76934824D01*
X166911441Y-76934824D02*
X166768584Y-76982444D01*
X166768584Y-76982444D02*
X166673346Y-77077682D01*
X166673346Y-77077682D02*
X166625727Y-77172920D01*
X166625727Y-77172920D02*
X166578108Y-77363396D01*
X166578108Y-77363396D02*
X166578108Y-77506253D01*
X166578108Y-77506253D02*
X166625727Y-77696729D01*
X166625727Y-77696729D02*
X166673346Y-77791967D01*
X166673346Y-77791967D02*
X166768584Y-77887205D01*
X166768584Y-77887205D02*
X166911441Y-77934824D01*
X166911441Y-77934824D02*
X167149536Y-77934824D01*
X166244774Y-76934824D02*
X165625727Y-76934824D01*
X165625727Y-76934824D02*
X165959060Y-77315777D01*
X165959060Y-77315777D02*
X165816203Y-77315777D01*
X165816203Y-77315777D02*
X165720965Y-77363396D01*
X165720965Y-77363396D02*
X165673346Y-77411015D01*
X165673346Y-77411015D02*
X165625727Y-77506253D01*
X165625727Y-77506253D02*
X165625727Y-77744348D01*
X165625727Y-77744348D02*
X165673346Y-77839586D01*
X165673346Y-77839586D02*
X165720965Y-77887205D01*
X165720965Y-77887205D02*
X165816203Y-77934824D01*
X165816203Y-77934824D02*
X166101917Y-77934824D01*
X166101917Y-77934824D02*
X166197155Y-77887205D01*
X166197155Y-77887205D02*
X166244774Y-77839586D01*
X199443571Y-73566666D02*
X199491190Y-73709523D01*
X199491190Y-73709523D02*
X199538809Y-73757142D01*
X199538809Y-73757142D02*
X199634047Y-73804761D01*
X199634047Y-73804761D02*
X199776904Y-73804761D01*
X199776904Y-73804761D02*
X199872142Y-73757142D01*
X199872142Y-73757142D02*
X199919761Y-73709523D01*
X199919761Y-73709523D02*
X199967380Y-73614285D01*
X199967380Y-73614285D02*
X199967380Y-73233333D01*
X199967380Y-73233333D02*
X198967380Y-73233333D01*
X198967380Y-73233333D02*
X198967380Y-73566666D01*
X198967380Y-73566666D02*
X199015000Y-73661904D01*
X199015000Y-73661904D02*
X199062619Y-73709523D01*
X199062619Y-73709523D02*
X199157857Y-73757142D01*
X199157857Y-73757142D02*
X199253095Y-73757142D01*
X199253095Y-73757142D02*
X199348333Y-73709523D01*
X199348333Y-73709523D02*
X199395952Y-73661904D01*
X199395952Y-73661904D02*
X199443571Y-73566666D01*
X199443571Y-73566666D02*
X199443571Y-73233333D01*
X198967380Y-74423809D02*
X198967380Y-74614285D01*
X198967380Y-74614285D02*
X199015000Y-74709523D01*
X199015000Y-74709523D02*
X199110238Y-74804761D01*
X199110238Y-74804761D02*
X199300714Y-74852380D01*
X199300714Y-74852380D02*
X199634047Y-74852380D01*
X199634047Y-74852380D02*
X199824523Y-74804761D01*
X199824523Y-74804761D02*
X199919761Y-74709523D01*
X199919761Y-74709523D02*
X199967380Y-74614285D01*
X199967380Y-74614285D02*
X199967380Y-74423809D01*
X199967380Y-74423809D02*
X199919761Y-74328571D01*
X199919761Y-74328571D02*
X199824523Y-74233333D01*
X199824523Y-74233333D02*
X199634047Y-74185714D01*
X199634047Y-74185714D02*
X199300714Y-74185714D01*
X199300714Y-74185714D02*
X199110238Y-74233333D01*
X199110238Y-74233333D02*
X199015000Y-74328571D01*
X199015000Y-74328571D02*
X198967380Y-74423809D01*
X198967380Y-75471428D02*
X198967380Y-75661904D01*
X198967380Y-75661904D02*
X199015000Y-75757142D01*
X199015000Y-75757142D02*
X199110238Y-75852380D01*
X199110238Y-75852380D02*
X199300714Y-75899999D01*
X199300714Y-75899999D02*
X199634047Y-75899999D01*
X199634047Y-75899999D02*
X199824523Y-75852380D01*
X199824523Y-75852380D02*
X199919761Y-75757142D01*
X199919761Y-75757142D02*
X199967380Y-75661904D01*
X199967380Y-75661904D02*
X199967380Y-75471428D01*
X199967380Y-75471428D02*
X199919761Y-75376190D01*
X199919761Y-75376190D02*
X199824523Y-75280952D01*
X199824523Y-75280952D02*
X199634047Y-75233333D01*
X199634047Y-75233333D02*
X199300714Y-75233333D01*
X199300714Y-75233333D02*
X199110238Y-75280952D01*
X199110238Y-75280952D02*
X199015000Y-75376190D01*
X199015000Y-75376190D02*
X198967380Y-75471428D01*
X198967380Y-76185714D02*
X198967380Y-76757142D01*
X199967380Y-76471428D02*
X198967380Y-76471428D01*
X199967380Y-77614285D02*
X199967380Y-77042857D01*
X199967380Y-77328571D02*
X198967380Y-77328571D01*
X198967380Y-77328571D02*
X199110238Y-77233333D01*
X199110238Y-77233333D02*
X199205476Y-77138095D01*
X199205476Y-77138095D02*
X199253095Y-77042857D01*
X198337380Y-81157142D02*
X197861190Y-80823809D01*
X198337380Y-80585714D02*
X197337380Y-80585714D01*
X197337380Y-80585714D02*
X197337380Y-80966666D01*
X197337380Y-80966666D02*
X197385000Y-81061904D01*
X197385000Y-81061904D02*
X197432619Y-81109523D01*
X197432619Y-81109523D02*
X197527857Y-81157142D01*
X197527857Y-81157142D02*
X197670714Y-81157142D01*
X197670714Y-81157142D02*
X197765952Y-81109523D01*
X197765952Y-81109523D02*
X197813571Y-81061904D01*
X197813571Y-81061904D02*
X197861190Y-80966666D01*
X197861190Y-80966666D02*
X197861190Y-80585714D01*
X198337380Y-82109523D02*
X198337380Y-81538095D01*
X198337380Y-81823809D02*
X197337380Y-81823809D01*
X197337380Y-81823809D02*
X197480238Y-81728571D01*
X197480238Y-81728571D02*
X197575476Y-81633333D01*
X197575476Y-81633333D02*
X197623095Y-81538095D01*
X197337380Y-82728571D02*
X197337380Y-82823809D01*
X197337380Y-82823809D02*
X197385000Y-82919047D01*
X197385000Y-82919047D02*
X197432619Y-82966666D01*
X197432619Y-82966666D02*
X197527857Y-83014285D01*
X197527857Y-83014285D02*
X197718333Y-83061904D01*
X197718333Y-83061904D02*
X197956428Y-83061904D01*
X197956428Y-83061904D02*
X198146904Y-83014285D01*
X198146904Y-83014285D02*
X198242142Y-82966666D01*
X198242142Y-82966666D02*
X198289761Y-82919047D01*
X198289761Y-82919047D02*
X198337380Y-82823809D01*
X198337380Y-82823809D02*
X198337380Y-82728571D01*
X198337380Y-82728571D02*
X198289761Y-82633333D01*
X198289761Y-82633333D02*
X198242142Y-82585714D01*
X198242142Y-82585714D02*
X198146904Y-82538095D01*
X198146904Y-82538095D02*
X197956428Y-82490476D01*
X197956428Y-82490476D02*
X197718333Y-82490476D01*
X197718333Y-82490476D02*
X197527857Y-82538095D01*
X197527857Y-82538095D02*
X197432619Y-82585714D01*
X197432619Y-82585714D02*
X197385000Y-82633333D01*
X197385000Y-82633333D02*
X197337380Y-82728571D01*
X184766666Y-90472142D02*
X184814285Y-90519761D01*
X184814285Y-90519761D02*
X184957142Y-90567380D01*
X184957142Y-90567380D02*
X185052380Y-90567380D01*
X185052380Y-90567380D02*
X185195237Y-90519761D01*
X185195237Y-90519761D02*
X185290475Y-90424523D01*
X185290475Y-90424523D02*
X185338094Y-90329285D01*
X185338094Y-90329285D02*
X185385713Y-90138809D01*
X185385713Y-90138809D02*
X185385713Y-89995952D01*
X185385713Y-89995952D02*
X185338094Y-89805476D01*
X185338094Y-89805476D02*
X185290475Y-89710238D01*
X185290475Y-89710238D02*
X185195237Y-89615000D01*
X185195237Y-89615000D02*
X185052380Y-89567380D01*
X185052380Y-89567380D02*
X184957142Y-89567380D01*
X184957142Y-89567380D02*
X184814285Y-89615000D01*
X184814285Y-89615000D02*
X184766666Y-89662619D01*
X184195237Y-89995952D02*
X184290475Y-89948333D01*
X184290475Y-89948333D02*
X184338094Y-89900714D01*
X184338094Y-89900714D02*
X184385713Y-89805476D01*
X184385713Y-89805476D02*
X184385713Y-89757857D01*
X184385713Y-89757857D02*
X184338094Y-89662619D01*
X184338094Y-89662619D02*
X184290475Y-89615000D01*
X184290475Y-89615000D02*
X184195237Y-89567380D01*
X184195237Y-89567380D02*
X184004761Y-89567380D01*
X184004761Y-89567380D02*
X183909523Y-89615000D01*
X183909523Y-89615000D02*
X183861904Y-89662619D01*
X183861904Y-89662619D02*
X183814285Y-89757857D01*
X183814285Y-89757857D02*
X183814285Y-89805476D01*
X183814285Y-89805476D02*
X183861904Y-89900714D01*
X183861904Y-89900714D02*
X183909523Y-89948333D01*
X183909523Y-89948333D02*
X184004761Y-89995952D01*
X184004761Y-89995952D02*
X184195237Y-89995952D01*
X184195237Y-89995952D02*
X184290475Y-90043571D01*
X184290475Y-90043571D02*
X184338094Y-90091190D01*
X184338094Y-90091190D02*
X184385713Y-90186428D01*
X184385713Y-90186428D02*
X184385713Y-90376904D01*
X184385713Y-90376904D02*
X184338094Y-90472142D01*
X184338094Y-90472142D02*
X184290475Y-90519761D01*
X184290475Y-90519761D02*
X184195237Y-90567380D01*
X184195237Y-90567380D02*
X184004761Y-90567380D01*
X184004761Y-90567380D02*
X183909523Y-90519761D01*
X183909523Y-90519761D02*
X183861904Y-90472142D01*
X183861904Y-90472142D02*
X183814285Y-90376904D01*
X183814285Y-90376904D02*
X183814285Y-90186428D01*
X183814285Y-90186428D02*
X183861904Y-90091190D01*
X183861904Y-90091190D02*
X183909523Y-90043571D01*
X183909523Y-90043571D02*
X184004761Y-89995952D01*
X192242857Y-85072142D02*
X192290476Y-85119761D01*
X192290476Y-85119761D02*
X192433333Y-85167380D01*
X192433333Y-85167380D02*
X192528571Y-85167380D01*
X192528571Y-85167380D02*
X192671428Y-85119761D01*
X192671428Y-85119761D02*
X192766666Y-85024523D01*
X192766666Y-85024523D02*
X192814285Y-84929285D01*
X192814285Y-84929285D02*
X192861904Y-84738809D01*
X192861904Y-84738809D02*
X192861904Y-84595952D01*
X192861904Y-84595952D02*
X192814285Y-84405476D01*
X192814285Y-84405476D02*
X192766666Y-84310238D01*
X192766666Y-84310238D02*
X192671428Y-84215000D01*
X192671428Y-84215000D02*
X192528571Y-84167380D01*
X192528571Y-84167380D02*
X192433333Y-84167380D01*
X192433333Y-84167380D02*
X192290476Y-84215000D01*
X192290476Y-84215000D02*
X192242857Y-84262619D01*
X191290476Y-85167380D02*
X191861904Y-85167380D01*
X191576190Y-85167380D02*
X191576190Y-84167380D01*
X191576190Y-84167380D02*
X191671428Y-84310238D01*
X191671428Y-84310238D02*
X191766666Y-84405476D01*
X191766666Y-84405476D02*
X191861904Y-84453095D01*
X190338095Y-85167380D02*
X190909523Y-85167380D01*
X190623809Y-85167380D02*
X190623809Y-84167380D01*
X190623809Y-84167380D02*
X190719047Y-84310238D01*
X190719047Y-84310238D02*
X190814285Y-84405476D01*
X190814285Y-84405476D02*
X190909523Y-84453095D01*
X206837632Y-77934824D02*
X207313822Y-77934824D01*
X207313822Y-77934824D02*
X207313822Y-76934824D01*
X206504298Y-77411015D02*
X206170965Y-77411015D01*
X206028108Y-77934824D02*
X206504298Y-77934824D01*
X206504298Y-77934824D02*
X206504298Y-76934824D01*
X206504298Y-76934824D02*
X206028108Y-76934824D01*
X205599536Y-77934824D02*
X205599536Y-76934824D01*
X205599536Y-76934824D02*
X205361441Y-76934824D01*
X205361441Y-76934824D02*
X205218584Y-76982444D01*
X205218584Y-76982444D02*
X205123346Y-77077682D01*
X205123346Y-77077682D02*
X205075727Y-77172920D01*
X205075727Y-77172920D02*
X205028108Y-77363396D01*
X205028108Y-77363396D02*
X205028108Y-77506253D01*
X205028108Y-77506253D02*
X205075727Y-77696729D01*
X205075727Y-77696729D02*
X205123346Y-77791967D01*
X205123346Y-77791967D02*
X205218584Y-77887205D01*
X205218584Y-77887205D02*
X205361441Y-77934824D01*
X205361441Y-77934824D02*
X205599536Y-77934824D01*
X204075727Y-77934824D02*
X204647155Y-77934824D01*
X204361441Y-77934824D02*
X204361441Y-76934824D01*
X204361441Y-76934824D02*
X204456679Y-77077682D01*
X204456679Y-77077682D02*
X204551917Y-77172920D01*
X204551917Y-77172920D02*
X204647155Y-77220539D01*
X165461904Y-87919380D02*
X164890476Y-87919380D01*
X165176190Y-88919380D02*
X165176190Y-87919380D01*
X164557142Y-88919380D02*
X164557142Y-87919380D01*
X164557142Y-87919380D02*
X164176190Y-87919380D01*
X164176190Y-87919380D02*
X164080952Y-87967000D01*
X164080952Y-87967000D02*
X164033333Y-88014619D01*
X164033333Y-88014619D02*
X163985714Y-88109857D01*
X163985714Y-88109857D02*
X163985714Y-88252714D01*
X163985714Y-88252714D02*
X164033333Y-88347952D01*
X164033333Y-88347952D02*
X164080952Y-88395571D01*
X164080952Y-88395571D02*
X164176190Y-88443190D01*
X164176190Y-88443190D02*
X164557142Y-88443190D01*
X163033333Y-88919380D02*
X163604761Y-88919380D01*
X163319047Y-88919380D02*
X163319047Y-87919380D01*
X163319047Y-87919380D02*
X163414285Y-88062238D01*
X163414285Y-88062238D02*
X163509523Y-88157476D01*
X163509523Y-88157476D02*
X163604761Y-88205095D01*
X200461904Y-94319380D02*
X199890476Y-94319380D01*
X200176190Y-95319380D02*
X200176190Y-94319380D01*
X199557142Y-95319380D02*
X199557142Y-94319380D01*
X199557142Y-94319380D02*
X199176190Y-94319380D01*
X199176190Y-94319380D02*
X199080952Y-94367000D01*
X199080952Y-94367000D02*
X199033333Y-94414619D01*
X199033333Y-94414619D02*
X198985714Y-94509857D01*
X198985714Y-94509857D02*
X198985714Y-94652714D01*
X198985714Y-94652714D02*
X199033333Y-94747952D01*
X199033333Y-94747952D02*
X199080952Y-94795571D01*
X199080952Y-94795571D02*
X199176190Y-94843190D01*
X199176190Y-94843190D02*
X199557142Y-94843190D01*
X198652380Y-94319380D02*
X198033333Y-94319380D01*
X198033333Y-94319380D02*
X198366666Y-94700333D01*
X198366666Y-94700333D02*
X198223809Y-94700333D01*
X198223809Y-94700333D02*
X198128571Y-94747952D01*
X198128571Y-94747952D02*
X198080952Y-94795571D01*
X198080952Y-94795571D02*
X198033333Y-94890809D01*
X198033333Y-94890809D02*
X198033333Y-95128904D01*
X198033333Y-95128904D02*
X198080952Y-95224142D01*
X198080952Y-95224142D02*
X198128571Y-95271761D01*
X198128571Y-95271761D02*
X198223809Y-95319380D01*
X198223809Y-95319380D02*
X198509523Y-95319380D01*
X198509523Y-95319380D02*
X198604761Y-95271761D01*
X198604761Y-95271761D02*
X198652380Y-95224142D01*
X182366666Y-94072141D02*
X182414285Y-94119760D01*
X182414285Y-94119760D02*
X182557142Y-94167379D01*
X182557142Y-94167379D02*
X182652380Y-94167379D01*
X182652380Y-94167379D02*
X182795237Y-94119760D01*
X182795237Y-94119760D02*
X182890475Y-94024522D01*
X182890475Y-94024522D02*
X182938094Y-93929284D01*
X182938094Y-93929284D02*
X182985713Y-93738808D01*
X182985713Y-93738808D02*
X182985713Y-93595951D01*
X182985713Y-93595951D02*
X182938094Y-93405475D01*
X182938094Y-93405475D02*
X182890475Y-93310237D01*
X182890475Y-93310237D02*
X182795237Y-93214999D01*
X182795237Y-93214999D02*
X182652380Y-93167379D01*
X182652380Y-93167379D02*
X182557142Y-93167379D01*
X182557142Y-93167379D02*
X182414285Y-93214999D01*
X182414285Y-93214999D02*
X182366666Y-93262618D01*
X182033332Y-93167379D02*
X181366666Y-93167379D01*
X181366666Y-93167379D02*
X181795237Y-94167379D01*
X179208602Y-101491190D02*
X179208602Y-101967380D01*
X179541935Y-100967380D02*
X179208602Y-101491190D01*
X179208602Y-101491190D02*
X178875269Y-100967380D01*
X178018126Y-101967380D02*
X178589554Y-101967380D01*
X178303840Y-101967380D02*
X178303840Y-100967380D01*
X178303840Y-100967380D02*
X178399078Y-101110238D01*
X178399078Y-101110238D02*
X178494316Y-101205476D01*
X178494316Y-101205476D02*
X178589554Y-101253095D01*
X179766666Y-96472142D02*
X179814285Y-96519761D01*
X179814285Y-96519761D02*
X179957142Y-96567380D01*
X179957142Y-96567380D02*
X180052380Y-96567380D01*
X180052380Y-96567380D02*
X180195237Y-96519761D01*
X180195237Y-96519761D02*
X180290475Y-96424523D01*
X180290475Y-96424523D02*
X180338094Y-96329285D01*
X180338094Y-96329285D02*
X180385713Y-96138809D01*
X180385713Y-96138809D02*
X180385713Y-95995952D01*
X180385713Y-95995952D02*
X180338094Y-95805476D01*
X180338094Y-95805476D02*
X180290475Y-95710238D01*
X180290475Y-95710238D02*
X180195237Y-95615000D01*
X180195237Y-95615000D02*
X180052380Y-95567380D01*
X180052380Y-95567380D02*
X179957142Y-95567380D01*
X179957142Y-95567380D02*
X179814285Y-95615000D01*
X179814285Y-95615000D02*
X179766666Y-95662619D01*
X179290475Y-96567380D02*
X179099999Y-96567380D01*
X179099999Y-96567380D02*
X179004761Y-96519761D01*
X179004761Y-96519761D02*
X178957142Y-96472142D01*
X178957142Y-96472142D02*
X178861904Y-96329285D01*
X178861904Y-96329285D02*
X178814285Y-96138809D01*
X178814285Y-96138809D02*
X178814285Y-95757857D01*
X178814285Y-95757857D02*
X178861904Y-95662619D01*
X178861904Y-95662619D02*
X178909523Y-95615000D01*
X178909523Y-95615000D02*
X179004761Y-95567380D01*
X179004761Y-95567380D02*
X179195237Y-95567380D01*
X179195237Y-95567380D02*
X179290475Y-95615000D01*
X179290475Y-95615000D02*
X179338094Y-95662619D01*
X179338094Y-95662619D02*
X179385713Y-95757857D01*
X179385713Y-95757857D02*
X179385713Y-95995952D01*
X179385713Y-95995952D02*
X179338094Y-96091190D01*
X179338094Y-96091190D02*
X179290475Y-96138809D01*
X179290475Y-96138809D02*
X179195237Y-96186428D01*
X179195237Y-96186428D02*
X179004761Y-96186428D01*
X179004761Y-96186428D02*
X178909523Y-96138809D01*
X178909523Y-96138809D02*
X178861904Y-96091190D01*
X178861904Y-96091190D02*
X178814285Y-95995952D01*
X164856666Y-72937380D02*
X165189999Y-72461190D01*
X165428094Y-72937380D02*
X165428094Y-71937380D01*
X165428094Y-71937380D02*
X165047142Y-71937380D01*
X165047142Y-71937380D02*
X164951904Y-71985000D01*
X164951904Y-71985000D02*
X164904285Y-72032619D01*
X164904285Y-72032619D02*
X164856666Y-72127857D01*
X164856666Y-72127857D02*
X164856666Y-72270714D01*
X164856666Y-72270714D02*
X164904285Y-72365952D01*
X164904285Y-72365952D02*
X164951904Y-72413571D01*
X164951904Y-72413571D02*
X165047142Y-72461190D01*
X165047142Y-72461190D02*
X165428094Y-72461190D01*
X163904285Y-72937380D02*
X164475713Y-72937380D01*
X164189999Y-72937380D02*
X164189999Y-71937380D01*
X164189999Y-71937380D02*
X164285237Y-72080238D01*
X164285237Y-72080238D02*
X164380475Y-72175476D01*
X164380475Y-72175476D02*
X164475713Y-72223095D01*
X158733333Y-74837380D02*
X158733333Y-75551666D01*
X158733333Y-75551666D02*
X158780952Y-75694523D01*
X158780952Y-75694523D02*
X158876190Y-75789761D01*
X158876190Y-75789761D02*
X159019047Y-75837380D01*
X159019047Y-75837380D02*
X159114285Y-75837380D01*
X157733333Y-75837380D02*
X158304761Y-75837380D01*
X158019047Y-75837380D02*
X158019047Y-74837380D01*
X158019047Y-74837380D02*
X158114285Y-74980238D01*
X158114285Y-74980238D02*
X158209523Y-75075476D01*
X158209523Y-75075476D02*
X158304761Y-75123095D01*
X176466666Y-80132619D02*
X176466666Y-79418333D01*
X176466666Y-79418333D02*
X176419047Y-79275476D01*
X176419047Y-79275476D02*
X176323809Y-79180238D01*
X176323809Y-79180238D02*
X176180952Y-79132619D01*
X176180952Y-79132619D02*
X176085714Y-79132619D01*
X176895238Y-80037380D02*
X176942857Y-80085000D01*
X176942857Y-80085000D02*
X177038095Y-80132619D01*
X177038095Y-80132619D02*
X177276190Y-80132619D01*
X177276190Y-80132619D02*
X177371428Y-80085000D01*
X177371428Y-80085000D02*
X177419047Y-80037380D01*
X177419047Y-80037380D02*
X177466666Y-79942142D01*
X177466666Y-79942142D02*
X177466666Y-79846904D01*
X177466666Y-79846904D02*
X177419047Y-79704047D01*
X177419047Y-79704047D02*
X176847619Y-79132619D01*
X176847619Y-79132619D02*
X177466666Y-79132619D01*
X170458073Y-92377628D02*
X171030493Y-92276613D01*
X170862134Y-92781689D02*
X171569241Y-92074582D01*
X171569241Y-92074582D02*
X171299867Y-91805208D01*
X171299867Y-91805208D02*
X171198851Y-91771536D01*
X171198851Y-91771536D02*
X171131508Y-91771536D01*
X171131508Y-91771536D02*
X171030493Y-91805208D01*
X171030493Y-91805208D02*
X170929477Y-91906223D01*
X170929477Y-91906223D02*
X170895806Y-92007239D01*
X170895806Y-92007239D02*
X170895806Y-92074582D01*
X170895806Y-92074582D02*
X170929477Y-92175597D01*
X170929477Y-92175597D02*
X171198851Y-92444971D01*
X170323386Y-91300132D02*
X169851981Y-91771536D01*
X170761118Y-91199117D02*
X170424401Y-91872552D01*
X170424401Y-91872552D02*
X169986668Y-91434819D01*
X172966666Y-97167380D02*
X173299999Y-96691190D01*
X173538094Y-97167380D02*
X173538094Y-96167380D01*
X173538094Y-96167380D02*
X173157142Y-96167380D01*
X173157142Y-96167380D02*
X173061904Y-96215000D01*
X173061904Y-96215000D02*
X173014285Y-96262619D01*
X173014285Y-96262619D02*
X172966666Y-96357857D01*
X172966666Y-96357857D02*
X172966666Y-96500714D01*
X172966666Y-96500714D02*
X173014285Y-96595952D01*
X173014285Y-96595952D02*
X173061904Y-96643571D01*
X173061904Y-96643571D02*
X173157142Y-96691190D01*
X173157142Y-96691190D02*
X173538094Y-96691190D01*
X172633332Y-96167380D02*
X171966666Y-96167380D01*
X171966666Y-96167380D02*
X172395237Y-97167380D01*
X168165594Y-72967380D02*
X168165594Y-71967380D01*
X168165594Y-71967380D02*
X167927499Y-71967380D01*
X167927499Y-71967380D02*
X167784642Y-72015000D01*
X167784642Y-72015000D02*
X167689404Y-72110238D01*
X167689404Y-72110238D02*
X167641785Y-72205476D01*
X167641785Y-72205476D02*
X167594166Y-72395952D01*
X167594166Y-72395952D02*
X167594166Y-72538809D01*
X167594166Y-72538809D02*
X167641785Y-72729285D01*
X167641785Y-72729285D02*
X167689404Y-72824523D01*
X167689404Y-72824523D02*
X167784642Y-72919761D01*
X167784642Y-72919761D02*
X167927499Y-72967380D01*
X167927499Y-72967380D02*
X168165594Y-72967380D01*
X166641785Y-72967380D02*
X167213213Y-72967380D01*
X166927499Y-72967380D02*
X166927499Y-71967380D01*
X166927499Y-71967380D02*
X167022737Y-72110238D01*
X167022737Y-72110238D02*
X167117975Y-72205476D01*
X167117975Y-72205476D02*
X167213213Y-72253095D01*
X171366666Y-87112142D02*
X171414285Y-87159761D01*
X171414285Y-87159761D02*
X171557142Y-87207380D01*
X171557142Y-87207380D02*
X171652380Y-87207380D01*
X171652380Y-87207380D02*
X171795237Y-87159761D01*
X171795237Y-87159761D02*
X171890475Y-87064523D01*
X171890475Y-87064523D02*
X171938094Y-86969285D01*
X171938094Y-86969285D02*
X171985713Y-86778809D01*
X171985713Y-86778809D02*
X171985713Y-86635952D01*
X171985713Y-86635952D02*
X171938094Y-86445476D01*
X171938094Y-86445476D02*
X171890475Y-86350238D01*
X171890475Y-86350238D02*
X171795237Y-86255000D01*
X171795237Y-86255000D02*
X171652380Y-86207380D01*
X171652380Y-86207380D02*
X171557142Y-86207380D01*
X171557142Y-86207380D02*
X171414285Y-86255000D01*
X171414285Y-86255000D02*
X171366666Y-86302619D01*
X170985713Y-86302619D02*
X170938094Y-86255000D01*
X170938094Y-86255000D02*
X170842856Y-86207380D01*
X170842856Y-86207380D02*
X170604761Y-86207380D01*
X170604761Y-86207380D02*
X170509523Y-86255000D01*
X170509523Y-86255000D02*
X170461904Y-86302619D01*
X170461904Y-86302619D02*
X170414285Y-86397857D01*
X170414285Y-86397857D02*
X170414285Y-86493095D01*
X170414285Y-86493095D02*
X170461904Y-86635952D01*
X170461904Y-86635952D02*
X171033332Y-87207380D01*
X171033332Y-87207380D02*
X170414285Y-87207380D01*
X193319047Y-94567380D02*
X193795237Y-94567380D01*
X193795237Y-94567380D02*
X193795237Y-93567380D01*
X192985713Y-94043571D02*
X192652380Y-94043571D01*
X192509523Y-94567380D02*
X192985713Y-94567380D01*
X192985713Y-94567380D02*
X192985713Y-93567380D01*
X192985713Y-93567380D02*
X192509523Y-93567380D01*
X192080951Y-94567380D02*
X192080951Y-93567380D01*
X192080951Y-93567380D02*
X191842856Y-93567380D01*
X191842856Y-93567380D02*
X191699999Y-93615000D01*
X191699999Y-93615000D02*
X191604761Y-93710238D01*
X191604761Y-93710238D02*
X191557142Y-93805476D01*
X191557142Y-93805476D02*
X191509523Y-93995952D01*
X191509523Y-93995952D02*
X191509523Y-94138809D01*
X191509523Y-94138809D02*
X191557142Y-94329285D01*
X191557142Y-94329285D02*
X191604761Y-94424523D01*
X191604761Y-94424523D02*
X191699999Y-94519761D01*
X191699999Y-94519761D02*
X191842856Y-94567380D01*
X191842856Y-94567380D02*
X192080951Y-94567380D01*
X190604761Y-93567380D02*
X191080951Y-93567380D01*
X191080951Y-93567380D02*
X191128570Y-94043571D01*
X191128570Y-94043571D02*
X191080951Y-93995952D01*
X191080951Y-93995952D02*
X190985713Y-93948333D01*
X190985713Y-93948333D02*
X190747618Y-93948333D01*
X190747618Y-93948333D02*
X190652380Y-93995952D01*
X190652380Y-93995952D02*
X190604761Y-94043571D01*
X190604761Y-94043571D02*
X190557142Y-94138809D01*
X190557142Y-94138809D02*
X190557142Y-94376904D01*
X190557142Y-94376904D02*
X190604761Y-94472142D01*
X190604761Y-94472142D02*
X190652380Y-94519761D01*
X190652380Y-94519761D02*
X190747618Y-94567380D01*
X190747618Y-94567380D02*
X190985713Y-94567380D01*
X190985713Y-94567380D02*
X191080951Y-94519761D01*
X191080951Y-94519761D02*
X191128570Y-94472142D01*
X206812632Y-91884824D02*
X207288822Y-91884824D01*
X207288822Y-91884824D02*
X207288822Y-90884824D01*
X206479298Y-91361015D02*
X206145965Y-91361015D01*
X206003108Y-91884824D02*
X206479298Y-91884824D01*
X206479298Y-91884824D02*
X206479298Y-90884824D01*
X206479298Y-90884824D02*
X206003108Y-90884824D01*
X205574536Y-91884824D02*
X205574536Y-90884824D01*
X205574536Y-90884824D02*
X205336441Y-90884824D01*
X205336441Y-90884824D02*
X205193584Y-90932444D01*
X205193584Y-90932444D02*
X205098346Y-91027682D01*
X205098346Y-91027682D02*
X205050727Y-91122920D01*
X205050727Y-91122920D02*
X205003108Y-91313396D01*
X205003108Y-91313396D02*
X205003108Y-91456253D01*
X205003108Y-91456253D02*
X205050727Y-91646729D01*
X205050727Y-91646729D02*
X205098346Y-91741967D01*
X205098346Y-91741967D02*
X205193584Y-91837205D01*
X205193584Y-91837205D02*
X205336441Y-91884824D01*
X205336441Y-91884824D02*
X205574536Y-91884824D01*
X204145965Y-91218158D02*
X204145965Y-91884824D01*
X204384060Y-90837205D02*
X204622155Y-91551491D01*
X204622155Y-91551491D02*
X204003108Y-91551491D01*
X198561904Y-84767380D02*
X198561904Y-85576904D01*
X198561904Y-85576904D02*
X198514285Y-85672142D01*
X198514285Y-85672142D02*
X198466666Y-85719761D01*
X198466666Y-85719761D02*
X198371428Y-85767380D01*
X198371428Y-85767380D02*
X198180952Y-85767380D01*
X198180952Y-85767380D02*
X198085714Y-85719761D01*
X198085714Y-85719761D02*
X198038095Y-85672142D01*
X198038095Y-85672142D02*
X197990476Y-85576904D01*
X197990476Y-85576904D02*
X197990476Y-84767380D01*
X197038095Y-84767380D02*
X197514285Y-84767380D01*
X197514285Y-84767380D02*
X197561904Y-85243571D01*
X197561904Y-85243571D02*
X197514285Y-85195952D01*
X197514285Y-85195952D02*
X197419047Y-85148333D01*
X197419047Y-85148333D02*
X197180952Y-85148333D01*
X197180952Y-85148333D02*
X197085714Y-85195952D01*
X197085714Y-85195952D02*
X197038095Y-85243571D01*
X197038095Y-85243571D02*
X196990476Y-85338809D01*
X196990476Y-85338809D02*
X196990476Y-85576904D01*
X196990476Y-85576904D02*
X197038095Y-85672142D01*
X197038095Y-85672142D02*
X197085714Y-85719761D01*
X197085714Y-85719761D02*
X197180952Y-85767380D01*
X197180952Y-85767380D02*
X197419047Y-85767380D01*
X197419047Y-85767380D02*
X197514285Y-85719761D01*
X197514285Y-85719761D02*
X197561904Y-85672142D01*
X174242857Y-101472141D02*
X174290476Y-101519760D01*
X174290476Y-101519760D02*
X174433333Y-101567379D01*
X174433333Y-101567379D02*
X174528571Y-101567379D01*
X174528571Y-101567379D02*
X174671428Y-101519760D01*
X174671428Y-101519760D02*
X174766666Y-101424522D01*
X174766666Y-101424522D02*
X174814285Y-101329284D01*
X174814285Y-101329284D02*
X174861904Y-101138808D01*
X174861904Y-101138808D02*
X174861904Y-100995951D01*
X174861904Y-100995951D02*
X174814285Y-100805475D01*
X174814285Y-100805475D02*
X174766666Y-100710237D01*
X174766666Y-100710237D02*
X174671428Y-100614999D01*
X174671428Y-100614999D02*
X174528571Y-100567379D01*
X174528571Y-100567379D02*
X174433333Y-100567379D01*
X174433333Y-100567379D02*
X174290476Y-100614999D01*
X174290476Y-100614999D02*
X174242857Y-100662618D01*
X173290476Y-101567379D02*
X173861904Y-101567379D01*
X173576190Y-101567379D02*
X173576190Y-100567379D01*
X173576190Y-100567379D02*
X173671428Y-100710237D01*
X173671428Y-100710237D02*
X173766666Y-100805475D01*
X173766666Y-100805475D02*
X173861904Y-100853094D01*
X172671428Y-100567379D02*
X172576190Y-100567379D01*
X172576190Y-100567379D02*
X172480952Y-100614999D01*
X172480952Y-100614999D02*
X172433333Y-100662618D01*
X172433333Y-100662618D02*
X172385714Y-100757856D01*
X172385714Y-100757856D02*
X172338095Y-100948332D01*
X172338095Y-100948332D02*
X172338095Y-101186427D01*
X172338095Y-101186427D02*
X172385714Y-101376903D01*
X172385714Y-101376903D02*
X172433333Y-101472141D01*
X172433333Y-101472141D02*
X172480952Y-101519760D01*
X172480952Y-101519760D02*
X172576190Y-101567379D01*
X172576190Y-101567379D02*
X172671428Y-101567379D01*
X172671428Y-101567379D02*
X172766666Y-101519760D01*
X172766666Y-101519760D02*
X172814285Y-101472141D01*
X172814285Y-101472141D02*
X172861904Y-101376903D01*
X172861904Y-101376903D02*
X172909523Y-101186427D01*
X172909523Y-101186427D02*
X172909523Y-100948332D01*
X172909523Y-100948332D02*
X172861904Y-100757856D01*
X172861904Y-100757856D02*
X172814285Y-100662618D01*
X172814285Y-100662618D02*
X172766666Y-100614999D01*
X172766666Y-100614999D02*
X172671428Y-100567379D01*
X170561904Y-84767380D02*
X170561904Y-85576904D01*
X170561904Y-85576904D02*
X170514285Y-85672142D01*
X170514285Y-85672142D02*
X170466666Y-85719761D01*
X170466666Y-85719761D02*
X170371428Y-85767380D01*
X170371428Y-85767380D02*
X170180952Y-85767380D01*
X170180952Y-85767380D02*
X170085714Y-85719761D01*
X170085714Y-85719761D02*
X170038095Y-85672142D01*
X170038095Y-85672142D02*
X169990476Y-85576904D01*
X169990476Y-85576904D02*
X169990476Y-84767380D01*
X168990476Y-85767380D02*
X169561904Y-85767380D01*
X169276190Y-85767380D02*
X169276190Y-84767380D01*
X169276190Y-84767380D02*
X169371428Y-84910238D01*
X169371428Y-84910238D02*
X169466666Y-85005476D01*
X169466666Y-85005476D02*
X169561904Y-85053095D01*
X158733333Y-88362380D02*
X158733333Y-89076666D01*
X158733333Y-89076666D02*
X158780952Y-89219523D01*
X158780952Y-89219523D02*
X158876190Y-89314761D01*
X158876190Y-89314761D02*
X159019047Y-89362380D01*
X159019047Y-89362380D02*
X159114285Y-89362380D01*
X158352380Y-88362380D02*
X157733333Y-88362380D01*
X157733333Y-88362380D02*
X158066666Y-88743333D01*
X158066666Y-88743333D02*
X157923809Y-88743333D01*
X157923809Y-88743333D02*
X157828571Y-88790952D01*
X157828571Y-88790952D02*
X157780952Y-88838571D01*
X157780952Y-88838571D02*
X157733333Y-88933809D01*
X157733333Y-88933809D02*
X157733333Y-89171904D01*
X157733333Y-89171904D02*
X157780952Y-89267142D01*
X157780952Y-89267142D02*
X157828571Y-89314761D01*
X157828571Y-89314761D02*
X157923809Y-89362380D01*
X157923809Y-89362380D02*
X158209523Y-89362380D01*
X158209523Y-89362380D02*
X158304761Y-89314761D01*
X158304761Y-89314761D02*
X158352380Y-89267142D01*
X168387632Y-91934824D02*
X168863822Y-91934824D01*
X168863822Y-91934824D02*
X168863822Y-90934824D01*
X168054298Y-91411015D02*
X167720965Y-91411015D01*
X167578108Y-91934824D02*
X168054298Y-91934824D01*
X168054298Y-91934824D02*
X168054298Y-90934824D01*
X168054298Y-90934824D02*
X167578108Y-90934824D01*
X167149536Y-91934824D02*
X167149536Y-90934824D01*
X167149536Y-90934824D02*
X166911441Y-90934824D01*
X166911441Y-90934824D02*
X166768584Y-90982444D01*
X166768584Y-90982444D02*
X166673346Y-91077682D01*
X166673346Y-91077682D02*
X166625727Y-91172920D01*
X166625727Y-91172920D02*
X166578108Y-91363396D01*
X166578108Y-91363396D02*
X166578108Y-91506253D01*
X166578108Y-91506253D02*
X166625727Y-91696729D01*
X166625727Y-91696729D02*
X166673346Y-91791967D01*
X166673346Y-91791967D02*
X166768584Y-91887205D01*
X166768584Y-91887205D02*
X166911441Y-91934824D01*
X166911441Y-91934824D02*
X167149536Y-91934824D01*
X165720965Y-90934824D02*
X165911441Y-90934824D01*
X165911441Y-90934824D02*
X166006679Y-90982444D01*
X166006679Y-90982444D02*
X166054298Y-91030063D01*
X166054298Y-91030063D02*
X166149536Y-91172920D01*
X166149536Y-91172920D02*
X166197155Y-91363396D01*
X166197155Y-91363396D02*
X166197155Y-91744348D01*
X166197155Y-91744348D02*
X166149536Y-91839586D01*
X166149536Y-91839586D02*
X166101917Y-91887205D01*
X166101917Y-91887205D02*
X166006679Y-91934824D01*
X166006679Y-91934824D02*
X165816203Y-91934824D01*
X165816203Y-91934824D02*
X165720965Y-91887205D01*
X165720965Y-91887205D02*
X165673346Y-91839586D01*
X165673346Y-91839586D02*
X165625727Y-91744348D01*
X165625727Y-91744348D02*
X165625727Y-91506253D01*
X165625727Y-91506253D02*
X165673346Y-91411015D01*
X165673346Y-91411015D02*
X165720965Y-91363396D01*
X165720965Y-91363396D02*
X165816203Y-91315777D01*
X165816203Y-91315777D02*
X166006679Y-91315777D01*
X166006679Y-91315777D02*
X166101917Y-91363396D01*
X166101917Y-91363396D02*
X166149536Y-91411015D01*
X166149536Y-91411015D02*
X166197155Y-91506253D01*
X169966666Y-83312142D02*
X170014285Y-83359761D01*
X170014285Y-83359761D02*
X170157142Y-83407380D01*
X170157142Y-83407380D02*
X170252380Y-83407380D01*
X170252380Y-83407380D02*
X170395237Y-83359761D01*
X170395237Y-83359761D02*
X170490475Y-83264523D01*
X170490475Y-83264523D02*
X170538094Y-83169285D01*
X170538094Y-83169285D02*
X170585713Y-82978809D01*
X170585713Y-82978809D02*
X170585713Y-82835952D01*
X170585713Y-82835952D02*
X170538094Y-82645476D01*
X170538094Y-82645476D02*
X170490475Y-82550238D01*
X170490475Y-82550238D02*
X170395237Y-82455000D01*
X170395237Y-82455000D02*
X170252380Y-82407380D01*
X170252380Y-82407380D02*
X170157142Y-82407380D01*
X170157142Y-82407380D02*
X170014285Y-82455000D01*
X170014285Y-82455000D02*
X169966666Y-82502619D01*
X169014285Y-83407380D02*
X169585713Y-83407380D01*
X169299999Y-83407380D02*
X169299999Y-82407380D01*
X169299999Y-82407380D02*
X169395237Y-82550238D01*
X169395237Y-82550238D02*
X169490475Y-82645476D01*
X169490475Y-82645476D02*
X169585713Y-82693095D01*
X169961904Y-87167380D02*
X169961904Y-87976904D01*
X169961904Y-87976904D02*
X169914285Y-88072142D01*
X169914285Y-88072142D02*
X169866666Y-88119761D01*
X169866666Y-88119761D02*
X169771428Y-88167380D01*
X169771428Y-88167380D02*
X169580952Y-88167380D01*
X169580952Y-88167380D02*
X169485714Y-88119761D01*
X169485714Y-88119761D02*
X169438095Y-88072142D01*
X169438095Y-88072142D02*
X169390476Y-87976904D01*
X169390476Y-87976904D02*
X169390476Y-87167380D01*
X168485714Y-87500714D02*
X168485714Y-88167380D01*
X168723809Y-87119761D02*
X168961904Y-87834047D01*
X168961904Y-87834047D02*
X168342857Y-87834047D01*
X171766666Y-94672142D02*
X171814285Y-94719761D01*
X171814285Y-94719761D02*
X171957142Y-94767380D01*
X171957142Y-94767380D02*
X172052380Y-94767380D01*
X172052380Y-94767380D02*
X172195237Y-94719761D01*
X172195237Y-94719761D02*
X172290475Y-94624523D01*
X172290475Y-94624523D02*
X172338094Y-94529285D01*
X172338094Y-94529285D02*
X172385713Y-94338809D01*
X172385713Y-94338809D02*
X172385713Y-94195952D01*
X172385713Y-94195952D02*
X172338094Y-94005476D01*
X172338094Y-94005476D02*
X172290475Y-93910238D01*
X172290475Y-93910238D02*
X172195237Y-93815000D01*
X172195237Y-93815000D02*
X172052380Y-93767380D01*
X172052380Y-93767380D02*
X171957142Y-93767380D01*
X171957142Y-93767380D02*
X171814285Y-93815000D01*
X171814285Y-93815000D02*
X171766666Y-93862619D01*
X170909523Y-93767380D02*
X171099999Y-93767380D01*
X171099999Y-93767380D02*
X171195237Y-93815000D01*
X171195237Y-93815000D02*
X171242856Y-93862619D01*
X171242856Y-93862619D02*
X171338094Y-94005476D01*
X171338094Y-94005476D02*
X171385713Y-94195952D01*
X171385713Y-94195952D02*
X171385713Y-94576904D01*
X171385713Y-94576904D02*
X171338094Y-94672142D01*
X171338094Y-94672142D02*
X171290475Y-94719761D01*
X171290475Y-94719761D02*
X171195237Y-94767380D01*
X171195237Y-94767380D02*
X171004761Y-94767380D01*
X171004761Y-94767380D02*
X170909523Y-94719761D01*
X170909523Y-94719761D02*
X170861904Y-94672142D01*
X170861904Y-94672142D02*
X170814285Y-94576904D01*
X170814285Y-94576904D02*
X170814285Y-94338809D01*
X170814285Y-94338809D02*
X170861904Y-94243571D01*
X170861904Y-94243571D02*
X170909523Y-94195952D01*
X170909523Y-94195952D02*
X171004761Y-94148333D01*
X171004761Y-94148333D02*
X171195237Y-94148333D01*
X171195237Y-94148333D02*
X171290475Y-94195952D01*
X171290475Y-94195952D02*
X171338094Y-94243571D01*
X171338094Y-94243571D02*
X171385713Y-94338809D01*
X182366666Y-85967380D02*
X182699999Y-85491190D01*
X182938094Y-85967380D02*
X182938094Y-84967380D01*
X182938094Y-84967380D02*
X182557142Y-84967380D01*
X182557142Y-84967380D02*
X182461904Y-85015000D01*
X182461904Y-85015000D02*
X182414285Y-85062619D01*
X182414285Y-85062619D02*
X182366666Y-85157857D01*
X182366666Y-85157857D02*
X182366666Y-85300714D01*
X182366666Y-85300714D02*
X182414285Y-85395952D01*
X182414285Y-85395952D02*
X182461904Y-85443571D01*
X182461904Y-85443571D02*
X182557142Y-85491190D01*
X182557142Y-85491190D02*
X182938094Y-85491190D01*
X181509523Y-84967380D02*
X181699999Y-84967380D01*
X181699999Y-84967380D02*
X181795237Y-85015000D01*
X181795237Y-85015000D02*
X181842856Y-85062619D01*
X181842856Y-85062619D02*
X181938094Y-85205476D01*
X181938094Y-85205476D02*
X181985713Y-85395952D01*
X181985713Y-85395952D02*
X181985713Y-85776904D01*
X181985713Y-85776904D02*
X181938094Y-85872142D01*
X181938094Y-85872142D02*
X181890475Y-85919761D01*
X181890475Y-85919761D02*
X181795237Y-85967380D01*
X181795237Y-85967380D02*
X181604761Y-85967380D01*
X181604761Y-85967380D02*
X181509523Y-85919761D01*
X181509523Y-85919761D02*
X181461904Y-85872142D01*
X181461904Y-85872142D02*
X181414285Y-85776904D01*
X181414285Y-85776904D02*
X181414285Y-85538809D01*
X181414285Y-85538809D02*
X181461904Y-85443571D01*
X181461904Y-85443571D02*
X181509523Y-85395952D01*
X181509523Y-85395952D02*
X181604761Y-85348333D01*
X181604761Y-85348333D02*
X181795237Y-85348333D01*
X181795237Y-85348333D02*
X181890475Y-85395952D01*
X181890475Y-85395952D02*
X181938094Y-85443571D01*
X181938094Y-85443571D02*
X181985713Y-85538809D01*
X187061904Y-101167380D02*
X186490476Y-101167380D01*
X186776190Y-102167380D02*
X186776190Y-101167380D01*
X186157142Y-102167380D02*
X186157142Y-101167380D01*
X186157142Y-101167380D02*
X185776190Y-101167380D01*
X185776190Y-101167380D02*
X185680952Y-101215000D01*
X185680952Y-101215000D02*
X185633333Y-101262619D01*
X185633333Y-101262619D02*
X185585714Y-101357857D01*
X185585714Y-101357857D02*
X185585714Y-101500714D01*
X185585714Y-101500714D02*
X185633333Y-101595952D01*
X185633333Y-101595952D02*
X185680952Y-101643571D01*
X185680952Y-101643571D02*
X185776190Y-101691190D01*
X185776190Y-101691190D02*
X186157142Y-101691190D01*
X185204761Y-101262619D02*
X185157142Y-101215000D01*
X185157142Y-101215000D02*
X185061904Y-101167380D01*
X185061904Y-101167380D02*
X184823809Y-101167380D01*
X184823809Y-101167380D02*
X184728571Y-101215000D01*
X184728571Y-101215000D02*
X184680952Y-101262619D01*
X184680952Y-101262619D02*
X184633333Y-101357857D01*
X184633333Y-101357857D02*
X184633333Y-101453095D01*
X184633333Y-101453095D02*
X184680952Y-101595952D01*
X184680952Y-101595952D02*
X185252380Y-102167380D01*
X185252380Y-102167380D02*
X184633333Y-102167380D01*
X179966666Y-82567380D02*
X180299999Y-82091190D01*
X180538094Y-82567380D02*
X180538094Y-81567380D01*
X180538094Y-81567380D02*
X180157142Y-81567380D01*
X180157142Y-81567380D02*
X180061904Y-81615000D01*
X180061904Y-81615000D02*
X180014285Y-81662619D01*
X180014285Y-81662619D02*
X179966666Y-81757857D01*
X179966666Y-81757857D02*
X179966666Y-81900714D01*
X179966666Y-81900714D02*
X180014285Y-81995952D01*
X180014285Y-81995952D02*
X180061904Y-82043571D01*
X180061904Y-82043571D02*
X180157142Y-82091190D01*
X180157142Y-82091190D02*
X180538094Y-82091190D01*
X179061904Y-81567380D02*
X179538094Y-81567380D01*
X179538094Y-81567380D02*
X179585713Y-82043571D01*
X179585713Y-82043571D02*
X179538094Y-81995952D01*
X179538094Y-81995952D02*
X179442856Y-81948333D01*
X179442856Y-81948333D02*
X179204761Y-81948333D01*
X179204761Y-81948333D02*
X179109523Y-81995952D01*
X179109523Y-81995952D02*
X179061904Y-82043571D01*
X179061904Y-82043571D02*
X179014285Y-82138809D01*
X179014285Y-82138809D02*
X179014285Y-82376904D01*
X179014285Y-82376904D02*
X179061904Y-82472142D01*
X179061904Y-82472142D02*
X179109523Y-82519761D01*
X179109523Y-82519761D02*
X179204761Y-82567380D01*
X179204761Y-82567380D02*
X179442856Y-82567380D01*
X179442856Y-82567380D02*
X179538094Y-82519761D01*
X179538094Y-82519761D02*
X179585713Y-82472142D01*
D11*
X196353641Y-85780000D02*
X196046359Y-85780000D01*
X196353641Y-85020000D02*
X196046359Y-85020000D01*
X177800000Y-95705311D02*
X178259619Y-95245692D01*
X177340381Y-95245692D02*
X177800000Y-95705311D01*
X182445692Y-90140381D02*
X182905311Y-90600000D01*
X173154308Y-91059619D02*
X172694689Y-90600000D01*
X178259619Y-85954308D02*
X177800000Y-85494689D01*
X172694689Y-90600000D02*
X173154308Y-90140381D01*
X177800000Y-85494689D02*
X177340381Y-85954308D01*
X194153641Y-85780000D02*
X193846359Y-85780000D01*
X194153641Y-85020000D02*
X193846359Y-85020000D01*
X190268585Y-75567444D02*
X190268585Y-76567444D01*
X190268585Y-76567444D02*
X189368585Y-76567444D01*
X176510000Y-81597936D02*
X176510000Y-82802064D01*
X174690000Y-81597936D02*
X174690000Y-82802064D01*
X178000000Y-107800000D02*
X171600000Y-107800000D01*
X178000000Y-106600000D02*
X178000000Y-107800000D01*
X178000000Y-103800000D02*
X178000000Y-105000000D01*
X171600000Y-107800000D02*
X171600000Y-106600000D01*
X171600000Y-105000000D02*
X171600000Y-103800000D01*
X171600000Y-103800000D02*
X178000000Y-103800000D01*
X171068585Y-75467444D02*
X171068585Y-76467444D01*
X171068585Y-76467444D02*
X170168585Y-76467444D01*
X198200000Y-72200000D02*
X198200000Y-78600000D01*
X197000000Y-72200000D02*
X198200000Y-72200000D01*
X194200000Y-72200000D02*
X195400000Y-72200000D01*
X198200000Y-78600000D02*
X197000000Y-78600000D01*
X195400000Y-78600000D02*
X194200000Y-78600000D01*
X194200000Y-78600000D02*
X194200000Y-72200000D01*
X196420000Y-81953641D02*
X196420000Y-81646359D01*
X197180000Y-81953641D02*
X197180000Y-81646359D01*
X184092164Y-91040000D02*
X184307836Y-91040000D01*
X184092164Y-91760000D02*
X184307836Y-91760000D01*
X189240000Y-85027836D02*
X189240000Y-84812164D01*
X189960000Y-85027836D02*
X189960000Y-84812164D01*
X209518585Y-75467444D02*
X209518585Y-76467444D01*
X209518585Y-76467444D02*
X208618585Y-76467444D01*
X165150000Y-90200000D02*
G75*
G03*
X165150000Y-90200000I-950000J0D01*
G01*
X174180000Y-82029879D02*
X174180000Y-82365121D01*
X173420000Y-82029879D02*
X173420000Y-82365121D01*
X200150000Y-96600000D02*
G75*
G03*
X200150000Y-96600000I-950000J0D01*
G01*
X180469190Y-95178307D02*
X180621693Y-95330810D01*
X180978307Y-94669190D02*
X181130810Y-94821693D01*
X177247487Y-101580940D02*
X174419060Y-98752513D01*
X179580940Y-99247487D02*
X177247487Y-101580940D01*
X178221693Y-97530810D02*
X178069190Y-97378307D01*
X178730810Y-97021693D02*
X178578307Y-96869190D01*
X164536359Y-71020000D02*
X164843641Y-71020000D01*
X164536359Y-71780000D02*
X164843641Y-71780000D01*
X159730000Y-86750000D02*
X157070000Y-86750000D01*
X159730000Y-79070000D02*
X159730000Y-86750000D01*
X159730000Y-79070000D02*
X157070000Y-79070000D01*
X159730000Y-77800000D02*
X159730000Y-76470000D01*
X159730000Y-76470000D02*
X158400000Y-76470000D01*
X157070000Y-79070000D02*
X157070000Y-86750000D01*
X172130000Y-71900000D02*
X172130000Y-70750000D01*
X172130000Y-74000000D02*
X172130000Y-75800000D01*
X181470000Y-71900000D02*
X181470000Y-70750000D01*
X181470000Y-74000000D02*
X181470000Y-75800000D01*
X172239940Y-92177341D02*
X172022659Y-91960060D01*
X172777341Y-91639940D02*
X172560060Y-91422659D01*
X174580000Y-95846359D02*
X174580000Y-96153641D01*
X173820000Y-95846359D02*
X173820000Y-96153641D01*
D12*
X168342500Y-71400000D02*
G75*
G03*
X168342500Y-71400000I-50000J0D01*
G01*
D11*
X171307836Y-88360000D02*
X171092164Y-88360000D01*
X171307836Y-87640000D02*
X171092164Y-87640000D01*
X182668585Y-93667444D02*
X182668585Y-92667444D01*
X182668585Y-92667444D02*
X183568585Y-92667444D01*
X201893585Y-93617444D02*
X201893585Y-92617444D01*
X201893585Y-92617444D02*
X202793585Y-92617444D01*
X195925000Y-91525000D02*
X195925000Y-91265000D01*
X195925000Y-86335000D02*
X197600000Y-86335000D01*
X195925000Y-86075000D02*
X195925000Y-86335000D01*
X193200000Y-91525000D02*
X195925000Y-91525000D01*
X193200000Y-91525000D02*
X190475000Y-91525000D01*
X193200000Y-86075000D02*
X195925000Y-86075000D01*
X193200000Y-86075000D02*
X190475000Y-86075000D01*
X190475000Y-91525000D02*
X190475000Y-91265000D01*
X190475000Y-86075000D02*
X190475000Y-86335000D01*
X175978307Y-100669190D02*
X176130810Y-100821693D01*
X175469190Y-101178307D02*
X175621693Y-101330810D01*
X171040000Y-85400000D02*
X171040000Y-86200000D01*
X171040000Y-85400000D02*
X171040000Y-84600000D01*
X174160000Y-85400000D02*
X174160000Y-87200000D01*
X174160000Y-85400000D02*
X174160000Y-84600000D01*
X159730000Y-102815000D02*
X157070000Y-102815000D01*
X159730000Y-92595000D02*
X159730000Y-102815000D01*
X159730000Y-92595000D02*
X157070000Y-92595000D01*
X159730000Y-91325000D02*
X159730000Y-89995000D01*
X159730000Y-89995000D02*
X158400000Y-89995000D01*
X157070000Y-92595000D02*
X157070000Y-102815000D01*
X163468585Y-93667444D02*
X163468585Y-92667444D01*
X163468585Y-92667444D02*
X164368585Y-92667444D01*
X169907836Y-84560000D02*
X169692164Y-84560000D01*
X169907836Y-83840000D02*
X169692164Y-83840000D01*
X168100000Y-90900000D02*
X170300000Y-90900000D01*
X168100000Y-88700000D02*
X171100000Y-88700000D01*
X172730810Y-95578307D02*
X172578307Y-95730810D01*
X172221693Y-95069190D02*
X172069190Y-95221693D01*
X178439940Y-84577341D02*
X178222659Y-84360060D01*
X178977341Y-84039940D02*
X178760060Y-83822659D01*
X184150000Y-100400000D02*
G75*
G03*
X184150000Y-100400000I-950000J0D01*
G01*
X179239940Y-83977341D02*
X179022659Y-83760060D01*
X179777341Y-83439940D02*
X179560060Y-83222659D01*
%LPC*%
D13*
X181000000Y-98800000D03*
D14*
X186500000Y-98800000D03*
D13*
X192000000Y-98800000D03*
D15*
X181500000Y-102600000D03*
X186500000Y-104700000D03*
D13*
X200200000Y-98800000D03*
D14*
X205700000Y-98800000D03*
D13*
X211200000Y-98800000D03*
D15*
X200700000Y-102600000D03*
X205700000Y-104700000D03*
D13*
X161700000Y-98800000D03*
D14*
X167200000Y-98800000D03*
D13*
X172700000Y-98800000D03*
D15*
X162200000Y-102600000D03*
X167200000Y-104700000D03*
D13*
X181000000Y-79800000D03*
D14*
X186500000Y-79800000D03*
D13*
X192000000Y-79800000D03*
D15*
X181500000Y-83600000D03*
X186500000Y-85700000D03*
D13*
X161700000Y-79600000D03*
D14*
X167200000Y-79600000D03*
D13*
X172700000Y-79600000D03*
D15*
X162200000Y-83400000D03*
X167200000Y-85500000D03*
D13*
X200200000Y-79600000D03*
D14*
X205700000Y-79600000D03*
D13*
X211200000Y-79600000D03*
D15*
X200700000Y-83400000D03*
X205700000Y-85500000D03*
D16*
X196710000Y-85400000D03*
X195690000Y-85400000D03*
D17*
X182069157Y-91192202D03*
X181786314Y-91475045D03*
X181503472Y-91757887D03*
X181220629Y-92040730D03*
X180937786Y-92323573D03*
X180654944Y-92606415D03*
X180372101Y-92889258D03*
X180089258Y-93172101D03*
X179806415Y-93454944D03*
X179523573Y-93737786D03*
X179240730Y-94020629D03*
X178957887Y-94303472D03*
X178675045Y-94586314D03*
X178392202Y-94869157D03*
D18*
X177207798Y-94869157D03*
X176924955Y-94586314D03*
X176642113Y-94303472D03*
X176359270Y-94020629D03*
X176076427Y-93737786D03*
X175793585Y-93454944D03*
X175510742Y-93172101D03*
X175227899Y-92889258D03*
X174945056Y-92606415D03*
X174662214Y-92323573D03*
X174379371Y-92040730D03*
X174096528Y-91757887D03*
X173813686Y-91475045D03*
X173530843Y-91192202D03*
D17*
X173530843Y-90007798D03*
X173813686Y-89724955D03*
X174096528Y-89442113D03*
X174379371Y-89159270D03*
X174662214Y-88876427D03*
X174945056Y-88593585D03*
X175227899Y-88310742D03*
X175510742Y-88027899D03*
X175793585Y-87745056D03*
X176076427Y-87462214D03*
X176359270Y-87179371D03*
X176642113Y-86896528D03*
X176924955Y-86613686D03*
X177207798Y-86330843D03*
D18*
X178392202Y-86330843D03*
X178675045Y-86613686D03*
X178957887Y-86896528D03*
X179240730Y-87179371D03*
X179523573Y-87462214D03*
X179806415Y-87745056D03*
X180089258Y-88027899D03*
X180372101Y-88310742D03*
X180654944Y-88593585D03*
X180937786Y-88876427D03*
X181220629Y-89159270D03*
X181503472Y-89442113D03*
X181786314Y-89724955D03*
X182069157Y-90007798D03*
D19*
X177799999Y-90599999D03*
D16*
X194510000Y-85400000D03*
X193490000Y-85400000D03*
D20*
X183743585Y-74317444D03*
X183743585Y-75817444D03*
X189193585Y-74317444D03*
D21*
X189193584Y-75817443D03*
D22*
X175600000Y-80800000D03*
X175600000Y-83600000D03*
D23*
X213593585Y-73017444D03*
D24*
X178674999Y-105799999D03*
X170924999Y-105799999D03*
D20*
X164543585Y-74217444D03*
X164543585Y-75717444D03*
X169993585Y-74217444D03*
D21*
X169993584Y-75717443D03*
D25*
X196199999Y-71524999D03*
X196199999Y-79274999D03*
D26*
X196800000Y-82310000D03*
X196800000Y-81290000D03*
D27*
X183720000Y-91400000D03*
X184680000Y-91400000D03*
D28*
X189600000Y-85400000D03*
X189600000Y-84440000D03*
D20*
X202993585Y-74217444D03*
X202993585Y-75717444D03*
X208443585Y-74217444D03*
D21*
X208443584Y-75717443D03*
D29*
X164200000Y-90200000D03*
D30*
X173800000Y-81600000D03*
X173800000Y-82795000D03*
D23*
X159393585Y-106817444D03*
D29*
X199200000Y-96600000D03*
D31*
X181139411Y-95339411D03*
X180460589Y-94660589D03*
D32*
X177176776Y-100378857D03*
X175621141Y-98823222D03*
X176823222Y-97621141D03*
X178378857Y-99176776D03*
D33*
X178739411Y-97539411D03*
X178060589Y-96860589D03*
D34*
X164180000Y-71400000D03*
X165200000Y-71400000D03*
D35*
X158399999Y-77799999D03*
D36*
X158399999Y-80339999D03*
X158399999Y-82879999D03*
X158399999Y-85419999D03*
D37*
X173910000Y-76605000D03*
X179690000Y-76605000D03*
D38*
X173599999Y-77679999D03*
X174399999Y-77679999D03*
D39*
X175549999Y-77679999D03*
X176549999Y-77679999D03*
X177049999Y-77679999D03*
X178049999Y-77679999D03*
D38*
X179199999Y-77679999D03*
X179999999Y-77679999D03*
X179999999Y-77679999D03*
X179199999Y-77679999D03*
D39*
X178549999Y-77679999D03*
X177549999Y-77679999D03*
X176049999Y-77679999D03*
X175049999Y-77679999D03*
D38*
X174399999Y-77679999D03*
X173599999Y-77679999D03*
D40*
X172479999Y-72924999D03*
D41*
X172479999Y-77104999D03*
D40*
X181119999Y-72924999D03*
D41*
X181119999Y-77104999D03*
D42*
X172760624Y-92160624D03*
X172039376Y-91439376D03*
D43*
X174200000Y-95490000D03*
X174200000Y-96510000D03*
D44*
X167600000Y-71400000D03*
X166455000Y-71400000D03*
D45*
X171680000Y-88000000D03*
X170720000Y-88000000D03*
D46*
X189193585Y-94917444D03*
X189193585Y-93417444D03*
X183743585Y-94917444D03*
D47*
X183743584Y-93417443D03*
D46*
X208418585Y-94867444D03*
X208418585Y-93367444D03*
X202968585Y-94867444D03*
D47*
X202968584Y-93367443D03*
D23*
X213593585Y-106817444D03*
D48*
X196800000Y-86895000D03*
X196800000Y-88165000D03*
X196800000Y-89435000D03*
X196800000Y-90705000D03*
X189600000Y-90705000D03*
X189600000Y-89435000D03*
X189600000Y-88165000D03*
X189600000Y-86895000D03*
D31*
X175460589Y-100660589D03*
X176139411Y-101339411D03*
D49*
X173550000Y-86537500D03*
X171650000Y-86537500D03*
X172600000Y-84262500D03*
D35*
X158399999Y-91324999D03*
D36*
X158399999Y-93864999D03*
X158399999Y-96404999D03*
X158399999Y-98944999D03*
X158399999Y-101484999D03*
D46*
X169993585Y-94917444D03*
X169993585Y-93417444D03*
X164543585Y-94917444D03*
D47*
X164543584Y-93417443D03*
D45*
X170280000Y-84200000D03*
X169320000Y-84200000D03*
D50*
X170749999Y-89049999D03*
X170749999Y-89549999D03*
X170749999Y-90049999D03*
X170749999Y-90549999D03*
X167649999Y-90549999D03*
X167649999Y-90049999D03*
X167649999Y-89549999D03*
X167649999Y-89049999D03*
D51*
X172739411Y-95060589D03*
X172060589Y-95739411D03*
D42*
X178960624Y-84560624D03*
X178239376Y-83839376D03*
D23*
X159393585Y-73017444D03*
D29*
X183200000Y-100400000D03*
D42*
X179760624Y-83960624D03*
X179039376Y-83239376D03*
M02*
