G04 #@! TF.GenerationSoftware,KiCad,Pcbnew,(7.0.0)*
G04 #@! TF.CreationDate,2023-09-09T12:15:39-05:00*
G04 #@! TF.ProjectId,6_key_macro_pad_V1,365f6b65-795f-46d6-9163-726f5f706164,rev?*
G04 #@! TF.SameCoordinates,Original*
G04 #@! TF.FileFunction,Profile,NP*
%FSLAX46Y46*%
G04 Gerber Fmt 4.6, Leading zero omitted, Abs format (unit mm)*
G04 Created by KiCad (PCBNEW (7.0.0)) date 2023-09-09 12:15:39*
%MOMM*%
%LPD*%
G01*
G04 APERTURE LIST*
G04 #@! TA.AperFunction,Profile*
%ADD10C,0.100000*%
G04 #@! TD*
G04 APERTURE END LIST*
D10*
X156622078Y-107603221D02*
G75*
G03*
X158622014Y-109603222I1999922J-79D01*
G01*
X214393585Y-109603185D02*
G75*
G03*
X216393585Y-107603222I15J1999985D01*
G01*
X216393550Y-72231650D02*
G75*
G03*
X214393585Y-70231650I-1999950J50D01*
G01*
X214393585Y-70231650D02*
X158622013Y-70231650D01*
X216393585Y-72231650D02*
X216393585Y-107603222D01*
X158622013Y-70231713D02*
G75*
G03*
X156622013Y-72231650I-13J-1999987D01*
G01*
X156622013Y-72231650D02*
X156622013Y-107603221D01*
X158622014Y-109603222D02*
X214393585Y-109603222D01*
X184768586Y-75770285D02*
X184768586Y-74364601D01*
X185674133Y-73567444D02*
X187263038Y-73567444D01*
X187263037Y-76567443D02*
X185674133Y-76567443D01*
X188168584Y-74364601D02*
X188168584Y-75770285D01*
X184768585Y-74364601D02*
G75*
G03*
X184719100Y-74147723I-499989J2D01*
G01*
X185421874Y-73499145D02*
G75*
G03*
X184719102Y-74147723I-252258J-431700D01*
G01*
X184719101Y-75987163D02*
G75*
G03*
X184768586Y-75770286I-450505J216876D01*
G01*
X184719102Y-75987164D02*
G75*
G03*
X185421874Y-76635739I450514J-216876D01*
G01*
X185674133Y-76567443D02*
G75*
G03*
X185421875Y-76635742I3J-500009D01*
G01*
X185421874Y-73499144D02*
G75*
G03*
X185674132Y-73567443I252261J431710D01*
G01*
X187515296Y-76635742D02*
G75*
G03*
X187263037Y-76567443I-252261J-431712D01*
G01*
X187263038Y-73567443D02*
G75*
G03*
X187515295Y-73499144I-3J500009D01*
G01*
X188218068Y-74147722D02*
G75*
G03*
X187515296Y-73499146I-450513J216878D01*
G01*
X188218070Y-74147724D02*
G75*
G03*
X188168584Y-74364600I450905J-216970D01*
G01*
X187515295Y-76635744D02*
G75*
G03*
X188218068Y-75987162I252260J431700D01*
G01*
X188168597Y-75770285D02*
G75*
G03*
X188218070Y-75987163I500288J41D01*
G01*
X165568586Y-75670285D02*
X165568586Y-74264601D01*
X166474133Y-73467444D02*
X168063038Y-73467444D01*
X168063037Y-76467443D02*
X166474133Y-76467443D01*
X168968584Y-74264601D02*
X168968584Y-75670285D01*
X165568585Y-74264601D02*
G75*
G03*
X165519100Y-74047723I-499989J2D01*
G01*
X166221874Y-73399145D02*
G75*
G03*
X165519102Y-74047723I-252258J-431700D01*
G01*
X165519101Y-75887163D02*
G75*
G03*
X165568586Y-75670286I-450505J216876D01*
G01*
X165519102Y-75887164D02*
G75*
G03*
X166221874Y-76535739I450514J-216876D01*
G01*
X166474133Y-76467443D02*
G75*
G03*
X166221875Y-76535742I3J-500009D01*
G01*
X166221874Y-73399144D02*
G75*
G03*
X166474132Y-73467443I252261J431710D01*
G01*
X168315296Y-76535742D02*
G75*
G03*
X168063037Y-76467443I-252261J-431712D01*
G01*
X168063038Y-73467443D02*
G75*
G03*
X168315295Y-73399144I-3J500009D01*
G01*
X169018068Y-74047722D02*
G75*
G03*
X168315296Y-73399146I-450513J216878D01*
G01*
X169018070Y-74047724D02*
G75*
G03*
X168968584Y-74264600I450905J-216970D01*
G01*
X168315295Y-76535744D02*
G75*
G03*
X169018068Y-75887162I252260J431700D01*
G01*
X168968597Y-75670285D02*
G75*
G03*
X169018070Y-75887163I500288J41D01*
G01*
X204018586Y-75670285D02*
X204018586Y-74264601D01*
X204924133Y-73467444D02*
X206513038Y-73467444D01*
X206513037Y-76467443D02*
X204924133Y-76467443D01*
X207418584Y-74264601D02*
X207418584Y-75670285D01*
X204018585Y-74264601D02*
G75*
G03*
X203969100Y-74047723I-499989J2D01*
G01*
X204671874Y-73399145D02*
G75*
G03*
X203969102Y-74047723I-252258J-431700D01*
G01*
X203969101Y-75887163D02*
G75*
G03*
X204018586Y-75670286I-450505J216876D01*
G01*
X203969102Y-75887164D02*
G75*
G03*
X204671874Y-76535739I450514J-216876D01*
G01*
X204924133Y-76467443D02*
G75*
G03*
X204671875Y-76535742I3J-500009D01*
G01*
X204671874Y-73399144D02*
G75*
G03*
X204924132Y-73467443I252261J431710D01*
G01*
X206765296Y-76535742D02*
G75*
G03*
X206513037Y-76467443I-252261J-431712D01*
G01*
X206513038Y-73467443D02*
G75*
G03*
X206765295Y-73399144I-3J500009D01*
G01*
X207468068Y-74047722D02*
G75*
G03*
X206765296Y-73399146I-450513J216878D01*
G01*
X207468070Y-74047724D02*
G75*
G03*
X207418584Y-74264600I450905J-216970D01*
G01*
X206765295Y-76535744D02*
G75*
G03*
X207468068Y-75887162I252260J431700D01*
G01*
X207418597Y-75670285D02*
G75*
G03*
X207468070Y-75887163I500288J41D01*
G01*
X188168584Y-93464603D02*
X188168584Y-94870287D01*
X187263037Y-95667444D02*
X185674132Y-95667444D01*
X185674133Y-92667445D02*
X187263037Y-92667445D01*
X184768586Y-94870287D02*
X184768586Y-93464603D01*
X188168585Y-94870287D02*
G75*
G03*
X188218070Y-95087165I499989J-2D01*
G01*
X187515296Y-95735743D02*
G75*
G03*
X188218068Y-95087165I252258J431700D01*
G01*
X188218069Y-93247725D02*
G75*
G03*
X188168584Y-93464602I450505J-216876D01*
G01*
X188218068Y-93247724D02*
G75*
G03*
X187515296Y-92599149I-450514J216876D01*
G01*
X187263037Y-92667445D02*
G75*
G03*
X187515295Y-92599146I-3J500009D01*
G01*
X187515296Y-95735744D02*
G75*
G03*
X187263038Y-95667445I-252261J-431710D01*
G01*
X185421874Y-92599146D02*
G75*
G03*
X185674133Y-92667445I252261J431712D01*
G01*
X185674132Y-95667445D02*
G75*
G03*
X185421875Y-95735744I3J-500009D01*
G01*
X184719102Y-95087166D02*
G75*
G03*
X185421874Y-95735742I450513J-216878D01*
G01*
X184719100Y-95087164D02*
G75*
G03*
X184768586Y-94870288I-450905J216970D01*
G01*
X185421875Y-92599144D02*
G75*
G03*
X184719102Y-93247726I-252260J-431700D01*
G01*
X184768573Y-93464603D02*
G75*
G03*
X184719100Y-93247725I-500288J-41D01*
G01*
X207393584Y-93414603D02*
X207393584Y-94820287D01*
X206488037Y-95617444D02*
X204899132Y-95617444D01*
X204899133Y-92617445D02*
X206488037Y-92617445D01*
X203993586Y-94820287D02*
X203993586Y-93414603D01*
X207393585Y-94820287D02*
G75*
G03*
X207443070Y-95037165I499989J-2D01*
G01*
X206740296Y-95685743D02*
G75*
G03*
X207443068Y-95037165I252258J431700D01*
G01*
X207443069Y-93197725D02*
G75*
G03*
X207393584Y-93414602I450505J-216876D01*
G01*
X207443068Y-93197724D02*
G75*
G03*
X206740296Y-92549149I-450514J216876D01*
G01*
X206488037Y-92617445D02*
G75*
G03*
X206740295Y-92549146I-3J500009D01*
G01*
X206740296Y-95685744D02*
G75*
G03*
X206488038Y-95617445I-252261J-431710D01*
G01*
X204646874Y-92549146D02*
G75*
G03*
X204899133Y-92617445I252261J431712D01*
G01*
X204899132Y-95617445D02*
G75*
G03*
X204646875Y-95685744I3J-500009D01*
G01*
X203944102Y-95037166D02*
G75*
G03*
X204646874Y-95685742I450513J-216878D01*
G01*
X203944100Y-95037164D02*
G75*
G03*
X203993586Y-94820288I-450905J216970D01*
G01*
X204646875Y-92549144D02*
G75*
G03*
X203944102Y-93197726I-252260J-431700D01*
G01*
X203993573Y-93414603D02*
G75*
G03*
X203944100Y-93197725I-500288J-41D01*
G01*
X168968584Y-93464603D02*
X168968584Y-94870287D01*
X168063037Y-95667444D02*
X166474132Y-95667444D01*
X166474133Y-92667445D02*
X168063037Y-92667445D01*
X165568586Y-94870287D02*
X165568586Y-93464603D01*
X168968585Y-94870287D02*
G75*
G03*
X169018070Y-95087165I499989J-2D01*
G01*
X168315296Y-95735743D02*
G75*
G03*
X169018068Y-95087165I252258J431700D01*
G01*
X169018069Y-93247725D02*
G75*
G03*
X168968584Y-93464602I450505J-216876D01*
G01*
X169018068Y-93247724D02*
G75*
G03*
X168315296Y-92599149I-450514J216876D01*
G01*
X168063037Y-92667445D02*
G75*
G03*
X168315295Y-92599146I-3J500009D01*
G01*
X168315296Y-95735744D02*
G75*
G03*
X168063038Y-95667445I-252261J-431710D01*
G01*
X166221874Y-92599146D02*
G75*
G03*
X166474133Y-92667445I252261J431712D01*
G01*
X166474132Y-95667445D02*
G75*
G03*
X166221875Y-95735744I3J-500009D01*
G01*
X165519102Y-95087166D02*
G75*
G03*
X166221874Y-95735742I450513J-216878D01*
G01*
X165519100Y-95087164D02*
G75*
G03*
X165568586Y-94870288I-450905J216970D01*
G01*
X166221875Y-92599144D02*
G75*
G03*
X165519102Y-93247726I-252260J-431700D01*
G01*
X165568573Y-93464603D02*
G75*
G03*
X165519100Y-93247725I-500288J-41D01*
G01*
M02*
